<svg width="104" height="130" viewBox="0 0 104 130" fill="none" xmlns="http://www.w3.org/2000/svg">
<circle cx="52" cy="36.752" r="36" fill="#14B8A6"/>
<path d="M28.8089 102.752V100.826H32.2649V91.898H32.1029L29.3669 95.138L27.8909 93.896L31.0049 90.188H34.5869V100.826H37.4669V102.752H28.8089ZM43.3639 102.968C42.5599 102.968 41.8639 102.824 41.2759 102.536C40.6879 102.236 40.2019 101.81 39.8179 101.258C39.4339 100.706 39.1459 100.028 38.9539 99.224C38.7739 98.42 38.6839 97.502 38.6839 96.47C38.6839 95.45 38.7739 94.538 38.9539 93.734C39.1459 92.918 39.4339 92.234 39.8179 91.682C40.2019 91.13 40.6879 90.71 41.2759 90.422C41.8639 90.122 42.5599 89.972 43.3639 89.972C44.9599 89.972 46.1359 90.542 46.8919 91.682C47.6599 92.822 48.0439 94.418 48.0439 96.47C48.0439 98.522 47.6599 100.118 46.8919 101.258C46.1359 102.398 44.9599 102.968 43.3639 102.968ZM43.3639 100.97C44.1679 100.97 44.7259 100.67 45.0379 100.07C45.3619 99.458 45.5239 98.636 45.5239 97.604V95.336C45.5239 94.304 45.3619 93.488 45.0379 92.888C44.7259 92.276 44.1679 91.97 43.3639 91.97C42.5599 91.97 41.9959 92.276 41.6719 92.888C41.3599 93.488 41.2039 94.304 41.2039 95.336V97.604C41.2039 98.636 41.3599 99.458 41.6719 100.07C41.9959 100.67 42.5599 100.97 43.3639 100.97ZM54.1568 102.968C53.3528 102.968 52.6568 102.824 52.0688 102.536C51.4808 102.236 50.9948 101.81 50.6108 101.258C50.2268 100.706 49.9388 100.028 49.7468 99.224C49.5668 98.42 49.4768 97.502 49.4768 96.47C49.4768 95.45 49.5668 94.538 49.7468 93.734C49.9388 92.918 50.2268 92.234 50.6108 91.682C50.9948 91.13 51.4808 90.71 52.0688 90.422C52.6568 90.122 53.3528 89.972 54.1568 89.972C55.7528 89.972 56.9288 90.542 57.6848 91.682C58.4528 92.822 58.8368 94.418 58.8368 96.47C58.8368 98.522 58.4528 100.118 57.6848 101.258C56.9288 102.398 55.7528 102.968 54.1568 102.968ZM54.1568 100.97C54.9608 100.97 55.5188 100.67 55.8308 100.07C56.1548 99.458 56.3168 98.636 56.3168 97.604V95.336C56.3168 94.304 56.1548 93.488 55.8308 92.888C55.5188 92.276 54.9608 91.97 54.1568 91.97C53.3528 91.97 52.7888 92.276 52.4648 92.888C52.1528 93.488 51.9968 94.304 51.9968 95.336V97.604C51.9968 98.636 52.1528 99.458 52.4648 100.07C52.7888 100.67 53.3528 100.97 54.1568 100.97ZM62.7898 102.752L71.5018 90.188H73.5898L64.8778 102.752H62.7898ZM63.6538 97.1C62.6338 97.1 61.8538 96.8 61.3138 96.2C60.7858 95.588 60.5218 94.7 60.5218 93.536C60.5218 92.372 60.7858 91.49 61.3138 90.89C61.8538 90.278 62.6338 89.972 63.6538 89.972C64.6738 89.972 65.4478 90.278 65.9758 90.89C66.5038 91.49 66.7678 92.372 66.7678 93.536C66.7678 94.7 66.5038 95.588 65.9758 96.2C65.4478 96.8 64.6738 97.1 63.6538 97.1ZM63.6538 95.732C64.3978 95.732 64.7698 95.162 64.7698 94.022V93.05C64.7698 91.91 64.3978 91.34 63.6538 91.34C62.9098 91.34 62.5378 91.91 62.5378 93.05V94.022C62.5378 95.162 62.9098 95.732 63.6538 95.732ZM72.7258 102.968C71.7178 102.968 70.9438 102.668 70.4038 102.068C69.8758 101.456 69.6118 100.568 69.6118 99.404C69.6118 98.24 69.8758 97.358 70.4038 96.758C70.9438 96.146 71.7178 95.84 72.7258 95.84C73.7458 95.84 74.5198 96.146 75.0478 96.758C75.5878 97.358 75.8578 98.24 75.8578 99.404C75.8578 100.568 75.5878 101.456 75.0478 102.068C74.5198 102.668 73.7458 102.968 72.7258 102.968ZM72.7258 101.6C73.4698 101.6 73.8418 101.03 73.8418 99.89V98.918C73.8418 97.778 73.4698 97.208 72.7258 97.208C71.9818 97.208 71.6098 97.778 71.6098 98.918V99.89C71.6098 101.03 71.9818 101.6 72.7258 101.6Z" fill="#27272A"/>
<path d="M2.786 125.752C2.394 125.752 2.09533 125.645 1.89 125.43C1.694 125.206 1.596 124.917 1.596 124.562V119.508H0.406V118.528H1.078C1.32067 118.528 1.484 118.481 1.568 118.388C1.66133 118.285 1.708 118.113 1.708 117.87V116.526H2.716V118.528H4.298V119.508H2.716V124.772H4.186V125.752H2.786ZM11.3482 125.752C10.9282 125.752 10.6249 125.64 10.4382 125.416C10.2609 125.192 10.1489 124.912 10.1022 124.576H10.0322C9.87354 125.024 9.6122 125.36 9.2482 125.584C8.8842 125.808 8.4502 125.92 7.9462 125.92C7.18087 125.92 6.58354 125.724 6.1542 125.332C5.7342 124.94 5.5242 124.408 5.5242 123.736C5.5242 123.055 5.77154 122.532 6.2662 122.168C6.7702 121.804 7.54954 121.622 8.6042 121.622H10.0322V120.908C10.0322 120.395 9.8922 120.003 9.6122 119.732C9.3322 119.461 8.90287 119.326 8.3242 119.326C7.88554 119.326 7.51687 119.424 7.2182 119.62C6.92887 119.816 6.6862 120.077 6.4902 120.404L5.8182 119.774C6.0142 119.382 6.32687 119.051 6.7562 118.78C7.18554 118.5 7.72687 118.36 8.3802 118.36C9.25754 118.36 9.93887 118.575 10.4242 119.004C10.9095 119.433 11.1522 120.031 11.1522 120.796V124.772H11.9782V125.752H11.3482ZM8.1282 124.968C8.4082 124.968 8.66487 124.935 8.8982 124.87C9.13154 124.805 9.3322 124.711 9.5002 124.59C9.6682 124.469 9.79887 124.329 9.8922 124.17C9.98554 124.011 10.0322 123.839 10.0322 123.652V122.462H8.5482C7.9042 122.462 7.43287 122.555 7.1342 122.742C6.84487 122.929 6.7002 123.199 6.7002 123.554V123.848C6.7002 124.203 6.8262 124.478 7.0782 124.674C7.33954 124.87 7.68954 124.968 8.1282 124.968ZM15.7467 125.92C15.0747 125.92 14.5101 125.794 14.0527 125.542C13.6047 125.281 13.2174 124.935 12.8907 124.506L13.6887 123.862C13.9687 124.217 14.2814 124.492 14.6267 124.688C14.9721 124.875 15.3734 124.968 15.8307 124.968C16.3067 124.968 16.6754 124.865 16.9367 124.66C17.2074 124.455 17.3427 124.165 17.3427 123.792C17.3427 123.512 17.2494 123.274 17.0627 123.078C16.8854 122.873 16.5587 122.733 16.0827 122.658L15.5087 122.574C15.1727 122.527 14.8647 122.457 14.5847 122.364C14.3047 122.261 14.0574 122.131 13.8427 121.972C13.6374 121.804 13.4741 121.599 13.3527 121.356C13.2407 121.113 13.1847 120.824 13.1847 120.488C13.1847 120.133 13.2501 119.825 13.3807 119.564C13.5114 119.293 13.6887 119.069 13.9127 118.892C14.1461 118.715 14.4214 118.584 14.7387 118.5C15.0561 118.407 15.3967 118.36 15.7607 118.36C16.3487 118.36 16.8387 118.463 17.2307 118.668C17.6321 118.873 17.9821 119.158 18.2807 119.522L17.5387 120.194C17.3801 119.97 17.1467 119.769 16.8387 119.592C16.5307 119.405 16.1434 119.312 15.6767 119.312C15.2101 119.312 14.8554 119.415 14.6127 119.62C14.3794 119.816 14.2627 120.087 14.2627 120.432C14.2627 120.787 14.3794 121.043 14.6127 121.202C14.8554 121.361 15.2007 121.477 15.6487 121.552L16.2087 121.636C17.0114 121.757 17.5807 121.991 17.9167 122.336C18.2527 122.672 18.4207 123.115 18.4207 123.666C18.4207 124.366 18.1827 124.917 17.7067 125.318C17.2307 125.719 16.5774 125.92 15.7467 125.92ZM20.399 115.392H21.519V121.958H21.575L22.681 120.726L24.725 118.528H26.083L23.409 121.384L26.349 125.752H24.991L22.597 122.07L21.519 123.176V125.752H20.399V115.392ZM29.8151 125.92C29.1431 125.92 28.5784 125.794 28.1211 125.542C27.6731 125.281 27.2857 124.935 26.9591 124.506L27.7571 123.862C28.0371 124.217 28.3497 124.492 28.6951 124.688C29.0404 124.875 29.4417 124.968 29.8991 124.968C30.3751 124.968 30.7437 124.865 31.0051 124.66C31.2757 124.455 31.4111 124.165 31.4111 123.792C31.4111 123.512 31.3177 123.274 31.1311 123.078C30.9537 122.873 30.6271 122.733 30.1511 122.658L29.5771 122.574C29.2411 122.527 28.9331 122.457 28.6531 122.364C28.3731 122.261 28.1257 122.131 27.9111 121.972C27.7057 121.804 27.5424 121.599 27.4211 121.356C27.3091 121.113 27.2531 120.824 27.2531 120.488C27.2531 120.133 27.3184 119.825 27.4491 119.564C27.5797 119.293 27.7571 119.069 27.9811 118.892C28.2144 118.715 28.4897 118.584 28.8071 118.5C29.1244 118.407 29.4651 118.36 29.8291 118.36C30.4171 118.36 30.9071 118.463 31.2991 118.668C31.7004 118.873 32.0504 119.158 32.3491 119.522L31.6071 120.194C31.4484 119.97 31.2151 119.769 30.9071 119.592C30.5991 119.405 30.2117 119.312 29.7451 119.312C29.2784 119.312 28.9237 119.415 28.6811 119.62C28.4477 119.816 28.3311 120.087 28.3311 120.432C28.3311 120.787 28.4477 121.043 28.6811 121.202C28.9237 121.361 29.2691 121.477 29.7171 121.552L30.2771 121.636C31.0797 121.757 31.6491 121.991 31.9851 122.336C32.3211 122.672 32.4891 123.115 32.4891 123.666C32.4891 124.366 32.2511 124.917 31.7751 125.318C31.2991 125.719 30.6457 125.92 29.8151 125.92ZM40.4639 125.92C39.9599 125.92 39.5073 125.831 39.1059 125.654C38.7046 125.477 38.3639 125.225 38.0839 124.898C37.8133 124.571 37.6033 124.175 37.4539 123.708C37.3139 123.241 37.2439 122.719 37.2439 122.14C37.2439 121.561 37.3139 121.039 37.4539 120.572C37.6033 120.105 37.8133 119.709 38.0839 119.382C38.3639 119.055 38.7046 118.803 39.1059 118.626C39.5073 118.449 39.9599 118.36 40.4639 118.36C41.1826 118.36 41.7566 118.519 42.1859 118.836C42.6246 119.144 42.9513 119.55 43.1659 120.054L42.2279 120.53C42.0973 120.157 41.8826 119.867 41.5839 119.662C41.2853 119.457 40.9119 119.354 40.4639 119.354C40.1279 119.354 39.8339 119.41 39.5819 119.522C39.3299 119.625 39.1199 119.774 38.9519 119.97C38.7839 120.157 38.6579 120.385 38.5739 120.656C38.4899 120.917 38.4479 121.207 38.4479 121.524V122.756C38.4479 123.391 38.6159 123.913 38.9519 124.324C39.2973 124.725 39.8013 124.926 40.4639 124.926C41.3693 124.926 42.0226 124.506 42.4239 123.666L43.2359 124.212C43.0026 124.735 42.6526 125.15 42.1859 125.458C41.7286 125.766 41.1546 125.92 40.4639 125.92ZM47.4649 125.92C46.9796 125.92 46.5363 125.831 46.1349 125.654C45.7336 125.477 45.3883 125.225 45.0989 124.898C44.8189 124.562 44.5996 124.165 44.4409 123.708C44.2823 123.241 44.2029 122.719 44.2029 122.14C44.2029 121.571 44.2823 121.053 44.4409 120.586C44.5996 120.119 44.8189 119.723 45.0989 119.396C45.3883 119.06 45.7336 118.803 46.1349 118.626C46.5363 118.449 46.9796 118.36 47.4649 118.36C47.9503 118.36 48.3889 118.449 48.7809 118.626C49.1823 118.803 49.5276 119.06 49.8169 119.396C50.1063 119.723 50.3303 120.119 50.4889 120.586C50.6476 121.053 50.7269 121.571 50.7269 122.14C50.7269 122.719 50.6476 123.241 50.4889 123.708C50.3303 124.165 50.1063 124.562 49.8169 124.898C49.5276 125.225 49.1823 125.477 48.7809 125.654C48.3889 125.831 47.9503 125.92 47.4649 125.92ZM47.4649 124.926C48.0716 124.926 48.5663 124.739 48.9489 124.366C49.3316 123.993 49.5229 123.423 49.5229 122.658V121.622C49.5229 120.857 49.3316 120.287 48.9489 119.914C48.5663 119.541 48.0716 119.354 47.4649 119.354C46.8583 119.354 46.3636 119.541 45.9809 119.914C45.5983 120.287 45.4069 120.857 45.4069 121.622V122.658C45.4069 123.423 45.5983 123.993 45.9809 124.366C46.3636 124.739 46.8583 124.926 47.4649 124.926ZM52.5689 125.752V118.528H53.6889V119.704H53.7449C53.8289 119.517 53.9222 119.345 54.0249 119.186C54.1369 119.018 54.2676 118.873 54.4169 118.752C54.5756 118.631 54.7576 118.537 54.9629 118.472C55.1682 118.397 55.4109 118.36 55.6909 118.36C56.1669 118.36 56.6056 118.477 57.0069 118.71C57.4082 118.934 57.7069 119.307 57.9029 119.83H57.9309C58.0616 119.438 58.3042 119.097 58.6589 118.808C59.0229 118.509 59.5129 118.36 60.1289 118.36C60.8662 118.36 61.4402 118.603 61.8509 119.088C62.2709 119.564 62.4809 120.241 62.4809 121.118V125.752H61.3609V121.314C61.3609 120.67 61.2349 120.185 60.9829 119.858C60.7309 119.531 60.3296 119.368 59.7789 119.368C59.5549 119.368 59.3402 119.396 59.1349 119.452C58.9389 119.508 58.7616 119.592 58.6029 119.704C58.4442 119.816 58.3182 119.961 58.2249 120.138C58.1316 120.306 58.0849 120.507 58.0849 120.74V125.752H56.9649V121.314C56.9649 120.67 56.8389 120.185 56.5869 119.858C56.3349 119.531 55.9429 119.368 55.4109 119.368C55.1869 119.368 54.9722 119.396 54.7669 119.452C54.5616 119.508 54.3796 119.592 54.2209 119.704C54.0622 119.816 53.9316 119.961 53.8289 120.138C53.7356 120.306 53.6889 120.507 53.6889 120.74V125.752H52.5689ZM64.7916 118.528H65.9116V119.704H65.9676C66.1542 119.247 66.4249 118.911 66.7796 118.696C67.1436 118.472 67.5776 118.36 68.0816 118.36C68.5296 118.36 68.9356 118.449 69.2996 118.626C69.6636 118.803 69.9716 119.055 70.2236 119.382C70.4849 119.709 70.6809 120.105 70.8116 120.572C70.9516 121.039 71.0216 121.561 71.0216 122.14C71.0216 122.719 70.9516 123.241 70.8116 123.708C70.6809 124.175 70.4849 124.571 70.2236 124.898C69.9716 125.225 69.6636 125.477 69.2996 125.654C68.9356 125.831 68.5296 125.92 68.0816 125.92C67.1016 125.92 66.3969 125.472 65.9676 124.576H65.9116V128.552H64.7916V118.528ZM67.7736 124.912C68.4082 124.912 68.9076 124.716 69.2716 124.324C69.6356 123.923 69.8176 123.4 69.8176 122.756V121.524C69.8176 120.88 69.6356 120.362 69.2716 119.97C68.9076 119.569 68.4082 119.368 67.7736 119.368C67.5216 119.368 67.2789 119.405 67.0456 119.48C66.8216 119.545 66.6256 119.639 66.4576 119.76C66.2896 119.881 66.1542 120.031 66.0516 120.208C65.9582 120.376 65.9116 120.558 65.9116 120.754V123.442C65.9116 123.675 65.9582 123.885 66.0516 124.072C66.1542 124.249 66.2896 124.403 66.4576 124.534C66.6256 124.655 66.8216 124.749 67.0456 124.814C67.2789 124.879 67.5216 124.912 67.7736 124.912ZM74.1027 125.752C73.7107 125.752 73.412 125.645 73.2067 125.43C73.0107 125.206 72.9127 124.926 72.9127 124.59V115.392H74.0327V124.772H75.0967V125.752H74.1027ZM79.4431 125.92C78.9484 125.92 78.5004 125.831 78.0991 125.654C77.7071 125.477 77.3664 125.225 77.0771 124.898C76.7971 124.562 76.5778 124.165 76.4191 123.708C76.2698 123.241 76.1951 122.719 76.1951 122.14C76.1951 121.571 76.2698 121.053 76.4191 120.586C76.5778 120.119 76.7971 119.723 77.0771 119.396C77.3664 119.06 77.7071 118.803 78.0991 118.626C78.5004 118.449 78.9484 118.36 79.4431 118.36C79.9284 118.36 80.3624 118.449 80.7451 118.626C81.1278 118.803 81.4544 119.051 81.7251 119.368C81.9958 119.676 82.2011 120.045 82.3411 120.474C82.4904 120.903 82.5651 121.375 82.5651 121.888V122.42H77.3711V122.756C77.3711 123.064 77.4178 123.353 77.5111 123.624C77.6138 123.885 77.7538 124.114 77.9311 124.31C78.1178 124.506 78.3418 124.66 78.6031 124.772C78.8738 124.884 79.1771 124.94 79.5131 124.94C79.9704 124.94 80.3671 124.833 80.7031 124.618C81.0484 124.403 81.3144 124.095 81.5011 123.694L82.2991 124.268C82.0658 124.763 81.7018 125.164 81.2071 125.472C80.7124 125.771 80.1244 125.92 79.4431 125.92ZM79.4431 119.298C79.1351 119.298 78.8551 119.354 78.6031 119.466C78.3511 119.569 78.1318 119.718 77.9451 119.914C77.7678 120.11 77.6278 120.343 77.5251 120.614C77.4224 120.875 77.3711 121.165 77.3711 121.482V121.58H81.3611V121.426C81.3611 120.782 81.1838 120.269 80.8291 119.886C80.4838 119.494 80.0218 119.298 79.4431 119.298ZM86.0067 125.752C85.6147 125.752 85.316 125.645 85.1107 125.43C84.9147 125.206 84.8167 124.917 84.8167 124.562V119.508H83.6267V118.528H84.2987C84.5414 118.528 84.7047 118.481 84.7887 118.388C84.882 118.285 84.9287 118.113 84.9287 117.87V116.526H85.9367V118.528H87.5187V119.508H85.9367V124.772H87.4067V125.752H86.0067ZM91.9802 125.92C91.4856 125.92 91.0376 125.831 90.6362 125.654C90.2442 125.477 89.9036 125.225 89.6142 124.898C89.3342 124.562 89.1149 124.165 88.9562 123.708C88.8069 123.241 88.7322 122.719 88.7322 122.14C88.7322 121.571 88.8069 121.053 88.9562 120.586C89.1149 120.119 89.3342 119.723 89.6142 119.396C89.9036 119.06 90.2442 118.803 90.6362 118.626C91.0376 118.449 91.4856 118.36 91.9802 118.36C92.4656 118.36 92.8996 118.449 93.2822 118.626C93.6649 118.803 93.9916 119.051 94.2622 119.368C94.5329 119.676 94.7382 120.045 94.8782 120.474C95.0276 120.903 95.1022 121.375 95.1022 121.888V122.42H89.9082V122.756C89.9082 123.064 89.9549 123.353 90.0482 123.624C90.1509 123.885 90.2909 124.114 90.4682 124.31C90.6549 124.506 90.8789 124.66 91.1402 124.772C91.4109 124.884 91.7142 124.94 92.0502 124.94C92.5076 124.94 92.9042 124.833 93.2402 124.618C93.5856 124.403 93.8516 124.095 94.0382 123.694L94.8362 124.268C94.6029 124.763 94.2389 125.164 93.7442 125.472C93.2496 125.771 92.6616 125.92 91.9802 125.92ZM91.9802 119.298C91.6722 119.298 91.3922 119.354 91.1402 119.466C90.8882 119.569 90.6689 119.718 90.4822 119.914C90.3049 120.11 90.1649 120.343 90.0622 120.614C89.9596 120.875 89.9082 121.165 89.9082 121.482V121.58H93.8982V121.426C93.8982 120.782 93.7209 120.269 93.3662 119.886C93.0209 119.494 92.5589 119.298 91.9802 119.298ZM101.568 124.576H101.512C101.073 125.472 100.368 125.92 99.3978 125.92C98.9498 125.92 98.5438 125.831 98.1798 125.654C97.8158 125.477 97.5031 125.225 97.2418 124.898C96.9898 124.571 96.7938 124.175 96.6538 123.708C96.5231 123.241 96.4578 122.719 96.4578 122.14C96.4578 121.561 96.5231 121.039 96.6538 120.572C96.7938 120.105 96.9898 119.709 97.2418 119.382C97.5031 119.055 97.8158 118.803 98.1798 118.626C98.5438 118.449 98.9498 118.36 99.3978 118.36C99.9018 118.36 100.331 118.472 100.686 118.696C101.05 118.911 101.325 119.247 101.512 119.704H101.568V115.392H102.688V125.752H101.568V124.576ZM99.7058 124.912C99.9578 124.912 100.196 124.879 100.42 124.814C100.653 124.749 100.854 124.655 101.022 124.534C101.19 124.403 101.32 124.249 101.414 124.072C101.516 123.885 101.568 123.675 101.568 123.442V120.754C101.568 120.558 101.516 120.376 101.414 120.208C101.32 120.031 101.19 119.881 101.022 119.76C100.854 119.639 100.653 119.545 100.42 119.48C100.196 119.405 99.9578 119.368 99.7058 119.368C99.0711 119.368 98.5718 119.569 98.2078 119.97C97.8438 120.362 97.6618 120.88 97.6618 121.524V122.756C97.6618 123.4 97.8438 123.923 98.2078 124.324C98.5718 124.716 99.0711 124.912 99.7058 124.912Z" fill="#27272A"/>
</svg>
