<svg width="166" height="148" viewBox="0 0 166 148" fill="none" xmlns="http://www.w3.org/2000/svg">
<path d="M108.456 11.2961C114.723 17.5637 118.459 25.9233 118.946 34.7737C119.433 43.6241 116.638 52.3431 111.096 59.2607C105.553 66.1782 97.6542 70.8081 88.9107 72.2634C80.1673 73.7187 71.1942 71.8972 63.7103 67.1478C56.2263 62.3983 50.7576 55.0548 48.3516 46.5238C45.9456 37.9928 46.7715 28.8741 50.671 20.9142C54.5705 12.9542 61.2696 6.71274 69.485 3.38513C77.7005 0.0575193 86.8548 -0.122258 95.1945 2.88023L83 36.752L108.456 11.2961Z" fill="#14B8A6"/>
<path d="M73.4854 94.904C73.4854 95.804 73.3474 96.656 73.0714 97.46C72.8074 98.252 72.4594 98.984 72.0274 99.656C71.5954 100.316 71.1094 100.91 70.5694 101.438C70.0414 101.954 69.5134 102.392 68.9854 102.752H65.7814C66.5134 102.224 67.1734 101.714 67.7614 101.222C68.3494 100.73 68.8594 100.232 69.2914 99.728C69.7354 99.224 70.0954 98.702 70.3714 98.162C70.6594 97.61 70.8754 97.016 71.0194 96.38L70.8754 96.344C70.7554 96.584 70.6114 96.818 70.4434 97.046C70.2874 97.274 70.0954 97.472 69.8674 97.64C69.6394 97.808 69.3754 97.946 69.0754 98.054C68.7754 98.15 68.4274 98.198 68.0314 98.198C67.5034 98.198 67.0174 98.108 66.5734 97.928C66.1294 97.748 65.7394 97.49 65.4034 97.154C65.0794 96.806 64.8214 96.398 64.6294 95.93C64.4494 95.45 64.3594 94.91 64.3594 94.31C64.3594 93.674 64.4674 93.092 64.6834 92.564C64.8994 92.036 65.2054 91.58 65.6014 91.196C65.9974 90.812 66.4714 90.512 67.0234 90.296C67.5874 90.08 68.2174 89.972 68.9134 89.972C69.6334 89.972 70.2754 90.092 70.8394 90.332C71.4034 90.56 71.8834 90.89 72.2794 91.322C72.6754 91.742 72.9754 92.258 73.1794 92.87C73.3834 93.47 73.4854 94.148 73.4854 94.904ZM68.9134 96.362C69.5854 96.362 70.1074 96.182 70.4794 95.822C70.8514 95.45 71.0374 94.922 71.0374 94.238V93.968C71.0374 93.284 70.8514 92.762 70.4794 92.402C70.1074 92.03 69.5854 91.844 68.9134 91.844C68.2534 91.844 67.7314 92.03 67.3474 92.402C66.9754 92.762 66.7894 93.284 66.7894 93.968V94.238C66.7894 94.922 66.9754 95.45 67.3474 95.822C67.7314 96.182 68.2534 96.362 68.9134 96.362ZM79.0764 95.264C79.7964 95.264 80.3244 95.12 80.6604 94.832C81.0084 94.532 81.1824 94.154 81.1824 93.698V93.572C81.1824 93.056 81.0144 92.654 80.6784 92.366C80.3544 92.066 79.9044 91.916 79.3284 91.916C78.7764 91.916 78.2844 92.048 77.8524 92.312C77.4324 92.576 77.0664 92.948 76.7544 93.428L75.2424 92.06C75.4584 91.772 75.6924 91.502 75.9444 91.25C76.2084 90.986 76.5084 90.764 76.8444 90.584C77.1804 90.392 77.5584 90.242 77.9784 90.134C78.3984 90.026 78.8724 89.972 79.4004 89.972C80.0364 89.972 80.6124 90.05 81.1284 90.206C81.6564 90.35 82.1064 90.566 82.4784 90.854C82.8624 91.142 83.1564 91.49 83.3604 91.898C83.5644 92.294 83.6664 92.744 83.6664 93.248C83.6664 93.656 83.6004 94.022 83.4684 94.346C83.3484 94.67 83.1744 94.952 82.9464 95.192C82.7304 95.432 82.4724 95.63 82.1724 95.786C81.8844 95.93 81.5784 96.038 81.2544 96.11V96.218C81.6144 96.29 81.9564 96.404 82.2804 96.56C82.6044 96.716 82.8804 96.926 83.1084 97.19C83.3484 97.442 83.5344 97.742 83.6664 98.09C83.8104 98.438 83.8824 98.834 83.8824 99.278C83.8824 99.83 83.7684 100.334 83.5404 100.79C83.3244 101.246 83.0124 101.636 82.6044 101.96C82.1964 102.284 81.7104 102.536 81.1464 102.716C80.5824 102.884 79.9524 102.968 79.2564 102.968C78.6444 102.968 78.1044 102.902 77.6364 102.77C77.1684 102.65 76.7544 102.482 76.3944 102.266C76.0464 102.05 75.7404 101.804 75.4764 101.528C75.2124 101.24 74.9844 100.94 74.7924 100.628L76.5384 99.296C76.6824 99.548 76.8384 99.782 77.0064 99.998C77.1744 100.202 77.3664 100.382 77.5824 100.538C77.7984 100.694 78.0444 100.814 78.3204 100.898C78.5964 100.982 78.9084 101.024 79.2564 101.024C79.9524 101.024 80.4864 100.856 80.8584 100.52C81.2304 100.184 81.4164 99.722 81.4164 99.134V99.008C81.4164 98.432 81.2124 97.994 80.8044 97.694C80.4084 97.394 79.8324 97.244 79.0764 97.244H77.8344V95.264H79.0764ZM88.3933 102.752L97.1053 90.188H99.1933L90.4813 102.752H88.3933ZM89.2573 97.1C88.2373 97.1 87.4573 96.8 86.9173 96.2C86.3893 95.588 86.1253 94.7 86.1253 93.536C86.1253 92.372 86.3893 91.49 86.9173 90.89C87.4573 90.278 88.2373 89.972 89.2573 89.972C90.2773 89.972 91.0513 90.278 91.5793 90.89C92.1073 91.49 92.3713 92.372 92.3713 93.536C92.3713 94.7 92.1073 95.588 91.5793 96.2C91.0513 96.8 90.2773 97.1 89.2573 97.1ZM89.2573 95.732C90.0013 95.732 90.3733 95.162 90.3733 94.022V93.05C90.3733 91.91 90.0013 91.34 89.2573 91.34C88.5133 91.34 88.1413 91.91 88.1413 93.05V94.022C88.1413 95.162 88.5133 95.732 89.2573 95.732ZM98.3293 102.968C97.3213 102.968 96.5473 102.668 96.0073 102.068C95.4793 101.456 95.2153 100.568 95.2153 99.404C95.2153 98.24 95.4793 97.358 96.0073 96.758C96.5473 96.146 97.3213 95.84 98.3293 95.84C99.3493 95.84 100.123 96.146 100.651 96.758C101.191 97.358 101.461 98.24 101.461 99.404C101.461 100.568 101.191 101.456 100.651 102.068C100.123 102.668 99.3493 102.968 98.3293 102.968ZM98.3293 101.6C99.0733 101.6 99.4453 101.03 99.4453 99.89V98.918C99.4453 97.778 99.0733 97.208 98.3293 97.208C97.5853 97.208 97.2133 97.778 97.2133 98.918V99.89C97.2133 101.03 97.5853 101.6 98.3293 101.6Z" fill="#27272A"/>
<path d="M20.2481 125.92C19.7441 125.92 19.2915 125.831 18.8901 125.654C18.4888 125.477 18.1481 125.225 17.8681 124.898C17.5975 124.571 17.3875 124.175 17.2381 123.708C17.0981 123.241 17.0281 122.719 17.0281 122.14C17.0281 121.561 17.0981 121.039 17.2381 120.572C17.3875 120.105 17.5975 119.709 17.8681 119.382C18.1481 119.055 18.4888 118.803 18.8901 118.626C19.2915 118.449 19.7441 118.36 20.2481 118.36C20.9668 118.36 21.5408 118.519 21.9701 118.836C22.4088 119.144 22.7355 119.55 22.9501 120.054L22.0121 120.53C21.8815 120.157 21.6668 119.867 21.3681 119.662C21.0695 119.457 20.6961 119.354 20.2481 119.354C19.9121 119.354 19.6181 119.41 19.3661 119.522C19.1141 119.625 18.9041 119.774 18.7361 119.97C18.5681 120.157 18.4421 120.385 18.3581 120.656C18.2741 120.917 18.2321 121.207 18.2321 121.524V122.756C18.2321 123.391 18.4001 123.913 18.7361 124.324C19.0815 124.725 19.5855 124.926 20.2481 124.926C21.1535 124.926 21.8068 124.506 22.2081 123.666L23.0201 124.212C22.7868 124.735 22.4368 125.15 21.9701 125.458C21.5128 125.766 20.9388 125.92 20.2481 125.92ZM27.2491 125.92C26.7638 125.92 26.3204 125.831 25.9191 125.654C25.5178 125.477 25.1724 125.225 24.8831 124.898C24.6031 124.562 24.3838 124.165 24.2251 123.708C24.0664 123.241 23.9871 122.719 23.9871 122.14C23.9871 121.571 24.0664 121.053 24.2251 120.586C24.3838 120.119 24.6031 119.723 24.8831 119.396C25.1724 119.06 25.5178 118.803 25.9191 118.626C26.3204 118.449 26.7638 118.36 27.2491 118.36C27.7344 118.36 28.1731 118.449 28.5651 118.626C28.9664 118.803 29.3118 119.06 29.6011 119.396C29.8904 119.723 30.1144 120.119 30.2731 120.586C30.4318 121.053 30.5111 121.571 30.5111 122.14C30.5111 122.719 30.4318 123.241 30.2731 123.708C30.1144 124.165 29.8904 124.562 29.6011 124.898C29.3118 125.225 28.9664 125.477 28.5651 125.654C28.1731 125.831 27.7344 125.92 27.2491 125.92ZM27.2491 124.926C27.8558 124.926 28.3504 124.739 28.7331 124.366C29.1158 123.993 29.3071 123.423 29.3071 122.658V121.622C29.3071 120.857 29.1158 120.287 28.7331 119.914C28.3504 119.541 27.8558 119.354 27.2491 119.354C26.6424 119.354 26.1478 119.541 25.7651 119.914C25.3824 120.287 25.1911 120.857 25.1911 121.622V122.658C25.1911 123.423 25.3824 123.993 25.7651 124.366C26.1478 124.739 26.6424 124.926 27.2491 124.926ZM32.3531 125.752V118.528H33.4731V119.858H33.5431C33.6738 119.513 33.9071 119.205 34.2431 118.934C34.5791 118.663 35.0411 118.528 35.6291 118.528H36.0631V119.648H35.4051C34.7984 119.648 34.3224 119.765 33.9771 119.998C33.6411 120.222 33.4731 120.507 33.4731 120.852V125.752H32.3531ZM37.4937 125.752V118.528H38.6137V119.858H38.6837C38.8144 119.513 39.0477 119.205 39.3837 118.934C39.7197 118.663 40.1817 118.528 40.7697 118.528H41.2037V119.648H40.5457C39.939 119.648 39.463 119.765 39.1177 119.998C38.7817 120.222 38.6137 120.507 38.6137 120.852V125.752H37.4937ZM45.282 125.92C44.7873 125.92 44.3393 125.831 43.938 125.654C43.546 125.477 43.2053 125.225 42.916 124.898C42.636 124.562 42.4166 124.165 42.258 123.708C42.1086 123.241 42.034 122.719 42.034 122.14C42.034 121.571 42.1086 121.053 42.258 120.586C42.4166 120.119 42.636 119.723 42.916 119.396C43.2053 119.06 43.546 118.803 43.938 118.626C44.3393 118.449 44.7873 118.36 45.282 118.36C45.7673 118.36 46.2013 118.449 46.584 118.626C46.9666 118.803 47.2933 119.051 47.564 119.368C47.8346 119.676 48.04 120.045 48.18 120.474C48.3293 120.903 48.404 121.375 48.404 121.888V122.42H43.21V122.756C43.21 123.064 43.2566 123.353 43.35 123.624C43.4526 123.885 43.5926 124.114 43.77 124.31C43.9566 124.506 44.1806 124.66 44.442 124.772C44.7126 124.884 45.016 124.94 45.352 124.94C45.8093 124.94 46.206 124.833 46.542 124.618C46.8873 124.403 47.1533 124.095 47.34 123.694L48.138 124.268C47.9046 124.763 47.5406 125.164 47.046 125.472C46.5513 125.771 45.9633 125.92 45.282 125.92ZM45.282 119.298C44.974 119.298 44.694 119.354 44.442 119.466C44.19 119.569 43.9706 119.718 43.784 119.914C43.6066 120.11 43.4666 120.343 43.364 120.614C43.2613 120.875 43.21 121.165 43.21 121.482V121.58H47.2V121.426C47.2 120.782 47.0226 120.269 46.668 119.886C46.3226 119.494 45.8606 119.298 45.282 119.298ZM52.9376 125.92C52.4336 125.92 51.9809 125.831 51.5796 125.654C51.1782 125.477 50.8376 125.225 50.5576 124.898C50.2869 124.571 50.0769 124.175 49.9276 123.708C49.7876 123.241 49.7176 122.719 49.7176 122.14C49.7176 121.561 49.7876 121.039 49.9276 120.572C50.0769 120.105 50.2869 119.709 50.5576 119.382C50.8376 119.055 51.1782 118.803 51.5796 118.626C51.9809 118.449 52.4336 118.36 52.9376 118.36C53.6562 118.36 54.2302 118.519 54.6596 118.836C55.0982 119.144 55.4249 119.55 55.6396 120.054L54.7016 120.53C54.5709 120.157 54.3562 119.867 54.0576 119.662C53.7589 119.457 53.3856 119.354 52.9376 119.354C52.6016 119.354 52.3076 119.41 52.0556 119.522C51.8036 119.625 51.5936 119.774 51.4256 119.97C51.2576 120.157 51.1316 120.385 51.0476 120.656C50.9636 120.917 50.9216 121.207 50.9216 121.524V122.756C50.9216 123.391 51.0896 123.913 51.4256 124.324C51.7709 124.725 52.2749 124.926 52.9376 124.926C53.8429 124.926 54.4962 124.506 54.8976 123.666L55.7096 124.212C55.4762 124.735 55.1262 125.15 54.6596 125.458C54.2022 125.766 53.6282 125.92 52.9376 125.92ZM58.8866 125.752C58.4946 125.752 58.1959 125.645 57.9906 125.43C57.7946 125.206 57.6966 124.917 57.6966 124.562V119.508H56.5066V118.528H57.1786C57.4213 118.528 57.5846 118.481 57.6686 118.388C57.7619 118.285 57.8086 118.113 57.8086 117.87V116.526H58.8166V118.528H60.3986V119.508H58.8166V124.772H60.2866V125.752H58.8866ZM63.3888 125.752C62.9968 125.752 62.6981 125.645 62.4928 125.43C62.2968 125.206 62.1988 124.926 62.1988 124.59V115.392H63.3188V124.772H64.3828V125.752H63.3888ZM70.3285 118.528H71.4345L68.2005 127.432C68.1165 127.647 68.0325 127.824 67.9485 127.964C67.8645 128.113 67.7619 128.23 67.6405 128.314C67.5192 128.398 67.3652 128.459 67.1785 128.496C67.0012 128.533 66.7819 128.552 66.5205 128.552H65.9465V127.572H67.0805L67.6265 126.032L64.9245 118.528H66.0445L67.7805 123.442L68.1165 124.618H68.1865L68.5785 123.442L70.3285 118.528ZM76.7314 116.834C76.4888 116.834 76.3114 116.778 76.1994 116.666C76.0968 116.545 76.0454 116.391 76.0454 116.204V116.022C76.0454 115.835 76.0968 115.686 76.1994 115.574C76.3114 115.453 76.4888 115.392 76.7314 115.392C76.9741 115.392 77.1468 115.453 77.2494 115.574C77.3614 115.686 77.4174 115.835 77.4174 116.022V116.204C77.4174 116.391 77.3614 116.545 77.2494 116.666C77.1468 116.778 76.9741 116.834 76.7314 116.834ZM76.1714 118.528H77.2914V125.752H76.1714V118.528ZM79.6714 125.752V118.528H80.7914V119.704H80.8474C81.0248 119.293 81.2721 118.967 81.5894 118.724C81.9161 118.481 82.3501 118.36 82.8914 118.36C83.6381 118.36 84.2261 118.603 84.6554 119.088C85.0941 119.564 85.3134 120.241 85.3134 121.118V125.752H84.1934V121.314C84.1934 120.017 83.6474 119.368 82.5554 119.368C82.3314 119.368 82.1121 119.396 81.8974 119.452C81.6921 119.508 81.5054 119.592 81.3374 119.704C81.1694 119.816 81.0341 119.961 80.9314 120.138C80.8381 120.306 80.7914 120.507 80.7914 120.74V125.752H79.6714ZM87.6285 118.528H88.7485V119.704H88.8045C88.9911 119.247 89.2618 118.911 89.6165 118.696C89.9805 118.472 90.4145 118.36 90.9185 118.36C91.3665 118.36 91.7725 118.449 92.1365 118.626C92.5005 118.803 92.8085 119.055 93.0605 119.382C93.3218 119.709 93.5178 120.105 93.6485 120.572C93.7885 121.039 93.8585 121.561 93.8585 122.14C93.8585 122.719 93.7885 123.241 93.6485 123.708C93.5178 124.175 93.3218 124.571 93.0605 124.898C92.8085 125.225 92.5005 125.477 92.1365 125.654C91.7725 125.831 91.3665 125.92 90.9185 125.92C89.9385 125.92 89.2338 125.472 88.8045 124.576H88.7485V128.552H87.6285V118.528ZM90.6105 124.912C91.2451 124.912 91.7445 124.716 92.1085 124.324C92.4725 123.923 92.6545 123.4 92.6545 122.756V121.524C92.6545 120.88 92.4725 120.362 92.1085 119.97C91.7445 119.569 91.2451 119.368 90.6105 119.368C90.3585 119.368 90.1158 119.405 89.8825 119.48C89.6585 119.545 89.4625 119.639 89.2945 119.76C89.1265 119.881 88.9911 120.031 88.8885 120.208C88.7951 120.376 88.7485 120.558 88.7485 120.754V123.442C88.7485 123.675 88.7951 123.885 88.8885 124.072C88.9911 124.249 89.1265 124.403 89.2945 124.534C89.4625 124.655 89.6585 124.749 89.8825 124.814C90.1158 124.879 90.3585 124.912 90.6105 124.912ZM100.202 124.576H100.146C100.071 124.744 99.9776 124.912 99.8656 125.08C99.7629 125.239 99.6322 125.383 99.4736 125.514C99.3149 125.635 99.1236 125.733 98.8996 125.808C98.6756 125.883 98.4142 125.92 98.1156 125.92C97.3689 125.92 96.7762 125.682 96.3376 125.206C95.8989 124.721 95.6796 124.039 95.6796 123.162V118.528H96.7996V122.966C96.7996 124.263 97.3502 124.912 98.4516 124.912C98.6756 124.912 98.8902 124.884 99.0956 124.828C99.3102 124.772 99.4969 124.688 99.6556 124.576C99.8236 124.464 99.9542 124.324 100.048 124.156C100.15 123.979 100.202 123.769 100.202 123.526V118.528H101.322V125.752H100.202V124.576ZM105.303 125.752C104.911 125.752 104.612 125.645 104.407 125.43C104.211 125.206 104.113 124.917 104.113 124.562V119.508H102.923V118.528H103.595C103.837 118.528 104.001 118.481 104.085 118.388C104.178 118.285 104.225 118.113 104.225 117.87V116.526H105.233V118.528H106.815V119.508H105.233V124.772H106.703V125.752H105.303ZM117.173 125.752C116.753 125.752 116.45 125.64 116.263 125.416C116.086 125.192 115.974 124.912 115.927 124.576H115.857C115.699 125.024 115.437 125.36 115.073 125.584C114.709 125.808 114.275 125.92 113.771 125.92C113.006 125.92 112.409 125.724 111.979 125.332C111.559 124.94 111.349 124.408 111.349 123.736C111.349 123.055 111.597 122.532 112.091 122.168C112.595 121.804 113.375 121.622 114.429 121.622H115.857V120.908C115.857 120.395 115.717 120.003 115.437 119.732C115.157 119.461 114.728 119.326 114.149 119.326C113.711 119.326 113.342 119.424 113.043 119.62C112.754 119.816 112.511 120.077 112.315 120.404L111.643 119.774C111.839 119.382 112.152 119.051 112.581 118.78C113.011 118.5 113.552 118.36 114.205 118.36C115.083 118.36 115.764 118.575 116.249 119.004C116.735 119.433 116.977 120.031 116.977 120.796V124.772H117.803V125.752H117.173ZM113.953 124.968C114.233 124.968 114.49 124.935 114.723 124.87C114.957 124.805 115.157 124.711 115.325 124.59C115.493 124.469 115.624 124.329 115.717 124.17C115.811 124.011 115.857 123.839 115.857 123.652V122.462H114.373C113.729 122.462 113.258 122.555 112.959 122.742C112.67 122.929 112.525 123.199 112.525 123.554V123.848C112.525 124.203 112.651 124.478 112.903 124.674C113.165 124.87 113.515 124.968 113.953 124.968ZM120.592 125.752C120.2 125.752 119.901 125.645 119.696 125.43C119.5 125.206 119.402 124.926 119.402 124.59V115.392H120.522V124.772H121.586V125.752H120.592ZM124.338 125.752C123.946 125.752 123.647 125.645 123.442 125.43C123.246 125.206 123.148 124.926 123.148 124.59V115.392H124.268V124.772H125.332V125.752H124.338ZM131.867 125.752C131.475 125.752 131.176 125.645 130.971 125.43C130.775 125.206 130.677 124.917 130.677 124.562V119.508H129.487V118.528H130.159C130.402 118.528 130.565 118.481 130.649 118.388C130.742 118.285 130.789 118.113 130.789 117.87V116.526H131.797V118.528H133.379V119.508H131.797V124.772H133.267V125.752H131.867ZM135.179 115.392H136.299V119.704H136.355C136.533 119.293 136.78 118.967 137.097 118.724C137.424 118.481 137.858 118.36 138.399 118.36C139.146 118.36 139.734 118.603 140.163 119.088C140.602 119.564 140.821 120.241 140.821 121.118V125.752H139.701V121.314C139.701 120.017 139.155 119.368 138.063 119.368C137.839 119.368 137.62 119.396 137.405 119.452C137.2 119.508 137.013 119.592 136.845 119.704C136.677 119.816 136.542 119.961 136.439 120.138C136.346 120.306 136.299 120.507 136.299 120.74V125.752H135.179V115.392ZM145.852 125.92C145.358 125.92 144.91 125.831 144.508 125.654C144.116 125.477 143.776 125.225 143.486 124.898C143.206 124.562 142.987 124.165 142.828 123.708C142.679 123.241 142.604 122.719 142.604 122.14C142.604 121.571 142.679 121.053 142.828 120.586C142.987 120.119 143.206 119.723 143.486 119.396C143.776 119.06 144.116 118.803 144.508 118.626C144.91 118.449 145.358 118.36 145.852 118.36C146.338 118.36 146.772 118.449 147.154 118.626C147.537 118.803 147.864 119.051 148.134 119.368C148.405 119.676 148.61 120.045 148.75 120.474C148.9 120.903 148.974 121.375 148.974 121.888V122.42H143.78V122.756C143.78 123.064 143.827 123.353 143.92 123.624C144.023 123.885 144.163 124.114 144.34 124.31C144.527 124.506 144.751 124.66 145.012 124.772C145.283 124.884 145.586 124.94 145.922 124.94C146.38 124.94 146.776 124.833 147.112 124.618C147.458 124.403 147.724 124.095 147.91 123.694L148.708 124.268C148.475 124.763 148.111 125.164 147.616 125.472C147.122 125.771 146.534 125.92 145.852 125.92ZM145.852 119.298C145.544 119.298 145.264 119.354 145.012 119.466C144.76 119.569 144.541 119.718 144.354 119.914C144.177 120.11 144.037 120.343 143.934 120.614C143.832 120.875 143.78 121.165 143.78 121.482V121.58H147.77V121.426C147.77 120.782 147.593 120.269 147.238 119.886C146.893 119.494 146.431 119.298 145.852 119.298ZM8.90473 142.576H8.84873C8.41006 143.472 7.70539 143.92 6.73473 143.92C6.28673 143.92 5.88073 143.831 5.51673 143.654C5.15273 143.477 4.84006 143.225 4.57873 142.898C4.32673 142.571 4.13073 142.175 3.99073 141.708C3.86006 141.241 3.79473 140.719 3.79473 140.14C3.79473 139.561 3.86006 139.039 3.99073 138.572C4.13073 138.105 4.32673 137.709 4.57873 137.382C4.84006 137.055 5.15273 136.803 5.51673 136.626C5.88073 136.449 6.28673 136.36 6.73473 136.36C7.23873 136.36 7.66806 136.472 8.02273 136.696C8.38673 136.911 8.66206 137.247 8.84873 137.704H8.90473V133.392H10.0247V143.752H8.90473V142.576ZM7.04273 142.912C7.29473 142.912 7.53273 142.879 7.75673 142.814C7.99006 142.749 8.19073 142.655 8.35873 142.534C8.52673 142.403 8.65739 142.249 8.75073 142.072C8.85339 141.885 8.90473 141.675 8.90473 141.442V138.754C8.90473 138.558 8.85339 138.376 8.75073 138.208C8.65739 138.031 8.52673 137.881 8.35873 137.76C8.19073 137.639 7.99006 137.545 7.75673 137.48C7.53273 137.405 7.29473 137.368 7.04273 137.368C6.40806 137.368 5.90873 137.569 5.54473 137.97C5.18073 138.362 4.99873 138.88 4.99873 139.524V140.756C4.99873 141.4 5.18073 141.923 5.54473 142.324C5.90873 142.716 6.40806 142.912 7.04273 142.912ZM15.1218 143.92C14.6272 143.92 14.1792 143.831 13.7778 143.654C13.3858 143.477 13.0452 143.225 12.7558 142.898C12.4758 142.562 12.2565 142.165 12.0978 141.708C11.9485 141.241 11.8738 140.719 11.8738 140.14C11.8738 139.571 11.9485 139.053 12.0978 138.586C12.2565 138.119 12.4758 137.723 12.7558 137.396C13.0452 137.06 13.3858 136.803 13.7778 136.626C14.1792 136.449 14.6272 136.36 15.1218 136.36C15.6072 136.36 16.0412 136.449 16.4238 136.626C16.8065 136.803 17.1332 137.051 17.4038 137.368C17.6745 137.676 17.8798 138.045 18.0198 138.474C18.1692 138.903 18.2438 139.375 18.2438 139.888V140.42H13.0498V140.756C13.0498 141.064 13.0965 141.353 13.1898 141.624C13.2925 141.885 13.4325 142.114 13.6098 142.31C13.7965 142.506 14.0205 142.66 14.2818 142.772C14.5525 142.884 14.8558 142.94 15.1918 142.94C15.6492 142.94 16.0458 142.833 16.3818 142.618C16.7272 142.403 16.9932 142.095 17.1798 141.694L17.9778 142.268C17.7445 142.763 17.3805 143.164 16.8858 143.472C16.3912 143.771 15.8032 143.92 15.1218 143.92ZM15.1218 137.298C14.8138 137.298 14.5338 137.354 14.2818 137.466C14.0298 137.569 13.8105 137.718 13.6238 137.914C13.4465 138.11 13.3065 138.343 13.2038 138.614C13.1012 138.875 13.0498 139.165 13.0498 139.482V139.58H17.0398V139.426C17.0398 138.782 16.8625 138.269 16.5078 137.886C16.1625 137.494 15.7005 137.298 15.1218 137.298ZM21.6854 143.752C21.2934 143.752 20.9947 143.645 20.7894 143.43C20.5934 143.206 20.4954 142.917 20.4954 142.562V137.508H19.3054V136.528H19.9774C20.2201 136.528 20.3834 136.481 20.4674 136.388C20.5607 136.285 20.6074 136.113 20.6074 135.87V134.526H21.6154V136.528H23.1974V137.508H21.6154V142.772H23.0854V143.752H21.6854ZM30.2476 143.752C29.8276 143.752 29.5243 143.64 29.3376 143.416C29.1603 143.192 29.0483 142.912 29.0016 142.576H28.9316C28.773 143.024 28.5116 143.36 28.1476 143.584C27.7836 143.808 27.3496 143.92 26.8456 143.92C26.0803 143.92 25.483 143.724 25.0536 143.332C24.6336 142.94 24.4236 142.408 24.4236 141.736C24.4236 141.055 24.671 140.532 25.1656 140.168C25.6696 139.804 26.449 139.622 27.5036 139.622H28.9316V138.908C28.9316 138.395 28.7916 138.003 28.5116 137.732C28.2316 137.461 27.8023 137.326 27.2236 137.326C26.785 137.326 26.4163 137.424 26.1176 137.62C25.8283 137.816 25.5856 138.077 25.3896 138.404L24.7176 137.774C24.9136 137.382 25.2263 137.051 25.6556 136.78C26.085 136.5 26.6263 136.36 27.2796 136.36C28.157 136.36 28.8383 136.575 29.3236 137.004C29.809 137.433 30.0516 138.031 30.0516 138.796V142.772H30.8776V143.752H30.2476ZM27.0276 142.968C27.3076 142.968 27.5643 142.935 27.7976 142.87C28.031 142.805 28.2316 142.711 28.3996 142.59C28.5676 142.469 28.6983 142.329 28.7916 142.17C28.885 142.011 28.9316 141.839 28.9316 141.652V140.462H27.4476C26.8036 140.462 26.3323 140.555 26.0336 140.742C25.7443 140.929 25.5996 141.199 25.5996 141.554V141.848C25.5996 142.203 25.7256 142.478 25.9776 142.674C26.239 142.87 26.589 142.968 27.0276 142.968ZM33.0361 134.834C32.7935 134.834 32.6161 134.778 32.5041 134.666C32.4015 134.545 32.3501 134.391 32.3501 134.204V134.022C32.3501 133.835 32.4015 133.686 32.5041 133.574C32.6161 133.453 32.7935 133.392 33.0361 133.392C33.2788 133.392 33.4515 133.453 33.5541 133.574C33.6661 133.686 33.7221 133.835 33.7221 134.022V134.204C33.7221 134.391 33.6661 134.545 33.5541 134.666C33.4515 134.778 33.2788 134.834 33.0361 134.834ZM32.4761 136.528H33.5961V143.752H32.4761V136.528ZM37.1661 143.752C36.7741 143.752 36.4755 143.645 36.2701 143.43C36.0741 143.206 35.9761 142.926 35.9761 142.59V133.392H37.0961V142.772H38.1601V143.752H37.1661ZM41.9606 143.92C41.2886 143.92 40.7239 143.794 40.2666 143.542C39.8186 143.281 39.4313 142.935 39.1046 142.506L39.9026 141.862C40.1826 142.217 40.4953 142.492 40.8406 142.688C41.1859 142.875 41.5873 142.968 42.0446 142.968C42.5206 142.968 42.8893 142.865 43.1506 142.66C43.4213 142.455 43.5566 142.165 43.5566 141.792C43.5566 141.512 43.4633 141.274 43.2766 141.078C43.0993 140.873 42.7726 140.733 42.2966 140.658L41.7226 140.574C41.3866 140.527 41.0786 140.457 40.7986 140.364C40.5186 140.261 40.2713 140.131 40.0566 139.972C39.8513 139.804 39.6879 139.599 39.5666 139.356C39.4546 139.113 39.3986 138.824 39.3986 138.488C39.3986 138.133 39.4639 137.825 39.5946 137.564C39.7253 137.293 39.9026 137.069 40.1266 136.892C40.3599 136.715 40.6353 136.584 40.9526 136.5C41.2699 136.407 41.6106 136.36 41.9746 136.36C42.5626 136.36 43.0526 136.463 43.4446 136.668C43.8459 136.873 44.1959 137.158 44.4946 137.522L43.7526 138.194C43.5939 137.97 43.3606 137.769 43.0526 137.592C42.7446 137.405 42.3573 137.312 41.8906 137.312C41.4239 137.312 41.0693 137.415 40.8266 137.62C40.5933 137.816 40.4766 138.087 40.4766 138.432C40.4766 138.787 40.5933 139.043 40.8266 139.202C41.0693 139.361 41.4146 139.477 41.8626 139.552L42.4226 139.636C43.2253 139.757 43.7946 139.991 44.1306 140.336C44.4666 140.672 44.6346 141.115 44.6346 141.666C44.6346 142.366 44.3966 142.917 43.9206 143.318C43.4446 143.719 42.7913 143.92 41.9606 143.92ZM49.9214 133.392H51.0414V137.704H51.0974C51.2841 137.247 51.5548 136.911 51.9094 136.696C52.2734 136.472 52.7074 136.36 53.2114 136.36C53.6594 136.36 54.0654 136.449 54.4294 136.626C54.7934 136.803 55.1014 137.055 55.3534 137.382C55.6148 137.709 55.8108 138.105 55.9414 138.572C56.0814 139.039 56.1514 139.561 56.1514 140.14C56.1514 140.719 56.0814 141.241 55.9414 141.708C55.8108 142.175 55.6148 142.571 55.3534 142.898C55.1014 143.225 54.7934 143.477 54.4294 143.654C54.0654 143.831 53.6594 143.92 53.2114 143.92C52.2314 143.92 51.5268 143.472 51.0974 142.576H51.0414V143.752H49.9214V133.392ZM52.9034 142.912C53.5381 142.912 54.0374 142.716 54.4014 142.324C54.7654 141.923 54.9474 141.4 54.9474 140.756V139.524C54.9474 138.88 54.7654 138.362 54.4014 137.97C54.0374 137.569 53.5381 137.368 52.9034 137.368C52.6514 137.368 52.4088 137.405 52.1754 137.48C51.9514 137.545 51.7554 137.639 51.5874 137.76C51.4194 137.881 51.2841 138.031 51.1814 138.208C51.0881 138.376 51.0414 138.558 51.0414 138.754V141.442C51.0414 141.675 51.0881 141.885 51.1814 142.072C51.2841 142.249 51.4194 142.403 51.5874 142.534C51.7554 142.655 51.9514 142.749 52.1754 142.814C52.4088 142.879 52.6514 142.912 52.9034 142.912ZM63.2925 143.752C62.8725 143.752 62.5692 143.64 62.3825 143.416C62.2052 143.192 62.0932 142.912 62.0465 142.576H61.9765C61.8179 143.024 61.5565 143.36 61.1925 143.584C60.8285 143.808 60.3945 143.92 59.8905 143.92C59.1252 143.92 58.5279 143.724 58.0985 143.332C57.6785 142.94 57.4685 142.408 57.4685 141.736C57.4685 141.055 57.7159 140.532 58.2105 140.168C58.7145 139.804 59.4939 139.622 60.5485 139.622H61.9765V138.908C61.9765 138.395 61.8365 138.003 61.5565 137.732C61.2765 137.461 60.8472 137.326 60.2685 137.326C59.8299 137.326 59.4612 137.424 59.1625 137.62C58.8732 137.816 58.6305 138.077 58.4345 138.404L57.7625 137.774C57.9585 137.382 58.2712 137.051 58.7005 136.78C59.1299 136.5 59.6712 136.36 60.3245 136.36C61.2019 136.36 61.8832 136.575 62.3685 137.004C62.8539 137.433 63.0965 138.031 63.0965 138.796V142.772H63.9225V143.752H63.2925ZM60.0725 142.968C60.3525 142.968 60.6092 142.935 60.8425 142.87C61.0759 142.805 61.2765 142.711 61.4445 142.59C61.6125 142.469 61.7432 142.329 61.8365 142.17C61.9299 142.011 61.9765 141.839 61.9765 141.652V140.462H60.4925C59.8485 140.462 59.3772 140.555 59.0785 140.742C58.7892 140.929 58.6445 141.199 58.6445 141.554V141.848C58.6445 142.203 58.7705 142.478 59.0225 142.674C59.2839 142.87 59.6339 142.968 60.0725 142.968ZM67.6911 143.92C67.0191 143.92 66.4544 143.794 65.9971 143.542C65.5491 143.281 65.1617 142.935 64.8351 142.506L65.6331 141.862C65.9131 142.217 66.2257 142.492 66.5711 142.688C66.9164 142.875 67.3177 142.968 67.7751 142.968C68.2511 142.968 68.6197 142.865 68.8811 142.66C69.1517 142.455 69.2871 142.165 69.2871 141.792C69.2871 141.512 69.1937 141.274 69.0071 141.078C68.8297 140.873 68.5031 140.733 68.0271 140.658L67.4531 140.574C67.1171 140.527 66.8091 140.457 66.5291 140.364C66.2491 140.261 66.0017 140.131 65.7871 139.972C65.5817 139.804 65.4184 139.599 65.2971 139.356C65.1851 139.113 65.1291 138.824 65.1291 138.488C65.1291 138.133 65.1944 137.825 65.3251 137.564C65.4557 137.293 65.6331 137.069 65.8571 136.892C66.0904 136.715 66.3657 136.584 66.6831 136.5C67.0004 136.407 67.3411 136.36 67.7051 136.36C68.2931 136.36 68.7831 136.463 69.1751 136.668C69.5764 136.873 69.9264 137.158 70.2251 137.522L69.4831 138.194C69.3244 137.97 69.0911 137.769 68.7831 137.592C68.4751 137.405 68.0877 137.312 67.6211 137.312C67.1544 137.312 66.7997 137.415 66.5571 137.62C66.3237 137.816 66.2071 138.087 66.2071 138.432C66.2071 138.787 66.3237 139.043 66.5571 139.202C66.7997 139.361 67.1451 139.477 67.5931 139.552L68.1531 139.636C68.9557 139.757 69.5251 139.991 69.8611 140.336C70.1971 140.672 70.3651 141.115 70.3651 141.666C70.3651 142.366 70.1271 142.917 69.6511 143.318C69.1751 143.719 68.5217 143.92 67.6911 143.92ZM75.0593 143.92C74.5647 143.92 74.1167 143.831 73.7153 143.654C73.3233 143.477 72.9827 143.225 72.6933 142.898C72.4133 142.562 72.194 142.165 72.0353 141.708C71.886 141.241 71.8113 140.719 71.8113 140.14C71.8113 139.571 71.886 139.053 72.0353 138.586C72.194 138.119 72.4133 137.723 72.6933 137.396C72.9827 137.06 73.3233 136.803 73.7153 136.626C74.1167 136.449 74.5647 136.36 75.0593 136.36C75.5447 136.36 75.9787 136.449 76.3613 136.626C76.744 136.803 77.0707 137.051 77.3413 137.368C77.612 137.676 77.8173 138.045 77.9573 138.474C78.1067 138.903 78.1813 139.375 78.1813 139.888V140.42H72.9873V140.756C72.9873 141.064 73.034 141.353 73.1273 141.624C73.23 141.885 73.37 142.114 73.5473 142.31C73.734 142.506 73.958 142.66 74.2193 142.772C74.49 142.884 74.7933 142.94 75.1293 142.94C75.5867 142.94 75.9833 142.833 76.3193 142.618C76.6647 142.403 76.9307 142.095 77.1173 141.694L77.9153 142.268C77.682 142.763 77.318 143.164 76.8233 143.472C76.3287 143.771 75.7407 143.92 75.0593 143.92ZM75.0593 137.298C74.7513 137.298 74.4713 137.354 74.2193 137.466C73.9673 137.569 73.748 137.718 73.5613 137.914C73.384 138.11 73.244 138.343 73.1413 138.614C73.0387 138.875 72.9873 139.165 72.9873 139.482V139.58H76.9773V139.426C76.9773 138.782 76.8 138.269 76.4453 137.886C76.1 137.494 75.638 137.298 75.0593 137.298ZM84.6469 142.576H84.5909C84.1522 143.472 83.4476 143.92 82.4769 143.92C82.0289 143.92 81.6229 143.831 81.2589 143.654C80.8949 143.477 80.5822 143.225 80.3209 142.898C80.0689 142.571 79.8729 142.175 79.7329 141.708C79.6022 141.241 79.5369 140.719 79.5369 140.14C79.5369 139.561 79.6022 139.039 79.7329 138.572C79.8729 138.105 80.0689 137.709 80.3209 137.382C80.5822 137.055 80.8949 136.803 81.2589 136.626C81.6229 136.449 82.0289 136.36 82.4769 136.36C82.9809 136.36 83.4102 136.472 83.7649 136.696C84.1289 136.911 84.4042 137.247 84.5909 137.704H84.6469V133.392H85.7669V143.752H84.6469V142.576ZM82.7849 142.912C83.0369 142.912 83.2749 142.879 83.4989 142.814C83.7322 142.749 83.9329 142.655 84.1009 142.534C84.2689 142.403 84.3996 142.249 84.4929 142.072C84.5956 141.885 84.6469 141.675 84.6469 141.442V138.754C84.6469 138.558 84.5956 138.376 84.4929 138.208C84.3996 138.031 84.2689 137.881 84.1009 137.76C83.9329 137.639 83.7322 137.545 83.4989 137.48C83.2749 137.405 83.0369 137.368 82.7849 137.368C82.1502 137.368 81.6509 137.569 81.2869 137.97C80.9229 138.362 80.7409 138.88 80.7409 139.524V140.756C80.7409 141.4 80.9229 141.923 81.2869 142.324C81.6509 142.716 82.1502 142.912 82.7849 142.912ZM94.1866 143.92C93.7013 143.92 93.2579 143.831 92.8566 143.654C92.4553 143.477 92.1099 143.225 91.8206 142.898C91.5406 142.562 91.3213 142.165 91.1626 141.708C91.0039 141.241 90.9246 140.719 90.9246 140.14C90.9246 139.571 91.0039 139.053 91.1626 138.586C91.3213 138.119 91.5406 137.723 91.8206 137.396C92.1099 137.06 92.4553 136.803 92.8566 136.626C93.2579 136.449 93.7013 136.36 94.1866 136.36C94.6719 136.36 95.1106 136.449 95.5026 136.626C95.9039 136.803 96.2493 137.06 96.5386 137.396C96.8279 137.723 97.0519 138.119 97.2106 138.586C97.3693 139.053 97.4486 139.571 97.4486 140.14C97.4486 140.719 97.3693 141.241 97.2106 141.708C97.0519 142.165 96.8279 142.562 96.5386 142.898C96.2493 143.225 95.9039 143.477 95.5026 143.654C95.1106 143.831 94.6719 143.92 94.1866 143.92ZM94.1866 142.926C94.7933 142.926 95.2879 142.739 95.6706 142.366C96.0533 141.993 96.2446 141.423 96.2446 140.658V139.622C96.2446 138.857 96.0533 138.287 95.6706 137.914C95.2879 137.541 94.7933 137.354 94.1866 137.354C93.5799 137.354 93.0853 137.541 92.7026 137.914C92.3199 138.287 92.1286 138.857 92.1286 139.622V140.658C92.1286 141.423 92.3199 141.993 92.7026 142.366C93.0853 142.739 93.5799 142.926 94.1866 142.926ZM99.2906 143.752V136.528H100.411V137.704H100.467C100.644 137.293 100.891 136.967 101.209 136.724C101.535 136.481 101.969 136.36 102.511 136.36C103.257 136.36 103.845 136.603 104.275 137.088C104.713 137.564 104.933 138.241 104.933 139.118V143.752H103.813V139.314C103.813 138.017 103.267 137.368 102.175 137.368C101.951 137.368 101.731 137.396 101.517 137.452C101.311 137.508 101.125 137.592 100.957 137.704C100.789 137.816 100.653 137.961 100.551 138.138C100.457 138.306 100.411 138.507 100.411 138.74V143.752H99.2906ZM112.152 143.752C111.76 143.752 111.462 143.645 111.256 143.43C111.06 143.206 110.962 142.917 110.962 142.562V137.508H109.772V136.528H110.444C110.687 136.528 110.85 136.481 110.934 136.388C111.028 136.285 111.074 136.113 111.074 135.87V134.526H112.082V136.528H113.664V137.508H112.082V142.772H113.552V143.752H112.152ZM115.464 133.392H116.584V137.704H116.64C116.818 137.293 117.065 136.967 117.382 136.724C117.709 136.481 118.143 136.36 118.684 136.36C119.431 136.36 120.019 136.603 120.448 137.088C120.887 137.564 121.106 138.241 121.106 139.118V143.752H119.986V139.314C119.986 138.017 119.44 137.368 118.348 137.368C118.124 137.368 117.905 137.396 117.69 137.452C117.485 137.508 117.298 137.592 117.13 137.704C116.962 137.816 116.827 137.961 116.724 138.138C116.631 138.306 116.584 138.507 116.584 138.74V143.752H115.464V133.392ZM126.137 143.92C125.643 143.92 125.195 143.831 124.793 143.654C124.401 143.477 124.061 143.225 123.771 142.898C123.491 142.562 123.272 142.165 123.113 141.708C122.964 141.241 122.889 140.719 122.889 140.14C122.889 139.571 122.964 139.053 123.113 138.586C123.272 138.119 123.491 137.723 123.771 137.396C124.061 137.06 124.401 136.803 124.793 136.626C125.195 136.449 125.643 136.36 126.137 136.36C126.623 136.36 127.057 136.449 127.439 136.626C127.822 136.803 128.149 137.051 128.419 137.368C128.69 137.676 128.895 138.045 129.035 138.474C129.185 138.903 129.259 139.375 129.259 139.888V140.42H124.065V140.756C124.065 141.064 124.112 141.353 124.205 141.624C124.308 141.885 124.448 142.114 124.625 142.31C124.812 142.506 125.036 142.66 125.297 142.772C125.568 142.884 125.871 142.94 126.207 142.94C126.665 142.94 127.061 142.833 127.397 142.618C127.743 142.403 128.009 142.095 128.195 141.694L128.993 142.268C128.76 142.763 128.396 143.164 127.901 143.472C127.407 143.771 126.819 143.92 126.137 143.92ZM126.137 137.298C125.829 137.298 125.549 137.354 125.297 137.466C125.045 137.569 124.826 137.718 124.639 137.914C124.462 138.11 124.322 138.343 124.219 138.614C124.117 138.875 124.065 139.165 124.065 139.482V139.58H128.055V139.426C128.055 138.782 127.878 138.269 127.523 137.886C127.178 137.494 126.716 137.298 126.137 137.298ZM134.806 137.508H133.63V136.528H134.806V135.072C134.806 134.568 134.936 134.162 135.198 133.854C135.459 133.546 135.856 133.392 136.388 133.392H137.48V134.372H135.926V136.528H137.48V137.508H135.926V143.752H134.806V137.508ZM141.628 143.92C141.143 143.92 140.699 143.831 140.298 143.654C139.897 143.477 139.551 143.225 139.262 142.898C138.982 142.562 138.763 142.165 138.604 141.708C138.445 141.241 138.366 140.719 138.366 140.14C138.366 139.571 138.445 139.053 138.604 138.586C138.763 138.119 138.982 137.723 139.262 137.396C139.551 137.06 139.897 136.803 140.298 136.626C140.699 136.449 141.143 136.36 141.628 136.36C142.113 136.36 142.552 136.449 142.944 136.626C143.345 136.803 143.691 137.06 143.98 137.396C144.269 137.723 144.493 138.119 144.652 138.586C144.811 139.053 144.89 139.571 144.89 140.14C144.89 140.719 144.811 141.241 144.652 141.708C144.493 142.165 144.269 142.562 143.98 142.898C143.691 143.225 143.345 143.477 142.944 143.654C142.552 143.831 142.113 143.92 141.628 143.92ZM141.628 142.926C142.235 142.926 142.729 142.739 143.112 142.366C143.495 141.993 143.686 141.423 143.686 140.658V139.622C143.686 138.857 143.495 138.287 143.112 137.914C142.729 137.541 142.235 137.354 141.628 137.354C141.021 137.354 140.527 137.541 140.144 137.914C139.761 138.287 139.57 138.857 139.57 139.622V140.658C139.57 141.423 139.761 141.993 140.144 142.366C140.527 142.739 141.021 142.926 141.628 142.926ZM146.732 143.752V136.528H147.852V137.858H147.922C148.053 137.513 148.286 137.205 148.622 136.934C148.958 136.663 149.42 136.528 150.008 136.528H150.442V137.648H149.784C149.177 137.648 148.701 137.765 148.356 137.998C148.02 138.222 147.852 138.507 147.852 138.852V143.752H146.732ZM151.873 143.752V136.528H152.993V137.704H153.049C153.133 137.517 153.226 137.345 153.329 137.186C153.441 137.018 153.571 136.873 153.721 136.752C153.879 136.631 154.061 136.537 154.267 136.472C154.472 136.397 154.715 136.36 154.995 136.36C155.471 136.36 155.909 136.477 156.311 136.71C156.712 136.934 157.011 137.307 157.207 137.83H157.235C157.365 137.438 157.608 137.097 157.963 136.808C158.327 136.509 158.817 136.36 159.433 136.36C160.17 136.36 160.744 136.603 161.155 137.088C161.575 137.564 161.785 138.241 161.785 139.118V143.752H160.665V139.314C160.665 138.67 160.539 138.185 160.287 137.858C160.035 137.531 159.633 137.368 159.083 137.368C158.859 137.368 158.644 137.396 158.439 137.452C158.243 137.508 158.065 137.592 157.907 137.704C157.748 137.816 157.622 137.961 157.529 138.138C157.435 138.306 157.389 138.507 157.389 138.74V143.752H156.269V139.314C156.269 138.67 156.143 138.185 155.891 137.858C155.639 137.531 155.247 137.368 154.715 137.368C154.491 137.368 154.276 137.396 154.071 137.452C153.865 137.508 153.683 137.592 153.525 137.704C153.366 137.816 153.235 137.961 153.133 138.138C153.039 138.306 152.993 138.507 152.993 138.74V143.752H151.873Z" fill="#27272A"/>
</svg>
