<svg width="140" height="148" viewBox="0 0 140 148" fill="none" xmlns="http://www.w3.org/2000/svg">
<path d="M95.4559 11.2961C101.93 17.7707 105.695 26.4692 105.982 35.6212C106.27 44.7732 103.059 53.6908 97.004 60.5592C90.9487 67.4276 82.5037 71.7305 73.3879 72.5922C64.272 73.4539 55.1704 70.8096 47.9353 65.1975C40.7003 59.5854 35.8756 51.4273 34.4432 42.3836C33.0108 33.3398 35.0784 24.0901 40.2251 16.5169C45.3718 8.94378 53.2109 3.61636 62.1469 1.61894C71.0828 -0.378476 80.4441 1.10422 88.3255 5.76526L70 36.752L95.4559 11.2961Z" fill="#14B8A6"/>
<path d="M60.4854 94.904C60.4854 95.804 60.3474 96.656 60.0714 97.46C59.8074 98.252 59.4594 98.984 59.0274 99.656C58.5954 100.316 58.1094 100.91 57.5694 101.438C57.0414 101.954 56.5134 102.392 55.9854 102.752H52.7814C53.5134 102.224 54.1734 101.714 54.7614 101.222C55.3494 100.73 55.8594 100.232 56.2914 99.728C56.7354 99.224 57.0954 98.702 57.3714 98.162C57.6594 97.61 57.8754 97.016 58.0194 96.38L57.8754 96.344C57.7554 96.584 57.6114 96.818 57.4434 97.046C57.2874 97.274 57.0954 97.472 56.8674 97.64C56.6394 97.808 56.3754 97.946 56.0754 98.054C55.7754 98.15 55.4274 98.198 55.0314 98.198C54.5034 98.198 54.0174 98.108 53.5734 97.928C53.1294 97.748 52.7394 97.49 52.4034 97.154C52.0794 96.806 51.8214 96.398 51.6294 95.93C51.4494 95.45 51.3594 94.91 51.3594 94.31C51.3594 93.674 51.4674 93.092 51.6834 92.564C51.8994 92.036 52.2054 91.58 52.6014 91.196C52.9974 90.812 53.4714 90.512 54.0234 90.296C54.5874 90.08 55.2174 89.972 55.9134 89.972C56.6334 89.972 57.2754 90.092 57.8394 90.332C58.4034 90.56 58.8834 90.89 59.2794 91.322C59.6754 91.742 59.9754 92.258 60.1794 92.87C60.3834 93.47 60.4854 94.148 60.4854 94.904ZM55.9134 96.362C56.5854 96.362 57.1074 96.182 57.4794 95.822C57.8514 95.45 58.0374 94.922 58.0374 94.238V93.968C58.0374 93.284 57.8514 92.762 57.4794 92.402C57.1074 92.03 56.5854 91.844 55.9134 91.844C55.2534 91.844 54.7314 92.03 54.3474 92.402C53.9754 92.762 53.7894 93.284 53.7894 93.968V94.238C53.7894 94.922 53.9754 95.45 54.3474 95.822C54.7314 96.182 55.2534 96.362 55.9134 96.362ZM66.8144 102.968C66.0944 102.968 65.4524 102.854 64.8884 102.626C64.3244 102.386 63.8444 102.056 63.4484 101.636C63.0524 101.204 62.7524 100.688 62.5484 100.088C62.3444 99.476 62.2424 98.792 62.2424 98.036C62.2424 97.136 62.3744 96.29 62.6384 95.498C62.9144 94.694 63.2684 93.962 63.7004 93.302C64.1324 92.63 64.6124 92.036 65.1404 91.52C65.6804 90.992 66.2144 90.548 66.7424 90.188H69.9464C69.2024 90.716 68.5364 91.226 67.9484 91.718C67.3724 92.21 66.8624 92.708 66.4184 93.212C65.9864 93.716 65.6264 94.244 65.3384 94.796C65.0624 95.336 64.8524 95.924 64.7084 96.56L64.8524 96.596C64.9724 96.356 65.1104 96.128 65.2664 95.912C65.4344 95.684 65.6324 95.486 65.8604 95.318C66.0884 95.138 66.3524 95 66.6524 94.904C66.9524 94.796 67.3004 94.742 67.6964 94.742C68.2124 94.742 68.6924 94.832 69.1364 95.012C69.5924 95.192 69.9824 95.456 70.3064 95.804C70.6424 96.14 70.9004 96.548 71.0804 97.028C71.2724 97.508 71.3684 98.042 71.3684 98.63C71.3684 99.266 71.2604 99.848 71.0444 100.376C70.8284 100.904 70.5224 101.36 70.1264 101.744C69.7304 102.128 69.2504 102.428 68.6864 102.644C68.1344 102.86 67.5104 102.968 66.8144 102.968ZM66.8144 101.096C67.4744 101.096 67.9904 100.916 68.3624 100.556C68.7464 100.184 68.9384 99.656 68.9384 98.972V98.702C68.9384 98.018 68.7464 97.496 68.3624 97.136C67.9904 96.764 67.4744 96.578 66.8144 96.578C66.1424 96.578 65.6204 96.764 65.2484 97.136C64.8764 97.496 64.6904 98.018 64.6904 98.702V98.972C64.6904 99.656 64.8764 100.184 65.2484 100.556C65.6204 100.916 66.1424 101.096 66.8144 101.096ZM75.3933 102.752L84.1053 90.188H86.1933L77.4813 102.752H75.3933ZM76.2573 97.1C75.2373 97.1 74.4573 96.8 73.9173 96.2C73.3893 95.588 73.1253 94.7 73.1253 93.536C73.1253 92.372 73.3893 91.49 73.9173 90.89C74.4573 90.278 75.2373 89.972 76.2573 89.972C77.2773 89.972 78.0513 90.278 78.5793 90.89C79.1073 91.49 79.3713 92.372 79.3713 93.536C79.3713 94.7 79.1073 95.588 78.5793 96.2C78.0513 96.8 77.2773 97.1 76.2573 97.1ZM76.2573 95.732C77.0013 95.732 77.3733 95.162 77.3733 94.022V93.05C77.3733 91.91 77.0013 91.34 76.2573 91.34C75.5133 91.34 75.1413 91.91 75.1413 93.05V94.022C75.1413 95.162 75.5133 95.732 76.2573 95.732ZM85.3293 102.968C84.3213 102.968 83.5473 102.668 83.0073 102.068C82.4793 101.456 82.2153 100.568 82.2153 99.404C82.2153 98.24 82.4793 97.358 83.0073 96.758C83.5473 96.146 84.3213 95.84 85.3293 95.84C86.3493 95.84 87.1233 96.146 87.6513 96.758C88.1913 97.358 88.4613 98.24 88.4613 99.404C88.4613 100.568 88.1913 101.456 87.6513 102.068C87.1233 102.668 86.3493 102.968 85.3293 102.968ZM85.3293 101.6C86.0733 101.6 86.4453 101.03 86.4453 99.89V98.918C86.4453 97.778 86.0733 97.208 85.3293 97.208C84.5853 97.208 84.2133 97.778 84.2133 98.918V99.89C84.2133 101.03 84.5853 101.6 85.3293 101.6Z" fill="#27272A"/>
<path d="M5.58698 125.92C5.08298 125.92 4.63032 125.831 4.22898 125.654C3.82765 125.477 3.48698 125.225 3.20698 124.898C2.93632 124.571 2.72632 124.175 2.57698 123.708C2.43698 123.241 2.36698 122.719 2.36698 122.14C2.36698 121.561 2.43698 121.039 2.57698 120.572C2.72632 120.105 2.93632 119.709 3.20698 119.382C3.48698 119.055 3.82765 118.803 4.22898 118.626C4.63032 118.449 5.08298 118.36 5.58698 118.36C6.30565 118.36 6.87965 118.519 7.30898 118.836C7.74765 119.144 8.07432 119.55 8.28898 120.054L7.35098 120.53C7.22032 120.157 7.00565 119.867 6.70698 119.662C6.40832 119.457 6.03498 119.354 5.58698 119.354C5.25098 119.354 4.95698 119.41 4.70498 119.522C4.45298 119.625 4.24298 119.774 4.07498 119.97C3.90698 120.157 3.78098 120.385 3.69698 120.656C3.61298 120.917 3.57098 121.207 3.57098 121.524V122.756C3.57098 123.391 3.73898 123.913 4.07498 124.324C4.42032 124.725 4.92432 124.926 5.58698 124.926C6.49232 124.926 7.14565 124.506 7.54698 123.666L8.35898 124.212C8.12565 124.735 7.77565 125.15 7.30898 125.458C6.85165 125.766 6.27765 125.92 5.58698 125.92ZM12.588 125.92C12.1026 125.92 11.6593 125.831 11.258 125.654C10.8566 125.477 10.5113 125.225 10.222 124.898C9.94197 124.562 9.72264 124.165 9.56397 123.708C9.4053 123.241 9.32597 122.719 9.32597 122.14C9.32597 121.571 9.4053 121.053 9.56397 120.586C9.72264 120.119 9.94197 119.723 10.222 119.396C10.5113 119.06 10.8566 118.803 11.258 118.626C11.6593 118.449 12.1026 118.36 12.588 118.36C13.0733 118.36 13.512 118.449 13.904 118.626C14.3053 118.803 14.6506 119.06 14.94 119.396C15.2293 119.723 15.4533 120.119 15.612 120.586C15.7706 121.053 15.85 121.571 15.85 122.14C15.85 122.719 15.7706 123.241 15.612 123.708C15.4533 124.165 15.2293 124.562 14.94 124.898C14.6506 125.225 14.3053 125.477 13.904 125.654C13.512 125.831 13.0733 125.92 12.588 125.92ZM12.588 124.926C13.1946 124.926 13.6893 124.739 14.072 124.366C14.4546 123.993 14.646 123.423 14.646 122.658V121.622C14.646 120.857 14.4546 120.287 14.072 119.914C13.6893 119.541 13.1946 119.354 12.588 119.354C11.9813 119.354 11.4866 119.541 11.104 119.914C10.7213 120.287 10.53 120.857 10.53 121.622V122.658C10.53 123.423 10.7213 123.993 11.104 124.366C11.4866 124.739 11.9813 124.926 12.588 124.926ZM17.692 125.752V118.528H18.812V119.858H18.882C19.0126 119.513 19.246 119.205 19.582 118.934C19.918 118.663 20.38 118.528 20.968 118.528H21.402V119.648H20.744C20.1373 119.648 19.6613 119.765 19.316 119.998C18.98 120.222 18.812 120.507 18.812 120.852V125.752H17.692ZM22.8326 125.752V118.528H23.9526V119.858H24.0226C24.1532 119.513 24.3866 119.205 24.7226 118.934C25.0586 118.663 25.5206 118.528 26.1086 118.528H26.5426V119.648H25.8846C25.2779 119.648 24.8019 119.765 24.4566 119.998C24.1206 120.222 23.9526 120.507 23.9526 120.852V125.752H22.8326ZM30.6208 125.92C30.1262 125.92 29.6782 125.831 29.2768 125.654C28.8848 125.477 28.5442 125.225 28.2548 124.898C27.9748 124.562 27.7555 124.165 27.5968 123.708C27.4475 123.241 27.3728 122.719 27.3728 122.14C27.3728 121.571 27.4475 121.053 27.5968 120.586C27.7555 120.119 27.9748 119.723 28.2548 119.396C28.5442 119.06 28.8848 118.803 29.2768 118.626C29.6782 118.449 30.1262 118.36 30.6208 118.36C31.1062 118.36 31.5402 118.449 31.9228 118.626C32.3055 118.803 32.6322 119.051 32.9028 119.368C33.1735 119.676 33.3788 120.045 33.5188 120.474C33.6682 120.903 33.7428 121.375 33.7428 121.888V122.42H28.5488V122.756C28.5488 123.064 28.5955 123.353 28.6888 123.624C28.7915 123.885 28.9315 124.114 29.1088 124.31C29.2955 124.506 29.5195 124.66 29.7808 124.772C30.0515 124.884 30.3548 124.94 30.6908 124.94C31.1482 124.94 31.5448 124.833 31.8808 124.618C32.2262 124.403 32.4922 124.095 32.6788 123.694L33.4768 124.268C33.2435 124.763 32.8795 125.164 32.3848 125.472C31.8902 125.771 31.3022 125.92 30.6208 125.92ZM30.6208 119.298C30.3128 119.298 30.0328 119.354 29.7808 119.466C29.5288 119.569 29.3095 119.718 29.1228 119.914C28.9455 120.11 28.8055 120.343 28.7028 120.614C28.6002 120.875 28.5488 121.165 28.5488 121.482V121.58H32.5388V121.426C32.5388 120.782 32.3615 120.269 32.0068 119.886C31.6615 119.494 31.1995 119.298 30.6208 119.298ZM38.2764 125.92C37.7724 125.92 37.3198 125.831 36.9184 125.654C36.5171 125.477 36.1764 125.225 35.8964 124.898C35.6258 124.571 35.4158 124.175 35.2664 123.708C35.1264 123.241 35.0564 122.719 35.0564 122.14C35.0564 121.561 35.1264 121.039 35.2664 120.572C35.4158 120.105 35.6258 119.709 35.8964 119.382C36.1764 119.055 36.5171 118.803 36.9184 118.626C37.3198 118.449 37.7724 118.36 38.2764 118.36C38.9951 118.36 39.5691 118.519 39.9984 118.836C40.4371 119.144 40.7638 119.55 40.9784 120.054L40.0404 120.53C39.9098 120.157 39.6951 119.867 39.3964 119.662C39.0978 119.457 38.7244 119.354 38.2764 119.354C37.9404 119.354 37.6464 119.41 37.3944 119.522C37.1424 119.625 36.9324 119.774 36.7644 119.97C36.5964 120.157 36.4704 120.385 36.3864 120.656C36.3024 120.917 36.2604 121.207 36.2604 121.524V122.756C36.2604 123.391 36.4284 123.913 36.7644 124.324C37.1098 124.725 37.6138 124.926 38.2764 124.926C39.1818 124.926 39.8351 124.506 40.2364 123.666L41.0484 124.212C40.8151 124.735 40.4651 125.15 39.9984 125.458C39.5411 125.766 38.9671 125.92 38.2764 125.92ZM44.2255 125.752C43.8335 125.752 43.5348 125.645 43.3295 125.43C43.1335 125.206 43.0355 124.917 43.0355 124.562V119.508H41.8455V118.528H42.5175C42.7601 118.528 42.9235 118.481 43.0075 118.388C43.1008 118.285 43.1475 118.113 43.1475 117.87V116.526H44.1555V118.528H45.7375V119.508H44.1555V124.772H45.6255V125.752H44.2255ZM48.7277 125.752C48.3357 125.752 48.037 125.645 47.8317 125.43C47.6357 125.206 47.5377 124.926 47.5377 124.59V115.392H48.6577V124.772H49.7217V125.752H48.7277ZM55.6674 118.528H56.7734L53.5394 127.432C53.4554 127.647 53.3714 127.824 53.2874 127.964C53.2034 128.113 53.1007 128.23 52.9794 128.314C52.8581 128.398 52.7041 128.459 52.5174 128.496C52.3401 128.533 52.1207 128.552 51.8594 128.552H51.2854V127.572H52.4194L52.9654 126.032L50.2634 118.528H51.3834L53.1194 123.442L53.4554 124.618H53.5254L53.9174 123.442L55.6674 118.528ZM66.1303 124.576H66.0743C65.6356 125.472 64.931 125.92 63.9603 125.92C63.5123 125.92 63.1063 125.831 62.7423 125.654C62.3783 125.477 62.0656 125.225 61.8043 124.898C61.5523 124.571 61.3563 124.175 61.2163 123.708C61.0856 123.241 61.0203 122.719 61.0203 122.14C61.0203 121.561 61.0856 121.039 61.2163 120.572C61.3563 120.105 61.5523 119.709 61.8043 119.382C62.0656 119.055 62.3783 118.803 62.7423 118.626C63.1063 118.449 63.5123 118.36 63.9603 118.36C64.4643 118.36 64.8936 118.472 65.2483 118.696C65.6123 118.911 65.8876 119.247 66.0743 119.704H66.1303V115.392H67.2503V125.752H66.1303V124.576ZM64.2683 124.912C64.5203 124.912 64.7583 124.879 64.9823 124.814C65.2156 124.749 65.4163 124.655 65.5843 124.534C65.7523 124.403 65.883 124.249 65.9763 124.072C66.079 123.885 66.1303 123.675 66.1303 123.442V120.754C66.1303 120.558 66.079 120.376 65.9763 120.208C65.883 120.031 65.7523 119.881 65.5843 119.76C65.4163 119.639 65.2156 119.545 64.9823 119.48C64.7583 119.405 64.5203 119.368 64.2683 119.368C63.6336 119.368 63.1343 119.569 62.7703 119.97C62.4063 120.362 62.2243 120.88 62.2243 121.524V122.756C62.2243 123.4 62.4063 123.923 62.7703 124.324C63.1343 124.716 63.6336 124.912 64.2683 124.912ZM72.3474 125.92C71.8527 125.92 71.4047 125.831 71.0034 125.654C70.6114 125.477 70.2707 125.225 69.9814 124.898C69.7014 124.562 69.4821 124.165 69.3234 123.708C69.1741 123.241 69.0994 122.719 69.0994 122.14C69.0994 121.571 69.1741 121.053 69.3234 120.586C69.4821 120.119 69.7014 119.723 69.9814 119.396C70.2707 119.06 70.6114 118.803 71.0034 118.626C71.4047 118.449 71.8527 118.36 72.3474 118.36C72.8327 118.36 73.2667 118.449 73.6494 118.626C74.0321 118.803 74.3587 119.051 74.6294 119.368C74.9001 119.676 75.1054 120.045 75.2454 120.474C75.3947 120.903 75.4694 121.375 75.4694 121.888V122.42H70.2754V122.756C70.2754 123.064 70.3221 123.353 70.4154 123.624C70.5181 123.885 70.6581 124.114 70.8354 124.31C71.0221 124.506 71.2461 124.66 71.5074 124.772C71.7781 124.884 72.0814 124.94 72.4174 124.94C72.8747 124.94 73.2714 124.833 73.6074 124.618C73.9527 124.403 74.2187 124.095 74.4054 123.694L75.2034 124.268C74.9701 124.763 74.6061 125.164 74.1114 125.472C73.6167 125.771 73.0287 125.92 72.3474 125.92ZM72.3474 119.298C72.0394 119.298 71.7594 119.354 71.5074 119.466C71.2554 119.569 71.0361 119.718 70.8494 119.914C70.6721 120.11 70.5321 120.343 70.4294 120.614C70.3267 120.875 70.2754 121.165 70.2754 121.482V121.58H74.2654V121.426C74.2654 120.782 74.0881 120.269 73.7334 119.886C73.3881 119.494 72.9261 119.298 72.3474 119.298ZM79.485 125.92C78.813 125.92 78.2483 125.794 77.791 125.542C77.343 125.281 76.9557 124.935 76.629 124.506L77.427 123.862C77.707 124.217 78.0197 124.492 78.365 124.688C78.7103 124.875 79.1117 124.968 79.569 124.968C80.045 124.968 80.4137 124.865 80.675 124.66C80.9457 124.455 81.081 124.165 81.081 123.792C81.081 123.512 80.9877 123.274 80.801 123.078C80.6237 122.873 80.297 122.733 79.821 122.658L79.247 122.574C78.911 122.527 78.603 122.457 78.323 122.364C78.043 122.261 77.7957 122.131 77.581 121.972C77.3757 121.804 77.2123 121.599 77.091 121.356C76.979 121.113 76.923 120.824 76.923 120.488C76.923 120.133 76.9883 119.825 77.119 119.564C77.2497 119.293 77.427 119.069 77.651 118.892C77.8843 118.715 78.1597 118.584 78.477 118.5C78.7943 118.407 79.135 118.36 79.499 118.36C80.087 118.36 80.577 118.463 80.969 118.668C81.3703 118.873 81.7203 119.158 82.019 119.522L81.277 120.194C81.1183 119.97 80.885 119.769 80.577 119.592C80.269 119.405 79.8817 119.312 79.415 119.312C78.9483 119.312 78.5937 119.415 78.351 119.62C78.1177 119.816 78.001 120.087 78.001 120.432C78.001 120.787 78.1177 121.043 78.351 121.202C78.5937 121.361 78.939 121.477 79.387 121.552L79.947 121.636C80.7497 121.757 81.319 121.991 81.655 122.336C81.991 122.672 82.159 123.115 82.159 123.666C82.159 124.366 81.921 124.917 81.445 125.318C80.969 125.719 80.3157 125.92 79.485 125.92ZM86.8253 125.92C86.3213 125.92 85.8686 125.831 85.4673 125.654C85.0659 125.477 84.7253 125.225 84.4453 124.898C84.1746 124.571 83.9646 124.175 83.8153 123.708C83.6753 123.241 83.6053 122.719 83.6053 122.14C83.6053 121.561 83.6753 121.039 83.8153 120.572C83.9646 120.105 84.1746 119.709 84.4453 119.382C84.7253 119.055 85.0659 118.803 85.4673 118.626C85.8686 118.449 86.3213 118.36 86.8253 118.36C87.5439 118.36 88.1179 118.519 88.5473 118.836C88.9859 119.144 89.3126 119.55 89.5273 120.054L88.5893 120.53C88.4586 120.157 88.2439 119.867 87.9453 119.662C87.6466 119.457 87.2733 119.354 86.8253 119.354C86.4893 119.354 86.1953 119.41 85.9433 119.522C85.6913 119.625 85.4813 119.774 85.3133 119.97C85.1453 120.157 85.0193 120.385 84.9353 120.656C84.8513 120.917 84.8093 121.207 84.8093 121.524V122.756C84.8093 123.391 84.9773 123.913 85.3133 124.324C85.6586 124.725 86.1626 124.926 86.8253 124.926C87.7306 124.926 88.3839 124.506 88.7853 123.666L89.5973 124.212C89.3639 124.735 89.0139 125.15 88.5473 125.458C88.0899 125.766 87.5159 125.92 86.8253 125.92ZM91.1783 125.752V118.528H92.2983V119.858H92.3683C92.4989 119.513 92.7323 119.205 93.0683 118.934C93.4043 118.663 93.8663 118.528 94.4543 118.528H94.8883V119.648H94.2303C93.6236 119.648 93.1476 119.765 92.8023 119.998C92.4663 120.222 92.2983 120.507 92.2983 120.852V125.752H91.1783ZM96.8789 116.834C96.6362 116.834 96.4589 116.778 96.3469 116.666C96.2442 116.545 96.1929 116.391 96.1929 116.204V116.022C96.1929 115.835 96.2442 115.686 96.3469 115.574C96.4589 115.453 96.6362 115.392 96.8789 115.392C97.1216 115.392 97.2942 115.453 97.3969 115.574C97.5089 115.686 97.5649 115.835 97.5649 116.022V116.204C97.5649 116.391 97.5089 116.545 97.3969 116.666C97.2942 116.778 97.1216 116.834 96.8789 116.834ZM96.3189 118.528H97.4389V125.752H96.3189V118.528ZM99.8189 115.392H100.939V119.704H100.995C101.182 119.247 101.452 118.911 101.807 118.696C102.171 118.472 102.605 118.36 103.109 118.36C103.557 118.36 103.963 118.449 104.327 118.626C104.691 118.803 104.999 119.055 105.251 119.382C105.512 119.709 105.708 120.105 105.839 120.572C105.979 121.039 106.049 121.561 106.049 122.14C106.049 122.719 105.979 123.241 105.839 123.708C105.708 124.175 105.512 124.571 105.251 124.898C104.999 125.225 104.691 125.477 104.327 125.654C103.963 125.831 103.557 125.92 103.109 125.92C102.129 125.92 101.424 125.472 100.995 124.576H100.939V125.752H99.8189V115.392ZM102.801 124.912C103.436 124.912 103.935 124.716 104.299 124.324C104.663 123.923 104.845 123.4 104.845 122.756V121.524C104.845 120.88 104.663 120.362 104.299 119.97C103.935 119.569 103.436 119.368 102.801 119.368C102.549 119.368 102.306 119.405 102.073 119.48C101.849 119.545 101.653 119.639 101.485 119.76C101.317 119.881 101.182 120.031 101.079 120.208C100.986 120.376 100.939 120.558 100.939 120.754V123.442C100.939 123.675 100.986 123.885 101.079 124.072C101.182 124.249 101.317 124.403 101.485 124.534C101.653 124.655 101.849 124.749 102.073 124.814C102.306 124.879 102.549 124.912 102.801 124.912ZM110.656 125.92C110.161 125.92 109.713 125.831 109.312 125.654C108.92 125.477 108.579 125.225 108.29 124.898C108.01 124.562 107.791 124.165 107.632 123.708C107.483 123.241 107.408 122.719 107.408 122.14C107.408 121.571 107.483 121.053 107.632 120.586C107.791 120.119 108.01 119.723 108.29 119.396C108.579 119.06 108.92 118.803 109.312 118.626C109.713 118.449 110.161 118.36 110.656 118.36C111.141 118.36 111.575 118.449 111.958 118.626C112.341 118.803 112.667 119.051 112.938 119.368C113.209 119.676 113.414 120.045 113.554 120.474C113.703 120.903 113.778 121.375 113.778 121.888V122.42H108.584V122.756C108.584 123.064 108.631 123.353 108.724 123.624C108.827 123.885 108.967 124.114 109.144 124.31C109.331 124.506 109.555 124.66 109.816 124.772C110.087 124.884 110.39 124.94 110.726 124.94C111.183 124.94 111.58 124.833 111.916 124.618C112.261 124.403 112.527 124.095 112.714 123.694L113.512 124.268C113.279 124.763 112.915 125.164 112.42 125.472C111.925 125.771 111.337 125.92 110.656 125.92ZM110.656 119.298C110.348 119.298 110.068 119.354 109.816 119.466C109.564 119.569 109.345 119.718 109.158 119.914C108.981 120.11 108.841 120.343 108.738 120.614C108.635 120.875 108.584 121.165 108.584 121.482V121.58H112.574V121.426C112.574 120.782 112.397 120.269 112.042 119.886C111.697 119.494 111.235 119.298 110.656 119.298ZM120.528 125.752C120.136 125.752 119.838 125.645 119.632 125.43C119.436 125.206 119.338 124.917 119.338 124.562V119.508H118.148V118.528H118.82C119.063 118.528 119.226 118.481 119.31 118.388C119.404 118.285 119.45 118.113 119.45 117.87V116.526H120.458V118.528H122.04V119.508H120.458V124.772H121.928V125.752H120.528ZM123.84 115.392H124.96V119.704H125.016C125.194 119.293 125.441 118.967 125.758 118.724C126.085 118.481 126.519 118.36 127.06 118.36C127.807 118.36 128.395 118.603 128.824 119.088C129.263 119.564 129.482 120.241 129.482 121.118V125.752H128.362V121.314C128.362 120.017 127.816 119.368 126.724 119.368C126.5 119.368 126.281 119.396 126.066 119.452C125.861 119.508 125.674 119.592 125.506 119.704C125.338 119.816 125.203 119.961 125.1 120.138C125.007 120.306 124.96 120.507 124.96 120.74V125.752H123.84V115.392ZM134.513 125.92C134.019 125.92 133.571 125.831 133.169 125.654C132.777 125.477 132.437 125.225 132.147 124.898C131.867 124.562 131.648 124.165 131.489 123.708C131.34 123.241 131.265 122.719 131.265 122.14C131.265 121.571 131.34 121.053 131.489 120.586C131.648 120.119 131.867 119.723 132.147 119.396C132.437 119.06 132.777 118.803 133.169 118.626C133.571 118.449 134.019 118.36 134.513 118.36C134.999 118.36 135.433 118.449 135.815 118.626C136.198 118.803 136.525 119.051 136.795 119.368C137.066 119.676 137.271 120.045 137.411 120.474C137.561 120.903 137.635 121.375 137.635 121.888V122.42H132.441V122.756C132.441 123.064 132.488 123.353 132.581 123.624C132.684 123.885 132.824 124.114 133.001 124.31C133.188 124.506 133.412 124.66 133.673 124.772C133.944 124.884 134.247 124.94 134.583 124.94C135.041 124.94 135.437 124.833 135.773 124.618C136.119 124.403 136.385 124.095 136.571 123.694L137.369 124.268C137.136 124.763 136.772 125.164 136.277 125.472C135.783 125.771 135.195 125.92 134.513 125.92ZM134.513 119.298C134.205 119.298 133.925 119.354 133.673 119.466C133.421 119.569 133.202 119.718 133.015 119.914C132.838 120.11 132.698 120.343 132.595 120.614C132.493 120.875 132.441 121.165 132.441 121.482V121.58H136.431V121.426C136.431 120.782 136.254 120.269 135.899 119.886C135.554 119.494 135.092 119.298 134.513 119.298ZM9.11969 136.528H10.2397V137.704H10.2957C10.4824 137.247 10.753 136.911 11.1077 136.696C11.4717 136.472 11.9057 136.36 12.4097 136.36C12.8577 136.36 13.2637 136.449 13.6277 136.626C13.9917 136.803 14.2997 137.055 14.5517 137.382C14.813 137.709 15.009 138.105 15.1397 138.572C15.2797 139.039 15.3497 139.561 15.3497 140.14C15.3497 140.719 15.2797 141.241 15.1397 141.708C15.009 142.175 14.813 142.571 14.5517 142.898C14.2997 143.225 13.9917 143.477 13.6277 143.654C13.2637 143.831 12.8577 143.92 12.4097 143.92C11.4297 143.92 10.725 143.472 10.2957 142.576H10.2397V146.552H9.11969V136.528ZM12.1017 142.912C12.7364 142.912 13.2357 142.716 13.5997 142.324C13.9637 141.923 14.1457 141.4 14.1457 140.756V139.524C14.1457 138.88 13.9637 138.362 13.5997 137.97C13.2357 137.569 12.7364 137.368 12.1017 137.368C11.8497 137.368 11.607 137.405 11.3737 137.48C11.1497 137.545 10.9537 137.639 10.7857 137.76C10.6177 137.881 10.4824 138.031 10.3797 138.208C10.2864 138.376 10.2397 138.558 10.2397 138.754V141.442C10.2397 141.675 10.2864 141.885 10.3797 142.072C10.4824 142.249 10.6177 142.403 10.7857 142.534C10.9537 142.655 11.1497 142.749 11.3737 142.814C11.607 142.879 11.8497 142.912 12.1017 142.912ZM19.9708 143.92C19.4854 143.92 19.0421 143.831 18.6408 143.654C18.2394 143.477 17.8941 143.225 17.6048 142.898C17.3248 142.562 17.1054 142.165 16.9468 141.708C16.7881 141.241 16.7088 140.719 16.7088 140.14C16.7088 139.571 16.7881 139.053 16.9468 138.586C17.1054 138.119 17.3248 137.723 17.6048 137.396C17.8941 137.06 18.2394 136.803 18.6408 136.626C19.0421 136.449 19.4854 136.36 19.9708 136.36C20.4561 136.36 20.8948 136.449 21.2868 136.626C21.6881 136.803 22.0334 137.06 22.3228 137.396C22.6121 137.723 22.8361 138.119 22.9948 138.586C23.1534 139.053 23.2328 139.571 23.2328 140.14C23.2328 140.719 23.1534 141.241 22.9948 141.708C22.8361 142.165 22.6121 142.562 22.3228 142.898C22.0334 143.225 21.6881 143.477 21.2868 143.654C20.8948 143.831 20.4561 143.92 19.9708 143.92ZM19.9708 142.926C20.5774 142.926 21.0721 142.739 21.4548 142.366C21.8374 141.993 22.0288 141.423 22.0288 140.658V139.622C22.0288 138.857 21.8374 138.287 21.4548 137.914C21.0721 137.541 20.5774 137.354 19.9708 137.354C19.3641 137.354 18.8694 137.541 18.4868 137.914C18.1041 138.287 17.9128 138.857 17.9128 139.622V140.658C17.9128 141.423 18.1041 141.993 18.4868 142.366C18.8694 142.739 19.3641 142.926 19.9708 142.926ZM25.6348 134.834C25.3921 134.834 25.2148 134.778 25.1028 134.666C25.0001 134.545 24.9488 134.391 24.9488 134.204V134.022C24.9488 133.835 25.0001 133.686 25.1028 133.574C25.2148 133.453 25.3921 133.392 25.6348 133.392C25.8774 133.392 26.0501 133.453 26.1528 133.574C26.2648 133.686 26.3208 133.835 26.3208 134.022V134.204C26.3208 134.391 26.2648 134.545 26.1528 134.666C26.0501 134.778 25.8774 134.834 25.6348 134.834ZM25.0748 136.528H26.1948V143.752H25.0748V136.528ZM28.5748 143.752V136.528H29.6948V137.704H29.7508C29.9281 137.293 30.1754 136.967 30.4928 136.724C30.8194 136.481 31.2534 136.36 31.7948 136.36C32.5414 136.36 33.1294 136.603 33.5588 137.088C33.9974 137.564 34.2168 138.241 34.2168 139.118V143.752H33.0968V139.314C33.0968 138.017 32.5508 137.368 31.4588 137.368C31.2348 137.368 31.0154 137.396 30.8008 137.452C30.5954 137.508 30.4088 137.592 30.2408 137.704C30.0728 137.816 29.9374 137.961 29.8348 138.138C29.7414 138.306 29.6948 138.507 29.6948 138.74V143.752H28.5748ZM38.1278 143.752C37.7358 143.752 37.4371 143.645 37.2318 143.43C37.0358 143.206 36.9378 142.917 36.9378 142.562V137.508H35.7478V136.528H36.4198C36.6625 136.528 36.8258 136.481 36.9098 136.388C37.0031 136.285 37.0498 136.113 37.0498 135.87V134.526H38.0578V136.528H39.6398V137.508H38.0578V142.772H39.5278V143.752H38.1278ZM47.4786 143.92C46.9933 143.92 46.5499 143.831 46.1486 143.654C45.7473 143.477 45.4019 143.225 45.1126 142.898C44.8326 142.562 44.6133 142.165 44.4546 141.708C44.2959 141.241 44.2166 140.719 44.2166 140.14C44.2166 139.571 44.2959 139.053 44.4546 138.586C44.6133 138.119 44.8326 137.723 45.1126 137.396C45.4019 137.06 45.7473 136.803 46.1486 136.626C46.5499 136.449 46.9933 136.36 47.4786 136.36C47.9639 136.36 48.4026 136.449 48.7946 136.626C49.1959 136.803 49.5413 137.06 49.8306 137.396C50.1199 137.723 50.3439 138.119 50.5026 138.586C50.6613 139.053 50.7406 139.571 50.7406 140.14C50.7406 140.719 50.6613 141.241 50.5026 141.708C50.3439 142.165 50.1199 142.562 49.8306 142.898C49.5413 143.225 49.1959 143.477 48.7946 143.654C48.4026 143.831 47.9639 143.92 47.4786 143.92ZM47.4786 142.926C48.0853 142.926 48.5799 142.739 48.9626 142.366C49.3453 141.993 49.5366 141.423 49.5366 140.658V139.622C49.5366 138.857 49.3453 138.287 48.9626 137.914C48.5799 137.541 48.0853 137.354 47.4786 137.354C46.8719 137.354 46.3773 137.541 45.9946 137.914C45.6119 138.287 45.4206 138.857 45.4206 139.622V140.658C45.4206 141.423 45.6119 141.993 45.9946 142.366C46.3773 142.739 46.8719 142.926 47.4786 142.926ZM52.8925 137.508H51.7165V136.528H52.8925V135.072C52.8925 134.568 53.0232 134.162 53.2845 133.854C53.5459 133.546 53.9425 133.392 54.4745 133.392H55.5665V134.372H54.0125V136.528H55.5665V137.508H54.0125V143.752H52.8925V137.508ZM61.9442 143.752C61.5522 143.752 61.2535 143.645 61.0482 143.43C60.8522 143.206 60.7542 142.917 60.7542 142.562V137.508H59.5642V136.528H60.2362C60.4789 136.528 60.6422 136.481 60.7262 136.388C60.8195 136.285 60.8662 136.113 60.8662 135.87V134.526H61.8742V136.528H63.4562V137.508H61.8742V142.772H63.3442V143.752H61.9442ZM65.2564 133.392H66.3764V137.704H66.4324C66.6097 137.293 66.8571 136.967 67.1744 136.724C67.5011 136.481 67.9351 136.36 68.4764 136.36C69.2231 136.36 69.8111 136.603 70.2404 137.088C70.6791 137.564 70.8984 138.241 70.8984 139.118V143.752H69.7784V139.314C69.7784 138.017 69.2324 137.368 68.1404 137.368C67.9164 137.368 67.6971 137.396 67.4824 137.452C67.2771 137.508 67.0904 137.592 66.9224 137.704C66.7544 137.816 66.6191 137.961 66.5164 138.138C66.4231 138.306 66.3764 138.507 66.3764 138.74V143.752H65.2564V133.392ZM75.9294 143.92C75.4348 143.92 74.9868 143.831 74.5854 143.654C74.1934 143.477 73.8528 143.225 73.5634 142.898C73.2834 142.562 73.0641 142.165 72.9054 141.708C72.7561 141.241 72.6814 140.719 72.6814 140.14C72.6814 139.571 72.7561 139.053 72.9054 138.586C73.0641 138.119 73.2834 137.723 73.5634 137.396C73.8528 137.06 74.1934 136.803 74.5854 136.626C74.9868 136.449 75.4348 136.36 75.9294 136.36C76.4148 136.36 76.8488 136.449 77.2314 136.626C77.6141 136.803 77.9408 137.051 78.2114 137.368C78.4821 137.676 78.6874 138.045 78.8274 138.474C78.9768 138.903 79.0514 139.375 79.0514 139.888V140.42H73.8574V140.756C73.8574 141.064 73.9041 141.353 73.9974 141.624C74.1001 141.885 74.2401 142.114 74.4174 142.31C74.6041 142.506 74.8281 142.66 75.0894 142.772C75.3601 142.884 75.6634 142.94 75.9994 142.94C76.4568 142.94 76.8534 142.833 77.1894 142.618C77.5348 142.403 77.8008 142.095 77.9874 141.694L78.7854 142.268C78.5521 142.763 78.1881 143.164 77.6934 143.472C77.1988 143.771 76.6108 143.92 75.9294 143.92ZM75.9294 137.298C75.6214 137.298 75.3414 137.354 75.0894 137.466C74.8374 137.569 74.6181 137.718 74.4314 137.914C74.2541 138.11 74.1141 138.343 74.0114 138.614C73.9088 138.875 73.8574 139.165 73.8574 139.482V139.58H77.8474V139.426C77.8474 138.782 77.6701 138.269 77.3154 137.886C76.9701 137.494 76.5081 137.298 75.9294 137.298ZM84.2056 136.528H85.3256V137.704H85.3816C85.5683 137.247 85.839 136.911 86.1936 136.696C86.5576 136.472 86.9916 136.36 87.4956 136.36C87.9436 136.36 88.3496 136.449 88.7136 136.626C89.0776 136.803 89.3856 137.055 89.6376 137.382C89.899 137.709 90.095 138.105 90.2256 138.572C90.3656 139.039 90.4356 139.561 90.4356 140.14C90.4356 140.719 90.3656 141.241 90.2256 141.708C90.095 142.175 89.899 142.571 89.6376 142.898C89.3856 143.225 89.0776 143.477 88.7136 143.654C88.3496 143.831 87.9436 143.92 87.4956 143.92C86.5156 143.92 85.811 143.472 85.3816 142.576H85.3256V146.552H84.2056V136.528ZM87.1876 142.912C87.8223 142.912 88.3216 142.716 88.6856 142.324C89.0496 141.923 89.2316 141.4 89.2316 140.756V139.524C89.2316 138.88 89.0496 138.362 88.6856 137.97C88.3216 137.569 87.8223 137.368 87.1876 137.368C86.9356 137.368 86.693 137.405 86.4596 137.48C86.2356 137.545 86.0396 137.639 85.8716 137.76C85.7036 137.881 85.5683 138.031 85.4656 138.208C85.3723 138.376 85.3256 138.558 85.3256 138.754V141.442C85.3256 141.675 85.3723 141.885 85.4656 142.072C85.5683 142.249 85.7036 142.403 85.8716 142.534C86.0396 142.655 86.2356 142.749 86.4596 142.814C86.693 142.879 86.9356 142.912 87.1876 142.912ZM92.3267 143.752V136.528H93.4467V137.858H93.5167C93.6474 137.513 93.8807 137.205 94.2167 136.934C94.5527 136.663 95.0147 136.528 95.6027 136.528H96.0367V137.648H95.3787C94.7721 137.648 94.2961 137.765 93.9507 137.998C93.6147 138.222 93.4467 138.507 93.4467 138.852V143.752H92.3267ZM100.129 143.92C99.6437 143.92 99.2003 143.831 98.799 143.654C98.3977 143.477 98.0523 143.225 97.763 142.898C97.483 142.562 97.2637 142.165 97.105 141.708C96.9463 141.241 96.867 140.719 96.867 140.14C96.867 139.571 96.9463 139.053 97.105 138.586C97.2637 138.119 97.483 137.723 97.763 137.396C98.0523 137.06 98.3977 136.803 98.799 136.626C99.2003 136.449 99.6437 136.36 100.129 136.36C100.614 136.36 101.053 136.449 101.445 136.626C101.846 136.803 102.192 137.06 102.481 137.396C102.77 137.723 102.994 138.119 103.153 138.586C103.312 139.053 103.391 139.571 103.391 140.14C103.391 140.719 103.312 141.241 103.153 141.708C102.994 142.165 102.77 142.562 102.481 142.898C102.192 143.225 101.846 143.477 101.445 143.654C101.053 143.831 100.614 143.92 100.129 143.92ZM100.129 142.926C100.736 142.926 101.23 142.739 101.613 142.366C101.996 141.993 102.187 141.423 102.187 140.658V139.622C102.187 138.857 101.996 138.287 101.613 137.914C101.23 137.541 100.736 137.354 100.129 137.354C99.5223 137.354 99.0277 137.541 98.645 137.914C98.2623 138.287 98.071 138.857 98.071 139.622V140.658C98.071 141.423 98.2623 141.993 98.645 142.366C99.0277 142.739 99.5223 142.926 100.129 142.926ZM109.853 142.576H109.797C109.358 143.472 108.654 143.92 107.683 143.92C107.235 143.92 106.829 143.831 106.465 143.654C106.101 143.477 105.788 143.225 105.527 142.898C105.275 142.571 105.079 142.175 104.939 141.708C104.808 141.241 104.743 140.719 104.743 140.14C104.743 139.561 104.808 139.039 104.939 138.572C105.079 138.105 105.275 137.709 105.527 137.382C105.788 137.055 106.101 136.803 106.465 136.626C106.829 136.449 107.235 136.36 107.683 136.36C108.187 136.36 108.616 136.472 108.971 136.696C109.335 136.911 109.61 137.247 109.797 137.704H109.853V133.392H110.973V143.752H109.853V142.576ZM107.991 142.912C108.243 142.912 108.481 142.879 108.705 142.814C108.938 142.749 109.139 142.655 109.307 142.534C109.475 142.403 109.606 142.249 109.699 142.072C109.802 141.885 109.853 141.675 109.853 141.442V138.754C109.853 138.558 109.802 138.376 109.699 138.208C109.606 138.031 109.475 137.881 109.307 137.76C109.139 137.639 108.938 137.545 108.705 137.48C108.481 137.405 108.243 137.368 107.991 137.368C107.356 137.368 106.857 137.569 106.493 137.97C106.129 138.362 105.947 138.88 105.947 139.524V140.756C105.947 141.4 106.129 141.923 106.493 142.324C106.857 142.716 107.356 142.912 107.991 142.912ZM117.806 142.576H117.75C117.675 142.744 117.582 142.912 117.47 143.08C117.367 143.239 117.237 143.383 117.078 143.514C116.919 143.635 116.728 143.733 116.504 143.808C116.28 143.883 116.019 143.92 115.72 143.92C114.973 143.92 114.381 143.682 113.942 143.206C113.503 142.721 113.284 142.039 113.284 141.162V136.528H114.404V140.966C114.404 142.263 114.955 142.912 116.056 142.912C116.28 142.912 116.495 142.884 116.7 142.828C116.915 142.772 117.101 142.688 117.26 142.576C117.428 142.464 117.559 142.324 117.652 142.156C117.755 141.979 117.806 141.769 117.806 141.526V136.528H118.926V143.752H117.806V142.576ZM123.999 143.92C123.495 143.92 123.042 143.831 122.641 143.654C122.24 143.477 121.899 143.225 121.619 142.898C121.348 142.571 121.138 142.175 120.989 141.708C120.849 141.241 120.779 140.719 120.779 140.14C120.779 139.561 120.849 139.039 120.989 138.572C121.138 138.105 121.348 137.709 121.619 137.382C121.899 137.055 122.24 136.803 122.641 136.626C123.042 136.449 123.495 136.36 123.999 136.36C124.718 136.36 125.292 136.519 125.721 136.836C126.16 137.144 126.486 137.55 126.701 138.054L125.763 138.53C125.632 138.157 125.418 137.867 125.119 137.662C124.82 137.457 124.447 137.354 123.999 137.354C123.663 137.354 123.369 137.41 123.117 137.522C122.865 137.625 122.655 137.774 122.487 137.97C122.319 138.157 122.193 138.385 122.109 138.656C122.025 138.917 121.983 139.207 121.983 139.524V140.756C121.983 141.391 122.151 141.913 122.487 142.324C122.832 142.725 123.336 142.926 123.999 142.926C124.904 142.926 125.558 142.506 125.959 141.666L126.771 142.212C126.538 142.735 126.188 143.15 125.721 143.458C125.264 143.766 124.69 143.92 123.999 143.92ZM129.948 143.752C129.556 143.752 129.257 143.645 129.052 143.43C128.856 143.206 128.758 142.917 128.758 142.562V137.508H127.568V136.528H128.24C128.483 136.528 128.646 136.481 128.73 136.388C128.823 136.285 128.87 136.113 128.87 135.87V134.526H129.878V136.528H131.46V137.508H129.878V142.772H131.348V143.752H129.948Z" fill="#27272A"/>
</svg>
