<svg width="602" height="148" viewBox="0 0 602 148" fill="none" xmlns="http://www.w3.org/2000/svg">
<circle cx="52" cy="36.752" r="36" fill="#14B8A6"/>
<path d="M28.8089 102.752V100.826H32.2649V91.898H32.1029L29.3669 95.138L27.8909 93.896L31.0049 90.188H34.5869V100.826H37.4669V102.752H28.8089ZM43.3639 102.968C42.5599 102.968 41.8639 102.824 41.2759 102.536C40.6879 102.236 40.2019 101.81 39.8179 101.258C39.4339 100.706 39.1459 100.028 38.9539 99.224C38.7739 98.42 38.6839 97.502 38.6839 96.47C38.6839 95.45 38.7739 94.538 38.9539 93.734C39.1459 92.918 39.4339 92.234 39.8179 91.682C40.2019 91.13 40.6879 90.71 41.2759 90.422C41.8639 90.122 42.5599 89.972 43.3639 89.972C44.9599 89.972 46.1359 90.542 46.8919 91.682C47.6599 92.822 48.0439 94.418 48.0439 96.47C48.0439 98.522 47.6599 100.118 46.8919 101.258C46.1359 102.398 44.9599 102.968 43.3639 102.968ZM43.3639 100.97C44.1679 100.97 44.7259 100.67 45.0379 100.07C45.3619 99.458 45.5239 98.636 45.5239 97.604V95.336C45.5239 94.304 45.3619 93.488 45.0379 92.888C44.7259 92.276 44.1679 91.97 43.3639 91.97C42.5599 91.97 41.9959 92.276 41.6719 92.888C41.3599 93.488 41.2039 94.304 41.2039 95.336V97.604C41.2039 98.636 41.3599 99.458 41.6719 100.07C41.9959 100.67 42.5599 100.97 43.3639 100.97ZM54.1568 102.968C53.3528 102.968 52.6568 102.824 52.0688 102.536C51.4808 102.236 50.9948 101.81 50.6108 101.258C50.2268 100.706 49.9388 100.028 49.7468 99.224C49.5668 98.42 49.4768 97.502 49.4768 96.47C49.4768 95.45 49.5668 94.538 49.7468 93.734C49.9388 92.918 50.2268 92.234 50.6108 91.682C50.9948 91.13 51.4808 90.71 52.0688 90.422C52.6568 90.122 53.3528 89.972 54.1568 89.972C55.7528 89.972 56.9288 90.542 57.6848 91.682C58.4528 92.822 58.8368 94.418 58.8368 96.47C58.8368 98.522 58.4528 100.118 57.6848 101.258C56.9288 102.398 55.7528 102.968 54.1568 102.968ZM54.1568 100.97C54.9608 100.97 55.5188 100.67 55.8308 100.07C56.1548 99.458 56.3168 98.636 56.3168 97.604V95.336C56.3168 94.304 56.1548 93.488 55.8308 92.888C55.5188 92.276 54.9608 91.97 54.1568 91.97C53.3528 91.97 52.7888 92.276 52.4648 92.888C52.1528 93.488 51.9968 94.304 51.9968 95.336V97.604C51.9968 98.636 52.1528 99.458 52.4648 100.07C52.7888 100.67 53.3528 100.97 54.1568 100.97ZM62.7898 102.752L71.5018 90.188H73.5898L64.8778 102.752H62.7898ZM63.6538 97.1C62.6338 97.1 61.8538 96.8 61.3138 96.2C60.7858 95.588 60.5218 94.7 60.5218 93.536C60.5218 92.372 60.7858 91.49 61.3138 90.89C61.8538 90.278 62.6338 89.972 63.6538 89.972C64.6738 89.972 65.4478 90.278 65.9758 90.89C66.5038 91.49 66.7678 92.372 66.7678 93.536C66.7678 94.7 66.5038 95.588 65.9758 96.2C65.4478 96.8 64.6738 97.1 63.6538 97.1ZM63.6538 95.732C64.3978 95.732 64.7698 95.162 64.7698 94.022V93.05C64.7698 91.91 64.3978 91.34 63.6538 91.34C62.9098 91.34 62.5378 91.91 62.5378 93.05V94.022C62.5378 95.162 62.9098 95.732 63.6538 95.732ZM72.7258 102.968C71.7178 102.968 70.9438 102.668 70.4038 102.068C69.8758 101.456 69.6118 100.568 69.6118 99.404C69.6118 98.24 69.8758 97.358 70.4038 96.758C70.9438 96.146 71.7178 95.84 72.7258 95.84C73.7458 95.84 74.5198 96.146 75.0478 96.758C75.5878 97.358 75.8578 98.24 75.8578 99.404C75.8578 100.568 75.5878 101.456 75.0478 102.068C74.5198 102.668 73.7458 102.968 72.7258 102.968ZM72.7258 101.6C73.4698 101.6 73.8418 101.03 73.8418 99.89V98.918C73.8418 97.778 73.4698 97.208 72.7258 97.208C71.9818 97.208 71.6098 97.778 71.6098 98.918V99.89C71.6098 101.03 71.9818 101.6 72.7258 101.6Z" fill="#27272A"/>
<path d="M2.786 125.752C2.394 125.752 2.09533 125.645 1.89 125.43C1.694 125.206 1.596 124.917 1.596 124.562V119.508H0.406V118.528H1.078C1.32067 118.528 1.484 118.481 1.568 118.388C1.66133 118.285 1.708 118.113 1.708 117.87V116.526H2.716V118.528H4.298V119.508H2.716V124.772H4.186V125.752H2.786ZM11.3482 125.752C10.9282 125.752 10.6249 125.64 10.4382 125.416C10.2609 125.192 10.1489 124.912 10.1022 124.576H10.0322C9.87354 125.024 9.6122 125.36 9.2482 125.584C8.8842 125.808 8.4502 125.92 7.9462 125.92C7.18087 125.92 6.58354 125.724 6.1542 125.332C5.7342 124.94 5.5242 124.408 5.5242 123.736C5.5242 123.055 5.77154 122.532 6.2662 122.168C6.7702 121.804 7.54954 121.622 8.6042 121.622H10.0322V120.908C10.0322 120.395 9.8922 120.003 9.6122 119.732C9.3322 119.461 8.90287 119.326 8.3242 119.326C7.88554 119.326 7.51687 119.424 7.2182 119.62C6.92887 119.816 6.6862 120.077 6.4902 120.404L5.8182 119.774C6.0142 119.382 6.32687 119.051 6.7562 118.78C7.18554 118.5 7.72687 118.36 8.3802 118.36C9.25754 118.36 9.93887 118.575 10.4242 119.004C10.9095 119.433 11.1522 120.031 11.1522 120.796V124.772H11.9782V125.752H11.3482ZM8.1282 124.968C8.4082 124.968 8.66487 124.935 8.8982 124.87C9.13154 124.805 9.3322 124.711 9.5002 124.59C9.6682 124.469 9.79887 124.329 9.8922 124.17C9.98554 124.011 10.0322 123.839 10.0322 123.652V122.462H8.5482C7.9042 122.462 7.43287 122.555 7.1342 122.742C6.84487 122.929 6.7002 123.199 6.7002 123.554V123.848C6.7002 124.203 6.8262 124.478 7.0782 124.674C7.33954 124.87 7.68954 124.968 8.1282 124.968ZM15.7467 125.92C15.0747 125.92 14.5101 125.794 14.0527 125.542C13.6047 125.281 13.2174 124.935 12.8907 124.506L13.6887 123.862C13.9687 124.217 14.2814 124.492 14.6267 124.688C14.9721 124.875 15.3734 124.968 15.8307 124.968C16.3067 124.968 16.6754 124.865 16.9367 124.66C17.2074 124.455 17.3427 124.165 17.3427 123.792C17.3427 123.512 17.2494 123.274 17.0627 123.078C16.8854 122.873 16.5587 122.733 16.0827 122.658L15.5087 122.574C15.1727 122.527 14.8647 122.457 14.5847 122.364C14.3047 122.261 14.0574 122.131 13.8427 121.972C13.6374 121.804 13.4741 121.599 13.3527 121.356C13.2407 121.113 13.1847 120.824 13.1847 120.488C13.1847 120.133 13.2501 119.825 13.3807 119.564C13.5114 119.293 13.6887 119.069 13.9127 118.892C14.1461 118.715 14.4214 118.584 14.7387 118.5C15.0561 118.407 15.3967 118.36 15.7607 118.36C16.3487 118.36 16.8387 118.463 17.2307 118.668C17.6321 118.873 17.9821 119.158 18.2807 119.522L17.5387 120.194C17.3801 119.97 17.1467 119.769 16.8387 119.592C16.5307 119.405 16.1434 119.312 15.6767 119.312C15.2101 119.312 14.8554 119.415 14.6127 119.62C14.3794 119.816 14.2627 120.087 14.2627 120.432C14.2627 120.787 14.3794 121.043 14.6127 121.202C14.8554 121.361 15.2007 121.477 15.6487 121.552L16.2087 121.636C17.0114 121.757 17.5807 121.991 17.9167 122.336C18.2527 122.672 18.4207 123.115 18.4207 123.666C18.4207 124.366 18.1827 124.917 17.7067 125.318C17.2307 125.719 16.5774 125.92 15.7467 125.92ZM20.399 115.392H21.519V121.958H21.575L22.681 120.726L24.725 118.528H26.083L23.409 121.384L26.349 125.752H24.991L22.597 122.07L21.519 123.176V125.752H20.399V115.392ZM29.8151 125.92C29.1431 125.92 28.5784 125.794 28.1211 125.542C27.6731 125.281 27.2857 124.935 26.9591 124.506L27.7571 123.862C28.0371 124.217 28.3497 124.492 28.6951 124.688C29.0404 124.875 29.4417 124.968 29.8991 124.968C30.3751 124.968 30.7437 124.865 31.0051 124.66C31.2757 124.455 31.4111 124.165 31.4111 123.792C31.4111 123.512 31.3177 123.274 31.1311 123.078C30.9537 122.873 30.6271 122.733 30.1511 122.658L29.5771 122.574C29.2411 122.527 28.9331 122.457 28.6531 122.364C28.3731 122.261 28.1257 122.131 27.9111 121.972C27.7057 121.804 27.5424 121.599 27.4211 121.356C27.3091 121.113 27.2531 120.824 27.2531 120.488C27.2531 120.133 27.3184 119.825 27.4491 119.564C27.5797 119.293 27.7571 119.069 27.9811 118.892C28.2144 118.715 28.4897 118.584 28.8071 118.5C29.1244 118.407 29.4651 118.36 29.8291 118.36C30.4171 118.36 30.9071 118.463 31.2991 118.668C31.7004 118.873 32.0504 119.158 32.3491 119.522L31.6071 120.194C31.4484 119.97 31.2151 119.769 30.9071 119.592C30.5991 119.405 30.2117 119.312 29.7451 119.312C29.2784 119.312 28.9237 119.415 28.6811 119.62C28.4477 119.816 28.3311 120.087 28.3311 120.432C28.3311 120.787 28.4477 121.043 28.6811 121.202C28.9237 121.361 29.2691 121.477 29.7171 121.552L30.2771 121.636C31.0797 121.757 31.6491 121.991 31.9851 122.336C32.3211 122.672 32.4891 123.115 32.4891 123.666C32.4891 124.366 32.2511 124.917 31.7751 125.318C31.2991 125.719 30.6457 125.92 29.8151 125.92ZM40.4639 125.92C39.9599 125.92 39.5073 125.831 39.1059 125.654C38.7046 125.477 38.3639 125.225 38.0839 124.898C37.8133 124.571 37.6033 124.175 37.4539 123.708C37.3139 123.241 37.2439 122.719 37.2439 122.14C37.2439 121.561 37.3139 121.039 37.4539 120.572C37.6033 120.105 37.8133 119.709 38.0839 119.382C38.3639 119.055 38.7046 118.803 39.1059 118.626C39.5073 118.449 39.9599 118.36 40.4639 118.36C41.1826 118.36 41.7566 118.519 42.1859 118.836C42.6246 119.144 42.9513 119.55 43.1659 120.054L42.2279 120.53C42.0973 120.157 41.8826 119.867 41.5839 119.662C41.2853 119.457 40.9119 119.354 40.4639 119.354C40.1279 119.354 39.8339 119.41 39.5819 119.522C39.3299 119.625 39.1199 119.774 38.9519 119.97C38.7839 120.157 38.6579 120.385 38.5739 120.656C38.4899 120.917 38.4479 121.207 38.4479 121.524V122.756C38.4479 123.391 38.6159 123.913 38.9519 124.324C39.2973 124.725 39.8013 124.926 40.4639 124.926C41.3693 124.926 42.0226 124.506 42.4239 123.666L43.2359 124.212C43.0026 124.735 42.6526 125.15 42.1859 125.458C41.7286 125.766 41.1546 125.92 40.4639 125.92ZM47.4649 125.92C46.9796 125.92 46.5363 125.831 46.1349 125.654C45.7336 125.477 45.3883 125.225 45.0989 124.898C44.8189 124.562 44.5996 124.165 44.4409 123.708C44.2823 123.241 44.2029 122.719 44.2029 122.14C44.2029 121.571 44.2823 121.053 44.4409 120.586C44.5996 120.119 44.8189 119.723 45.0989 119.396C45.3883 119.06 45.7336 118.803 46.1349 118.626C46.5363 118.449 46.9796 118.36 47.4649 118.36C47.9503 118.36 48.3889 118.449 48.7809 118.626C49.1823 118.803 49.5276 119.06 49.8169 119.396C50.1063 119.723 50.3303 120.119 50.4889 120.586C50.6476 121.053 50.7269 121.571 50.7269 122.14C50.7269 122.719 50.6476 123.241 50.4889 123.708C50.3303 124.165 50.1063 124.562 49.8169 124.898C49.5276 125.225 49.1823 125.477 48.7809 125.654C48.3889 125.831 47.9503 125.92 47.4649 125.92ZM47.4649 124.926C48.0716 124.926 48.5663 124.739 48.9489 124.366C49.3316 123.993 49.5229 123.423 49.5229 122.658V121.622C49.5229 120.857 49.3316 120.287 48.9489 119.914C48.5663 119.541 48.0716 119.354 47.4649 119.354C46.8583 119.354 46.3636 119.541 45.9809 119.914C45.5983 120.287 45.4069 120.857 45.4069 121.622V122.658C45.4069 123.423 45.5983 123.993 45.9809 124.366C46.3636 124.739 46.8583 124.926 47.4649 124.926ZM52.5689 125.752V118.528H53.6889V119.704H53.7449C53.8289 119.517 53.9222 119.345 54.0249 119.186C54.1369 119.018 54.2676 118.873 54.4169 118.752C54.5756 118.631 54.7576 118.537 54.9629 118.472C55.1682 118.397 55.4109 118.36 55.6909 118.36C56.1669 118.36 56.6056 118.477 57.0069 118.71C57.4082 118.934 57.7069 119.307 57.9029 119.83H57.9309C58.0616 119.438 58.3042 119.097 58.6589 118.808C59.0229 118.509 59.5129 118.36 60.1289 118.36C60.8662 118.36 61.4402 118.603 61.8509 119.088C62.2709 119.564 62.4809 120.241 62.4809 121.118V125.752H61.3609V121.314C61.3609 120.67 61.2349 120.185 60.9829 119.858C60.7309 119.531 60.3296 119.368 59.7789 119.368C59.5549 119.368 59.3402 119.396 59.1349 119.452C58.9389 119.508 58.7616 119.592 58.6029 119.704C58.4442 119.816 58.3182 119.961 58.2249 120.138C58.1316 120.306 58.0849 120.507 58.0849 120.74V125.752H56.9649V121.314C56.9649 120.67 56.8389 120.185 56.5869 119.858C56.3349 119.531 55.9429 119.368 55.4109 119.368C55.1869 119.368 54.9722 119.396 54.7669 119.452C54.5616 119.508 54.3796 119.592 54.2209 119.704C54.0622 119.816 53.9316 119.961 53.8289 120.138C53.7356 120.306 53.6889 120.507 53.6889 120.74V125.752H52.5689ZM64.7916 118.528H65.9116V119.704H65.9676C66.1542 119.247 66.4249 118.911 66.7796 118.696C67.1436 118.472 67.5776 118.36 68.0816 118.36C68.5296 118.36 68.9356 118.449 69.2996 118.626C69.6636 118.803 69.9716 119.055 70.2236 119.382C70.4849 119.709 70.6809 120.105 70.8116 120.572C70.9516 121.039 71.0216 121.561 71.0216 122.14C71.0216 122.719 70.9516 123.241 70.8116 123.708C70.6809 124.175 70.4849 124.571 70.2236 124.898C69.9716 125.225 69.6636 125.477 69.2996 125.654C68.9356 125.831 68.5296 125.92 68.0816 125.92C67.1016 125.92 66.3969 125.472 65.9676 124.576H65.9116V128.552H64.7916V118.528ZM67.7736 124.912C68.4082 124.912 68.9076 124.716 69.2716 124.324C69.6356 123.923 69.8176 123.4 69.8176 122.756V121.524C69.8176 120.88 69.6356 120.362 69.2716 119.97C68.9076 119.569 68.4082 119.368 67.7736 119.368C67.5216 119.368 67.2789 119.405 67.0456 119.48C66.8216 119.545 66.6256 119.639 66.4576 119.76C66.2896 119.881 66.1542 120.031 66.0516 120.208C65.9582 120.376 65.9116 120.558 65.9116 120.754V123.442C65.9116 123.675 65.9582 123.885 66.0516 124.072C66.1542 124.249 66.2896 124.403 66.4576 124.534C66.6256 124.655 66.8216 124.749 67.0456 124.814C67.2789 124.879 67.5216 124.912 67.7736 124.912ZM74.1027 125.752C73.7107 125.752 73.412 125.645 73.2067 125.43C73.0107 125.206 72.9127 124.926 72.9127 124.59V115.392H74.0327V124.772H75.0967V125.752H74.1027ZM79.4431 125.92C78.9484 125.92 78.5004 125.831 78.0991 125.654C77.7071 125.477 77.3664 125.225 77.0771 124.898C76.7971 124.562 76.5778 124.165 76.4191 123.708C76.2698 123.241 76.1951 122.719 76.1951 122.14C76.1951 121.571 76.2698 121.053 76.4191 120.586C76.5778 120.119 76.7971 119.723 77.0771 119.396C77.3664 119.06 77.7071 118.803 78.0991 118.626C78.5004 118.449 78.9484 118.36 79.4431 118.36C79.9284 118.36 80.3624 118.449 80.7451 118.626C81.1278 118.803 81.4544 119.051 81.7251 119.368C81.9958 119.676 82.2011 120.045 82.3411 120.474C82.4904 120.903 82.5651 121.375 82.5651 121.888V122.42H77.3711V122.756C77.3711 123.064 77.4178 123.353 77.5111 123.624C77.6138 123.885 77.7538 124.114 77.9311 124.31C78.1178 124.506 78.3418 124.66 78.6031 124.772C78.8738 124.884 79.1771 124.94 79.5131 124.94C79.9704 124.94 80.3671 124.833 80.7031 124.618C81.0484 124.403 81.3144 124.095 81.5011 123.694L82.2991 124.268C82.0658 124.763 81.7018 125.164 81.2071 125.472C80.7124 125.771 80.1244 125.92 79.4431 125.92ZM79.4431 119.298C79.1351 119.298 78.8551 119.354 78.6031 119.466C78.3511 119.569 78.1318 119.718 77.9451 119.914C77.7678 120.11 77.6278 120.343 77.5251 120.614C77.4224 120.875 77.3711 121.165 77.3711 121.482V121.58H81.3611V121.426C81.3611 120.782 81.1838 120.269 80.8291 119.886C80.4838 119.494 80.0218 119.298 79.4431 119.298ZM86.0067 125.752C85.6147 125.752 85.316 125.645 85.1107 125.43C84.9147 125.206 84.8167 124.917 84.8167 124.562V119.508H83.6267V118.528H84.2987C84.5414 118.528 84.7047 118.481 84.7887 118.388C84.882 118.285 84.9287 118.113 84.9287 117.87V116.526H85.9367V118.528H87.5187V119.508H85.9367V124.772H87.4067V125.752H86.0067ZM91.9802 125.92C91.4856 125.92 91.0376 125.831 90.6362 125.654C90.2442 125.477 89.9036 125.225 89.6142 124.898C89.3342 124.562 89.1149 124.165 88.9562 123.708C88.8069 123.241 88.7322 122.719 88.7322 122.14C88.7322 121.571 88.8069 121.053 88.9562 120.586C89.1149 120.119 89.3342 119.723 89.6142 119.396C89.9036 119.06 90.2442 118.803 90.6362 118.626C91.0376 118.449 91.4856 118.36 91.9802 118.36C92.4656 118.36 92.8996 118.449 93.2822 118.626C93.6649 118.803 93.9916 119.051 94.2622 119.368C94.5329 119.676 94.7382 120.045 94.8782 120.474C95.0276 120.903 95.1022 121.375 95.1022 121.888V122.42H89.9082V122.756C89.9082 123.064 89.9549 123.353 90.0482 123.624C90.1509 123.885 90.2909 124.114 90.4682 124.31C90.6549 124.506 90.8789 124.66 91.1402 124.772C91.4109 124.884 91.7142 124.94 92.0502 124.94C92.5076 124.94 92.9042 124.833 93.2402 124.618C93.5856 124.403 93.8516 124.095 94.0382 123.694L94.8362 124.268C94.6029 124.763 94.2389 125.164 93.7442 125.472C93.2496 125.771 92.6616 125.92 91.9802 125.92ZM91.9802 119.298C91.6722 119.298 91.3922 119.354 91.1402 119.466C90.8882 119.569 90.6689 119.718 90.4822 119.914C90.3049 120.11 90.1649 120.343 90.0622 120.614C89.9596 120.875 89.9082 121.165 89.9082 121.482V121.58H93.8982V121.426C93.8982 120.782 93.7209 120.269 93.3662 119.886C93.0209 119.494 92.5589 119.298 91.9802 119.298ZM101.568 124.576H101.512C101.073 125.472 100.368 125.92 99.3978 125.92C98.9498 125.92 98.5438 125.831 98.1798 125.654C97.8158 125.477 97.5031 125.225 97.2418 124.898C96.9898 124.571 96.7938 124.175 96.6538 123.708C96.5231 123.241 96.4578 122.719 96.4578 122.14C96.4578 121.561 96.5231 121.039 96.6538 120.572C96.7938 120.105 96.9898 119.709 97.2418 119.382C97.5031 119.055 97.8158 118.803 98.1798 118.626C98.5438 118.449 98.9498 118.36 99.3978 118.36C99.9018 118.36 100.331 118.472 100.686 118.696C101.05 118.911 101.325 119.247 101.512 119.704H101.568V115.392H102.688V125.752H101.568V124.576ZM99.7058 124.912C99.9578 124.912 100.196 124.879 100.42 124.814C100.653 124.749 100.854 124.655 101.022 124.534C101.19 124.403 101.32 124.249 101.414 124.072C101.516 123.885 101.568 123.675 101.568 123.442V120.754C101.568 120.558 101.516 120.376 101.414 120.208C101.32 120.031 101.19 119.881 101.022 119.76C100.854 119.639 100.653 119.545 100.42 119.48C100.196 119.405 99.9578 119.368 99.7058 119.368C99.0711 119.368 98.5718 119.569 98.2078 119.97C97.8438 120.362 97.6618 120.88 97.6618 121.524V122.756C97.6618 123.4 97.8438 123.923 98.2078 124.324C98.5718 124.716 99.0711 124.912 99.7058 124.912Z" fill="#27272A"/>
<path d="M295.456 11.2961C301.93 17.7707 305.695 26.4692 305.982 35.6212C306.27 44.7732 303.059 53.6908 297.004 60.5592C290.949 67.4276 282.504 71.7305 273.388 72.5922C264.272 73.4539 255.17 70.8096 247.935 65.1975C240.7 59.5854 235.876 51.4273 234.443 42.3836C233.011 33.3398 235.078 24.0901 240.225 16.5169C245.372 8.94378 253.211 3.61636 262.147 1.61894C271.083 -0.378476 280.444 1.10422 288.326 5.76526L270 36.752L295.456 11.2961Z" fill="#14B8A6"/>
<path d="M260.485 94.904C260.485 95.804 260.347 96.656 260.071 97.46C259.807 98.252 259.459 98.984 259.027 99.656C258.595 100.316 258.109 100.91 257.569 101.438C257.041 101.954 256.513 102.392 255.985 102.752H252.781C253.513 102.224 254.173 101.714 254.761 101.222C255.349 100.73 255.859 100.232 256.291 99.728C256.735 99.224 257.095 98.702 257.371 98.162C257.659 97.61 257.875 97.016 258.019 96.38L257.875 96.344C257.755 96.584 257.611 96.818 257.443 97.046C257.287 97.274 257.095 97.472 256.867 97.64C256.639 97.808 256.375 97.946 256.075 98.054C255.775 98.15 255.427 98.198 255.031 98.198C254.503 98.198 254.017 98.108 253.573 97.928C253.129 97.748 252.739 97.49 252.403 97.154C252.079 96.806 251.821 96.398 251.629 95.93C251.449 95.45 251.359 94.91 251.359 94.31C251.359 93.674 251.467 93.092 251.683 92.564C251.899 92.036 252.205 91.58 252.601 91.196C252.997 90.812 253.471 90.512 254.023 90.296C254.587 90.08 255.217 89.972 255.913 89.972C256.633 89.972 257.275 90.092 257.839 90.332C258.403 90.56 258.883 90.89 259.279 91.322C259.675 91.742 259.975 92.258 260.179 92.87C260.383 93.47 260.485 94.148 260.485 94.904ZM255.913 96.362C256.585 96.362 257.107 96.182 257.479 95.822C257.851 95.45 258.037 94.922 258.037 94.238V93.968C258.037 93.284 257.851 92.762 257.479 92.402C257.107 92.03 256.585 91.844 255.913 91.844C255.253 91.844 254.731 92.03 254.347 92.402C253.975 92.762 253.789 93.284 253.789 93.968V94.238C253.789 94.922 253.975 95.45 254.347 95.822C254.731 96.182 255.253 96.362 255.913 96.362ZM266.814 102.968C266.094 102.968 265.452 102.854 264.888 102.626C264.324 102.386 263.844 102.056 263.448 101.636C263.052 101.204 262.752 100.688 262.548 100.088C262.344 99.476 262.242 98.792 262.242 98.036C262.242 97.136 262.374 96.29 262.638 95.498C262.914 94.694 263.268 93.962 263.7 93.302C264.132 92.63 264.612 92.036 265.14 91.52C265.68 90.992 266.214 90.548 266.742 90.188H269.946C269.202 90.716 268.536 91.226 267.948 91.718C267.372 92.21 266.862 92.708 266.418 93.212C265.986 93.716 265.626 94.244 265.338 94.796C265.062 95.336 264.852 95.924 264.708 96.56L264.852 96.596C264.972 96.356 265.11 96.128 265.266 95.912C265.434 95.684 265.632 95.486 265.86 95.318C266.088 95.138 266.352 95 266.652 94.904C266.952 94.796 267.3 94.742 267.696 94.742C268.212 94.742 268.692 94.832 269.136 95.012C269.592 95.192 269.982 95.456 270.306 95.804C270.642 96.14 270.9 96.548 271.08 97.028C271.272 97.508 271.368 98.042 271.368 98.63C271.368 99.266 271.26 99.848 271.044 100.376C270.828 100.904 270.522 101.36 270.126 101.744C269.73 102.128 269.25 102.428 268.686 102.644C268.134 102.86 267.51 102.968 266.814 102.968ZM266.814 101.096C267.474 101.096 267.99 100.916 268.362 100.556C268.746 100.184 268.938 99.656 268.938 98.972V98.702C268.938 98.018 268.746 97.496 268.362 97.136C267.99 96.764 267.474 96.578 266.814 96.578C266.142 96.578 265.62 96.764 265.248 97.136C264.876 97.496 264.69 98.018 264.69 98.702V98.972C264.69 99.656 264.876 100.184 265.248 100.556C265.62 100.916 266.142 101.096 266.814 101.096ZM275.393 102.752L284.105 90.188H286.193L277.481 102.752H275.393ZM276.257 97.1C275.237 97.1 274.457 96.8 273.917 96.2C273.389 95.588 273.125 94.7 273.125 93.536C273.125 92.372 273.389 91.49 273.917 90.89C274.457 90.278 275.237 89.972 276.257 89.972C277.277 89.972 278.051 90.278 278.579 90.89C279.107 91.49 279.371 92.372 279.371 93.536C279.371 94.7 279.107 95.588 278.579 96.2C278.051 96.8 277.277 97.1 276.257 97.1ZM276.257 95.732C277.001 95.732 277.373 95.162 277.373 94.022V93.05C277.373 91.91 277.001 91.34 276.257 91.34C275.513 91.34 275.141 91.91 275.141 93.05V94.022C275.141 95.162 275.513 95.732 276.257 95.732ZM285.329 102.968C284.321 102.968 283.547 102.668 283.007 102.068C282.479 101.456 282.215 100.568 282.215 99.404C282.215 98.24 282.479 97.358 283.007 96.758C283.547 96.146 284.321 95.84 285.329 95.84C286.349 95.84 287.123 96.146 287.651 96.758C288.191 97.358 288.461 98.24 288.461 99.404C288.461 100.568 288.191 101.456 287.651 102.068C287.123 102.668 286.349 102.968 285.329 102.968ZM285.329 101.6C286.073 101.6 286.445 101.03 286.445 99.89V98.918C286.445 97.778 286.073 97.208 285.329 97.208C284.585 97.208 284.213 97.778 284.213 98.918V99.89C284.213 101.03 284.585 101.6 285.329 101.6Z" fill="#27272A"/>
<path d="M205.587 125.92C205.083 125.92 204.63 125.831 204.229 125.654C203.828 125.477 203.487 125.225 203.207 124.898C202.936 124.571 202.726 124.175 202.577 123.708C202.437 123.241 202.367 122.719 202.367 122.14C202.367 121.561 202.437 121.039 202.577 120.572C202.726 120.105 202.936 119.709 203.207 119.382C203.487 119.055 203.828 118.803 204.229 118.626C204.63 118.449 205.083 118.36 205.587 118.36C206.306 118.36 206.88 118.519 207.309 118.836C207.748 119.144 208.074 119.55 208.289 120.054L207.351 120.53C207.22 120.157 207.006 119.867 206.707 119.662C206.408 119.457 206.035 119.354 205.587 119.354C205.251 119.354 204.957 119.41 204.705 119.522C204.453 119.625 204.243 119.774 204.075 119.97C203.907 120.157 203.781 120.385 203.697 120.656C203.613 120.917 203.571 121.207 203.571 121.524V122.756C203.571 123.391 203.739 123.913 204.075 124.324C204.42 124.725 204.924 124.926 205.587 124.926C206.492 124.926 207.146 124.506 207.547 123.666L208.359 124.212C208.126 124.735 207.776 125.15 207.309 125.458C206.852 125.766 206.278 125.92 205.587 125.92ZM212.588 125.92C212.103 125.92 211.659 125.831 211.258 125.654C210.857 125.477 210.511 125.225 210.222 124.898C209.942 124.562 209.723 124.165 209.564 123.708C209.405 123.241 209.326 122.719 209.326 122.14C209.326 121.571 209.405 121.053 209.564 120.586C209.723 120.119 209.942 119.723 210.222 119.396C210.511 119.06 210.857 118.803 211.258 118.626C211.659 118.449 212.103 118.36 212.588 118.36C213.073 118.36 213.512 118.449 213.904 118.626C214.305 118.803 214.651 119.06 214.94 119.396C215.229 119.723 215.453 120.119 215.612 120.586C215.771 121.053 215.85 121.571 215.85 122.14C215.85 122.719 215.771 123.241 215.612 123.708C215.453 124.165 215.229 124.562 214.94 124.898C214.651 125.225 214.305 125.477 213.904 125.654C213.512 125.831 213.073 125.92 212.588 125.92ZM212.588 124.926C213.195 124.926 213.689 124.739 214.072 124.366C214.455 123.993 214.646 123.423 214.646 122.658V121.622C214.646 120.857 214.455 120.287 214.072 119.914C213.689 119.541 213.195 119.354 212.588 119.354C211.981 119.354 211.487 119.541 211.104 119.914C210.721 120.287 210.53 120.857 210.53 121.622V122.658C210.53 123.423 210.721 123.993 211.104 124.366C211.487 124.739 211.981 124.926 212.588 124.926ZM217.692 125.752V118.528H218.812V119.858H218.882C219.013 119.513 219.246 119.205 219.582 118.934C219.918 118.663 220.38 118.528 220.968 118.528H221.402V119.648H220.744C220.137 119.648 219.661 119.765 219.316 119.998C218.98 120.222 218.812 120.507 218.812 120.852V125.752H217.692ZM222.833 125.752V118.528H223.953V119.858H224.023C224.153 119.513 224.387 119.205 224.723 118.934C225.059 118.663 225.521 118.528 226.109 118.528H226.543V119.648H225.885C225.278 119.648 224.802 119.765 224.457 119.998C224.121 120.222 223.953 120.507 223.953 120.852V125.752H222.833ZM230.621 125.92C230.126 125.92 229.678 125.831 229.277 125.654C228.885 125.477 228.544 125.225 228.255 124.898C227.975 124.562 227.756 124.165 227.597 123.708C227.448 123.241 227.373 122.719 227.373 122.14C227.373 121.571 227.448 121.053 227.597 120.586C227.756 120.119 227.975 119.723 228.255 119.396C228.544 119.06 228.885 118.803 229.277 118.626C229.678 118.449 230.126 118.36 230.621 118.36C231.106 118.36 231.54 118.449 231.923 118.626C232.306 118.803 232.632 119.051 232.903 119.368C233.174 119.676 233.379 120.045 233.519 120.474C233.668 120.903 233.743 121.375 233.743 121.888V122.42H228.549V122.756C228.549 123.064 228.596 123.353 228.689 123.624C228.792 123.885 228.932 124.114 229.109 124.31C229.296 124.506 229.52 124.66 229.781 124.772C230.052 124.884 230.355 124.94 230.691 124.94C231.148 124.94 231.545 124.833 231.881 124.618C232.226 124.403 232.492 124.095 232.679 123.694L233.477 124.268C233.244 124.763 232.88 125.164 232.385 125.472C231.89 125.771 231.302 125.92 230.621 125.92ZM230.621 119.298C230.313 119.298 230.033 119.354 229.781 119.466C229.529 119.569 229.31 119.718 229.123 119.914C228.946 120.11 228.806 120.343 228.703 120.614C228.6 120.875 228.549 121.165 228.549 121.482V121.58H232.539V121.426C232.539 120.782 232.362 120.269 232.007 119.886C231.662 119.494 231.2 119.298 230.621 119.298ZM238.276 125.92C237.772 125.92 237.32 125.831 236.918 125.654C236.517 125.477 236.176 125.225 235.896 124.898C235.626 124.571 235.416 124.175 235.266 123.708C235.126 123.241 235.056 122.719 235.056 122.14C235.056 121.561 235.126 121.039 235.266 120.572C235.416 120.105 235.626 119.709 235.896 119.382C236.176 119.055 236.517 118.803 236.918 118.626C237.32 118.449 237.772 118.36 238.276 118.36C238.995 118.36 239.569 118.519 239.998 118.836C240.437 119.144 240.764 119.55 240.978 120.054L240.04 120.53C239.91 120.157 239.695 119.867 239.396 119.662C239.098 119.457 238.724 119.354 238.276 119.354C237.94 119.354 237.646 119.41 237.394 119.522C237.142 119.625 236.932 119.774 236.764 119.97C236.596 120.157 236.47 120.385 236.386 120.656C236.302 120.917 236.26 121.207 236.26 121.524V122.756C236.26 123.391 236.428 123.913 236.764 124.324C237.11 124.725 237.614 124.926 238.276 124.926C239.182 124.926 239.835 124.506 240.236 123.666L241.048 124.212C240.815 124.735 240.465 125.15 239.998 125.458C239.541 125.766 238.967 125.92 238.276 125.92ZM244.225 125.752C243.833 125.752 243.535 125.645 243.329 125.43C243.133 125.206 243.035 124.917 243.035 124.562V119.508H241.845V118.528H242.517C242.76 118.528 242.923 118.481 243.007 118.388C243.101 118.285 243.147 118.113 243.147 117.87V116.526H244.155V118.528H245.737V119.508H244.155V124.772H245.625V125.752H244.225ZM248.728 125.752C248.336 125.752 248.037 125.645 247.832 125.43C247.636 125.206 247.538 124.926 247.538 124.59V115.392H248.658V124.772H249.722V125.752H248.728ZM255.667 118.528H256.773L253.539 127.432C253.455 127.647 253.371 127.824 253.287 127.964C253.203 128.113 253.101 128.23 252.979 128.314C252.858 128.398 252.704 128.459 252.517 128.496C252.34 128.533 252.121 128.552 251.859 128.552H251.285V127.572H252.419L252.965 126.032L250.263 118.528H251.383L253.119 123.442L253.455 124.618H253.525L253.917 123.442L255.667 118.528ZM266.13 124.576H266.074C265.636 125.472 264.931 125.92 263.96 125.92C263.512 125.92 263.106 125.831 262.742 125.654C262.378 125.477 262.066 125.225 261.804 124.898C261.552 124.571 261.356 124.175 261.216 123.708C261.086 123.241 261.02 122.719 261.02 122.14C261.02 121.561 261.086 121.039 261.216 120.572C261.356 120.105 261.552 119.709 261.804 119.382C262.066 119.055 262.378 118.803 262.742 118.626C263.106 118.449 263.512 118.36 263.96 118.36C264.464 118.36 264.894 118.472 265.248 118.696C265.612 118.911 265.888 119.247 266.074 119.704H266.13V115.392H267.25V125.752H266.13V124.576ZM264.268 124.912C264.52 124.912 264.758 124.879 264.982 124.814C265.216 124.749 265.416 124.655 265.584 124.534C265.752 124.403 265.883 124.249 265.976 124.072C266.079 123.885 266.13 123.675 266.13 123.442V120.754C266.13 120.558 266.079 120.376 265.976 120.208C265.883 120.031 265.752 119.881 265.584 119.76C265.416 119.639 265.216 119.545 264.982 119.48C264.758 119.405 264.52 119.368 264.268 119.368C263.634 119.368 263.134 119.569 262.77 119.97C262.406 120.362 262.224 120.88 262.224 121.524V122.756C262.224 123.4 262.406 123.923 262.77 124.324C263.134 124.716 263.634 124.912 264.268 124.912ZM272.347 125.92C271.853 125.92 271.405 125.831 271.003 125.654C270.611 125.477 270.271 125.225 269.981 124.898C269.701 124.562 269.482 124.165 269.323 123.708C269.174 123.241 269.099 122.719 269.099 122.14C269.099 121.571 269.174 121.053 269.323 120.586C269.482 120.119 269.701 119.723 269.981 119.396C270.271 119.06 270.611 118.803 271.003 118.626C271.405 118.449 271.853 118.36 272.347 118.36C272.833 118.36 273.267 118.449 273.649 118.626C274.032 118.803 274.359 119.051 274.629 119.368C274.9 119.676 275.105 120.045 275.245 120.474C275.395 120.903 275.469 121.375 275.469 121.888V122.42H270.275V122.756C270.275 123.064 270.322 123.353 270.415 123.624C270.518 123.885 270.658 124.114 270.835 124.31C271.022 124.506 271.246 124.66 271.507 124.772C271.778 124.884 272.081 124.94 272.417 124.94C272.875 124.94 273.271 124.833 273.607 124.618C273.953 124.403 274.219 124.095 274.405 123.694L275.203 124.268C274.97 124.763 274.606 125.164 274.111 125.472C273.617 125.771 273.029 125.92 272.347 125.92ZM272.347 119.298C272.039 119.298 271.759 119.354 271.507 119.466C271.255 119.569 271.036 119.718 270.849 119.914C270.672 120.11 270.532 120.343 270.429 120.614C270.327 120.875 270.275 121.165 270.275 121.482V121.58H274.265V121.426C274.265 120.782 274.088 120.269 273.733 119.886C273.388 119.494 272.926 119.298 272.347 119.298ZM279.485 125.92C278.813 125.92 278.248 125.794 277.791 125.542C277.343 125.281 276.956 124.935 276.629 124.506L277.427 123.862C277.707 124.217 278.02 124.492 278.365 124.688C278.71 124.875 279.112 124.968 279.569 124.968C280.045 124.968 280.414 124.865 280.675 124.66C280.946 124.455 281.081 124.165 281.081 123.792C281.081 123.512 280.988 123.274 280.801 123.078C280.624 122.873 280.297 122.733 279.821 122.658L279.247 122.574C278.911 122.527 278.603 122.457 278.323 122.364C278.043 122.261 277.796 122.131 277.581 121.972C277.376 121.804 277.212 121.599 277.091 121.356C276.979 121.113 276.923 120.824 276.923 120.488C276.923 120.133 276.988 119.825 277.119 119.564C277.25 119.293 277.427 119.069 277.651 118.892C277.884 118.715 278.16 118.584 278.477 118.5C278.794 118.407 279.135 118.36 279.499 118.36C280.087 118.36 280.577 118.463 280.969 118.668C281.37 118.873 281.72 119.158 282.019 119.522L281.277 120.194C281.118 119.97 280.885 119.769 280.577 119.592C280.269 119.405 279.882 119.312 279.415 119.312C278.948 119.312 278.594 119.415 278.351 119.62C278.118 119.816 278.001 120.087 278.001 120.432C278.001 120.787 278.118 121.043 278.351 121.202C278.594 121.361 278.939 121.477 279.387 121.552L279.947 121.636C280.75 121.757 281.319 121.991 281.655 122.336C281.991 122.672 282.159 123.115 282.159 123.666C282.159 124.366 281.921 124.917 281.445 125.318C280.969 125.719 280.316 125.92 279.485 125.92ZM286.825 125.92C286.321 125.92 285.869 125.831 285.467 125.654C285.066 125.477 284.725 125.225 284.445 124.898C284.175 124.571 283.965 124.175 283.815 123.708C283.675 123.241 283.605 122.719 283.605 122.14C283.605 121.561 283.675 121.039 283.815 120.572C283.965 120.105 284.175 119.709 284.445 119.382C284.725 119.055 285.066 118.803 285.467 118.626C285.869 118.449 286.321 118.36 286.825 118.36C287.544 118.36 288.118 118.519 288.547 118.836C288.986 119.144 289.313 119.55 289.527 120.054L288.589 120.53C288.459 120.157 288.244 119.867 287.945 119.662C287.647 119.457 287.273 119.354 286.825 119.354C286.489 119.354 286.195 119.41 285.943 119.522C285.691 119.625 285.481 119.774 285.313 119.97C285.145 120.157 285.019 120.385 284.935 120.656C284.851 120.917 284.809 121.207 284.809 121.524V122.756C284.809 123.391 284.977 123.913 285.313 124.324C285.659 124.725 286.163 124.926 286.825 124.926C287.731 124.926 288.384 124.506 288.785 123.666L289.597 124.212C289.364 124.735 289.014 125.15 288.547 125.458C288.09 125.766 287.516 125.92 286.825 125.92ZM291.178 125.752V118.528H292.298V119.858H292.368C292.499 119.513 292.732 119.205 293.068 118.934C293.404 118.663 293.866 118.528 294.454 118.528H294.888V119.648H294.23C293.624 119.648 293.148 119.765 292.802 119.998C292.466 120.222 292.298 120.507 292.298 120.852V125.752H291.178ZM296.879 116.834C296.636 116.834 296.459 116.778 296.347 116.666C296.244 116.545 296.193 116.391 296.193 116.204V116.022C296.193 115.835 296.244 115.686 296.347 115.574C296.459 115.453 296.636 115.392 296.879 115.392C297.122 115.392 297.294 115.453 297.397 115.574C297.509 115.686 297.565 115.835 297.565 116.022V116.204C297.565 116.391 297.509 116.545 297.397 116.666C297.294 116.778 297.122 116.834 296.879 116.834ZM296.319 118.528H297.439V125.752H296.319V118.528ZM299.819 115.392H300.939V119.704H300.995C301.182 119.247 301.452 118.911 301.807 118.696C302.171 118.472 302.605 118.36 303.109 118.36C303.557 118.36 303.963 118.449 304.327 118.626C304.691 118.803 304.999 119.055 305.251 119.382C305.512 119.709 305.708 120.105 305.839 120.572C305.979 121.039 306.049 121.561 306.049 122.14C306.049 122.719 305.979 123.241 305.839 123.708C305.708 124.175 305.512 124.571 305.251 124.898C304.999 125.225 304.691 125.477 304.327 125.654C303.963 125.831 303.557 125.92 303.109 125.92C302.129 125.92 301.424 125.472 300.995 124.576H300.939V125.752H299.819V115.392ZM302.801 124.912C303.436 124.912 303.935 124.716 304.299 124.324C304.663 123.923 304.845 123.4 304.845 122.756V121.524C304.845 120.88 304.663 120.362 304.299 119.97C303.935 119.569 303.436 119.368 302.801 119.368C302.549 119.368 302.306 119.405 302.073 119.48C301.849 119.545 301.653 119.639 301.485 119.76C301.317 119.881 301.182 120.031 301.079 120.208C300.986 120.376 300.939 120.558 300.939 120.754V123.442C300.939 123.675 300.986 123.885 301.079 124.072C301.182 124.249 301.317 124.403 301.485 124.534C301.653 124.655 301.849 124.749 302.073 124.814C302.306 124.879 302.549 124.912 302.801 124.912ZM310.656 125.92C310.161 125.92 309.713 125.831 309.312 125.654C308.92 125.477 308.579 125.225 308.29 124.898C308.01 124.562 307.791 124.165 307.632 123.708C307.483 123.241 307.408 122.719 307.408 122.14C307.408 121.571 307.483 121.053 307.632 120.586C307.791 120.119 308.01 119.723 308.29 119.396C308.579 119.06 308.92 118.803 309.312 118.626C309.713 118.449 310.161 118.36 310.656 118.36C311.141 118.36 311.575 118.449 311.958 118.626C312.341 118.803 312.667 119.051 312.938 119.368C313.209 119.676 313.414 120.045 313.554 120.474C313.703 120.903 313.778 121.375 313.778 121.888V122.42H308.584V122.756C308.584 123.064 308.631 123.353 308.724 123.624C308.827 123.885 308.967 124.114 309.144 124.31C309.331 124.506 309.555 124.66 309.816 124.772C310.087 124.884 310.39 124.94 310.726 124.94C311.183 124.94 311.58 124.833 311.916 124.618C312.261 124.403 312.527 124.095 312.714 123.694L313.512 124.268C313.279 124.763 312.915 125.164 312.42 125.472C311.925 125.771 311.337 125.92 310.656 125.92ZM310.656 119.298C310.348 119.298 310.068 119.354 309.816 119.466C309.564 119.569 309.345 119.718 309.158 119.914C308.981 120.11 308.841 120.343 308.738 120.614C308.635 120.875 308.584 121.165 308.584 121.482V121.58H312.574V121.426C312.574 120.782 312.397 120.269 312.042 119.886C311.697 119.494 311.235 119.298 310.656 119.298ZM320.528 125.752C320.136 125.752 319.838 125.645 319.632 125.43C319.436 125.206 319.338 124.917 319.338 124.562V119.508H318.148V118.528H318.82C319.063 118.528 319.226 118.481 319.31 118.388C319.404 118.285 319.45 118.113 319.45 117.87V116.526H320.458V118.528H322.04V119.508H320.458V124.772H321.928V125.752H320.528ZM323.84 115.392H324.96V119.704H325.016C325.194 119.293 325.441 118.967 325.758 118.724C326.085 118.481 326.519 118.36 327.06 118.36C327.807 118.36 328.395 118.603 328.824 119.088C329.263 119.564 329.482 120.241 329.482 121.118V125.752H328.362V121.314C328.362 120.017 327.816 119.368 326.724 119.368C326.5 119.368 326.281 119.396 326.066 119.452C325.861 119.508 325.674 119.592 325.506 119.704C325.338 119.816 325.203 119.961 325.1 120.138C325.007 120.306 324.96 120.507 324.96 120.74V125.752H323.84V115.392ZM334.513 125.92C334.019 125.92 333.571 125.831 333.169 125.654C332.777 125.477 332.437 125.225 332.147 124.898C331.867 124.562 331.648 124.165 331.489 123.708C331.34 123.241 331.265 122.719 331.265 122.14C331.265 121.571 331.34 121.053 331.489 120.586C331.648 120.119 331.867 119.723 332.147 119.396C332.437 119.06 332.777 118.803 333.169 118.626C333.571 118.449 334.019 118.36 334.513 118.36C334.999 118.36 335.433 118.449 335.815 118.626C336.198 118.803 336.525 119.051 336.795 119.368C337.066 119.676 337.271 120.045 337.411 120.474C337.561 120.903 337.635 121.375 337.635 121.888V122.42H332.441V122.756C332.441 123.064 332.488 123.353 332.581 123.624C332.684 123.885 332.824 124.114 333.001 124.31C333.188 124.506 333.412 124.66 333.673 124.772C333.944 124.884 334.247 124.94 334.583 124.94C335.041 124.94 335.437 124.833 335.773 124.618C336.119 124.403 336.385 124.095 336.571 123.694L337.369 124.268C337.136 124.763 336.772 125.164 336.277 125.472C335.783 125.771 335.195 125.92 334.513 125.92ZM334.513 119.298C334.205 119.298 333.925 119.354 333.673 119.466C333.421 119.569 333.202 119.718 333.015 119.914C332.838 120.11 332.698 120.343 332.595 120.614C332.493 120.875 332.441 121.165 332.441 121.482V121.58H336.431V121.426C336.431 120.782 336.254 120.269 335.899 119.886C335.554 119.494 335.092 119.298 334.513 119.298ZM209.12 136.528H210.24V137.704H210.296C210.482 137.247 210.753 136.911 211.108 136.696C211.472 136.472 211.906 136.36 212.41 136.36C212.858 136.36 213.264 136.449 213.628 136.626C213.992 136.803 214.3 137.055 214.552 137.382C214.813 137.709 215.009 138.105 215.14 138.572C215.28 139.039 215.35 139.561 215.35 140.14C215.35 140.719 215.28 141.241 215.14 141.708C215.009 142.175 214.813 142.571 214.552 142.898C214.3 143.225 213.992 143.477 213.628 143.654C213.264 143.831 212.858 143.92 212.41 143.92C211.43 143.92 210.725 143.472 210.296 142.576H210.24V146.552H209.12V136.528ZM212.102 142.912C212.736 142.912 213.236 142.716 213.6 142.324C213.964 141.923 214.146 141.4 214.146 140.756V139.524C214.146 138.88 213.964 138.362 213.6 137.97C213.236 137.569 212.736 137.368 212.102 137.368C211.85 137.368 211.607 137.405 211.374 137.48C211.15 137.545 210.954 137.639 210.786 137.76C210.618 137.881 210.482 138.031 210.38 138.208C210.286 138.376 210.24 138.558 210.24 138.754V141.442C210.24 141.675 210.286 141.885 210.38 142.072C210.482 142.249 210.618 142.403 210.786 142.534C210.954 142.655 211.15 142.749 211.374 142.814C211.607 142.879 211.85 142.912 212.102 142.912ZM219.971 143.92C219.485 143.92 219.042 143.831 218.641 143.654C218.239 143.477 217.894 143.225 217.605 142.898C217.325 142.562 217.105 142.165 216.947 141.708C216.788 141.241 216.709 140.719 216.709 140.14C216.709 139.571 216.788 139.053 216.947 138.586C217.105 138.119 217.325 137.723 217.605 137.396C217.894 137.06 218.239 136.803 218.641 136.626C219.042 136.449 219.485 136.36 219.971 136.36C220.456 136.36 220.895 136.449 221.287 136.626C221.688 136.803 222.033 137.06 222.323 137.396C222.612 137.723 222.836 138.119 222.995 138.586C223.153 139.053 223.233 139.571 223.233 140.14C223.233 140.719 223.153 141.241 222.995 141.708C222.836 142.165 222.612 142.562 222.323 142.898C222.033 143.225 221.688 143.477 221.287 143.654C220.895 143.831 220.456 143.92 219.971 143.92ZM219.971 142.926C220.577 142.926 221.072 142.739 221.455 142.366C221.837 141.993 222.029 141.423 222.029 140.658V139.622C222.029 138.857 221.837 138.287 221.455 137.914C221.072 137.541 220.577 137.354 219.971 137.354C219.364 137.354 218.869 137.541 218.487 137.914C218.104 138.287 217.913 138.857 217.913 139.622V140.658C217.913 141.423 218.104 141.993 218.487 142.366C218.869 142.739 219.364 142.926 219.971 142.926ZM225.635 134.834C225.392 134.834 225.215 134.778 225.103 134.666C225 134.545 224.949 134.391 224.949 134.204V134.022C224.949 133.835 225 133.686 225.103 133.574C225.215 133.453 225.392 133.392 225.635 133.392C225.877 133.392 226.05 133.453 226.153 133.574C226.265 133.686 226.321 133.835 226.321 134.022V134.204C226.321 134.391 226.265 134.545 226.153 134.666C226.05 134.778 225.877 134.834 225.635 134.834ZM225.075 136.528H226.195V143.752H225.075V136.528ZM228.575 143.752V136.528H229.695V137.704H229.751C229.928 137.293 230.175 136.967 230.493 136.724C230.819 136.481 231.253 136.36 231.795 136.36C232.541 136.36 233.129 136.603 233.559 137.088C233.997 137.564 234.217 138.241 234.217 139.118V143.752H233.097V139.314C233.097 138.017 232.551 137.368 231.459 137.368C231.235 137.368 231.015 137.396 230.801 137.452C230.595 137.508 230.409 137.592 230.241 137.704C230.073 137.816 229.937 137.961 229.835 138.138C229.741 138.306 229.695 138.507 229.695 138.74V143.752H228.575ZM238.128 143.752C237.736 143.752 237.437 143.645 237.232 143.43C237.036 143.206 236.938 142.917 236.938 142.562V137.508H235.748V136.528H236.42C236.662 136.528 236.826 136.481 236.91 136.388C237.003 136.285 237.05 136.113 237.05 135.87V134.526H238.058V136.528H239.64V137.508H238.058V142.772H239.528V143.752H238.128ZM247.479 143.92C246.993 143.92 246.55 143.831 246.149 143.654C245.747 143.477 245.402 143.225 245.113 142.898C244.833 142.562 244.613 142.165 244.455 141.708C244.296 141.241 244.217 140.719 244.217 140.14C244.217 139.571 244.296 139.053 244.455 138.586C244.613 138.119 244.833 137.723 245.113 137.396C245.402 137.06 245.747 136.803 246.149 136.626C246.55 136.449 246.993 136.36 247.479 136.36C247.964 136.36 248.403 136.449 248.795 136.626C249.196 136.803 249.541 137.06 249.831 137.396C250.12 137.723 250.344 138.119 250.503 138.586C250.661 139.053 250.741 139.571 250.741 140.14C250.741 140.719 250.661 141.241 250.503 141.708C250.344 142.165 250.12 142.562 249.831 142.898C249.541 143.225 249.196 143.477 248.795 143.654C248.403 143.831 247.964 143.92 247.479 143.92ZM247.479 142.926C248.085 142.926 248.58 142.739 248.963 142.366C249.345 141.993 249.537 141.423 249.537 140.658V139.622C249.537 138.857 249.345 138.287 248.963 137.914C248.58 137.541 248.085 137.354 247.479 137.354C246.872 137.354 246.377 137.541 245.995 137.914C245.612 138.287 245.421 138.857 245.421 139.622V140.658C245.421 141.423 245.612 141.993 245.995 142.366C246.377 142.739 246.872 142.926 247.479 142.926ZM252.893 137.508H251.717V136.528H252.893V135.072C252.893 134.568 253.023 134.162 253.285 133.854C253.546 133.546 253.943 133.392 254.475 133.392H255.567V134.372H254.013V136.528H255.567V137.508H254.013V143.752H252.893V137.508ZM261.944 143.752C261.552 143.752 261.254 143.645 261.048 143.43C260.852 143.206 260.754 142.917 260.754 142.562V137.508H259.564V136.528H260.236C260.479 136.528 260.642 136.481 260.726 136.388C260.82 136.285 260.866 136.113 260.866 135.87V134.526H261.874V136.528H263.456V137.508H261.874V142.772H263.344V143.752H261.944ZM265.256 133.392H266.376V137.704H266.432C266.61 137.293 266.857 136.967 267.174 136.724C267.501 136.481 267.935 136.36 268.476 136.36C269.223 136.36 269.811 136.603 270.24 137.088C270.679 137.564 270.898 138.241 270.898 139.118V143.752H269.778V139.314C269.778 138.017 269.232 137.368 268.14 137.368C267.916 137.368 267.697 137.396 267.482 137.452C267.277 137.508 267.09 137.592 266.922 137.704C266.754 137.816 266.619 137.961 266.516 138.138C266.423 138.306 266.376 138.507 266.376 138.74V143.752H265.256V133.392ZM275.929 143.92C275.435 143.92 274.987 143.831 274.585 143.654C274.193 143.477 273.853 143.225 273.563 142.898C273.283 142.562 273.064 142.165 272.905 141.708C272.756 141.241 272.681 140.719 272.681 140.14C272.681 139.571 272.756 139.053 272.905 138.586C273.064 138.119 273.283 137.723 273.563 137.396C273.853 137.06 274.193 136.803 274.585 136.626C274.987 136.449 275.435 136.36 275.929 136.36C276.415 136.36 276.849 136.449 277.231 136.626C277.614 136.803 277.941 137.051 278.211 137.368C278.482 137.676 278.687 138.045 278.827 138.474C278.977 138.903 279.051 139.375 279.051 139.888V140.42H273.857V140.756C273.857 141.064 273.904 141.353 273.997 141.624C274.1 141.885 274.24 142.114 274.417 142.31C274.604 142.506 274.828 142.66 275.089 142.772C275.36 142.884 275.663 142.94 275.999 142.94C276.457 142.94 276.853 142.833 277.189 142.618C277.535 142.403 277.801 142.095 277.987 141.694L278.785 142.268C278.552 142.763 278.188 143.164 277.693 143.472C277.199 143.771 276.611 143.92 275.929 143.92ZM275.929 137.298C275.621 137.298 275.341 137.354 275.089 137.466C274.837 137.569 274.618 137.718 274.431 137.914C274.254 138.11 274.114 138.343 274.011 138.614C273.909 138.875 273.857 139.165 273.857 139.482V139.58H277.847V139.426C277.847 138.782 277.67 138.269 277.315 137.886C276.97 137.494 276.508 137.298 275.929 137.298ZM284.206 136.528H285.326V137.704H285.382C285.568 137.247 285.839 136.911 286.194 136.696C286.558 136.472 286.992 136.36 287.496 136.36C287.944 136.36 288.35 136.449 288.714 136.626C289.078 136.803 289.386 137.055 289.638 137.382C289.899 137.709 290.095 138.105 290.226 138.572C290.366 139.039 290.436 139.561 290.436 140.14C290.436 140.719 290.366 141.241 290.226 141.708C290.095 142.175 289.899 142.571 289.638 142.898C289.386 143.225 289.078 143.477 288.714 143.654C288.35 143.831 287.944 143.92 287.496 143.92C286.516 143.92 285.811 143.472 285.382 142.576H285.326V146.552H284.206V136.528ZM287.188 142.912C287.822 142.912 288.322 142.716 288.686 142.324C289.05 141.923 289.232 141.4 289.232 140.756V139.524C289.232 138.88 289.05 138.362 288.686 137.97C288.322 137.569 287.822 137.368 287.188 137.368C286.936 137.368 286.693 137.405 286.46 137.48C286.236 137.545 286.04 137.639 285.872 137.76C285.704 137.881 285.568 138.031 285.466 138.208C285.372 138.376 285.326 138.558 285.326 138.754V141.442C285.326 141.675 285.372 141.885 285.466 142.072C285.568 142.249 285.704 142.403 285.872 142.534C286.04 142.655 286.236 142.749 286.46 142.814C286.693 142.879 286.936 142.912 287.188 142.912ZM292.327 143.752V136.528H293.447V137.858H293.517C293.647 137.513 293.881 137.205 294.217 136.934C294.553 136.663 295.015 136.528 295.603 136.528H296.037V137.648H295.379C294.772 137.648 294.296 137.765 293.951 137.998C293.615 138.222 293.447 138.507 293.447 138.852V143.752H292.327ZM300.129 143.92C299.644 143.92 299.2 143.831 298.799 143.654C298.398 143.477 298.052 143.225 297.763 142.898C297.483 142.562 297.264 142.165 297.105 141.708C296.946 141.241 296.867 140.719 296.867 140.14C296.867 139.571 296.946 139.053 297.105 138.586C297.264 138.119 297.483 137.723 297.763 137.396C298.052 137.06 298.398 136.803 298.799 136.626C299.2 136.449 299.644 136.36 300.129 136.36C300.614 136.36 301.053 136.449 301.445 136.626C301.846 136.803 302.192 137.06 302.481 137.396C302.77 137.723 302.994 138.119 303.153 138.586C303.312 139.053 303.391 139.571 303.391 140.14C303.391 140.719 303.312 141.241 303.153 141.708C302.994 142.165 302.77 142.562 302.481 142.898C302.192 143.225 301.846 143.477 301.445 143.654C301.053 143.831 300.614 143.92 300.129 143.92ZM300.129 142.926C300.736 142.926 301.23 142.739 301.613 142.366C301.996 141.993 302.187 141.423 302.187 140.658V139.622C302.187 138.857 301.996 138.287 301.613 137.914C301.23 137.541 300.736 137.354 300.129 137.354C299.522 137.354 299.028 137.541 298.645 137.914C298.262 138.287 298.071 138.857 298.071 139.622V140.658C298.071 141.423 298.262 141.993 298.645 142.366C299.028 142.739 299.522 142.926 300.129 142.926ZM309.853 142.576H309.797C309.358 143.472 308.654 143.92 307.683 143.92C307.235 143.92 306.829 143.831 306.465 143.654C306.101 143.477 305.788 143.225 305.527 142.898C305.275 142.571 305.079 142.175 304.939 141.708C304.808 141.241 304.743 140.719 304.743 140.14C304.743 139.561 304.808 139.039 304.939 138.572C305.079 138.105 305.275 137.709 305.527 137.382C305.788 137.055 306.101 136.803 306.465 136.626C306.829 136.449 307.235 136.36 307.683 136.36C308.187 136.36 308.616 136.472 308.971 136.696C309.335 136.911 309.61 137.247 309.797 137.704H309.853V133.392H310.973V143.752H309.853V142.576ZM307.991 142.912C308.243 142.912 308.481 142.879 308.705 142.814C308.938 142.749 309.139 142.655 309.307 142.534C309.475 142.403 309.606 142.249 309.699 142.072C309.802 141.885 309.853 141.675 309.853 141.442V138.754C309.853 138.558 309.802 138.376 309.699 138.208C309.606 138.031 309.475 137.881 309.307 137.76C309.139 137.639 308.938 137.545 308.705 137.48C308.481 137.405 308.243 137.368 307.991 137.368C307.356 137.368 306.857 137.569 306.493 137.97C306.129 138.362 305.947 138.88 305.947 139.524V140.756C305.947 141.4 306.129 141.923 306.493 142.324C306.857 142.716 307.356 142.912 307.991 142.912ZM317.806 142.576H317.75C317.675 142.744 317.582 142.912 317.47 143.08C317.367 143.239 317.237 143.383 317.078 143.514C316.919 143.635 316.728 143.733 316.504 143.808C316.28 143.883 316.019 143.92 315.72 143.92C314.973 143.92 314.381 143.682 313.942 143.206C313.503 142.721 313.284 142.039 313.284 141.162V136.528H314.404V140.966C314.404 142.263 314.955 142.912 316.056 142.912C316.28 142.912 316.495 142.884 316.7 142.828C316.915 142.772 317.101 142.688 317.26 142.576C317.428 142.464 317.559 142.324 317.652 142.156C317.755 141.979 317.806 141.769 317.806 141.526V136.528H318.926V143.752H317.806V142.576ZM323.999 143.92C323.495 143.92 323.042 143.831 322.641 143.654C322.24 143.477 321.899 143.225 321.619 142.898C321.348 142.571 321.138 142.175 320.989 141.708C320.849 141.241 320.779 140.719 320.779 140.14C320.779 139.561 320.849 139.039 320.989 138.572C321.138 138.105 321.348 137.709 321.619 137.382C321.899 137.055 322.24 136.803 322.641 136.626C323.042 136.449 323.495 136.36 323.999 136.36C324.718 136.36 325.292 136.519 325.721 136.836C326.16 137.144 326.486 137.55 326.701 138.054L325.763 138.53C325.632 138.157 325.418 137.867 325.119 137.662C324.82 137.457 324.447 137.354 323.999 137.354C323.663 137.354 323.369 137.41 323.117 137.522C322.865 137.625 322.655 137.774 322.487 137.97C322.319 138.157 322.193 138.385 322.109 138.656C322.025 138.917 321.983 139.207 321.983 139.524V140.756C321.983 141.391 322.151 141.913 322.487 142.324C322.832 142.725 323.336 142.926 323.999 142.926C324.904 142.926 325.558 142.506 325.959 141.666L326.771 142.212C326.538 142.735 326.188 143.15 325.721 143.458C325.264 143.766 324.69 143.92 323.999 143.92ZM329.948 143.752C329.556 143.752 329.257 143.645 329.052 143.43C328.856 143.206 328.758 142.917 328.758 142.562V137.508H327.568V136.528H328.24C328.483 136.528 328.646 136.481 328.73 136.388C328.823 136.285 328.87 136.113 328.87 135.87V134.526H329.878V136.528H331.46V137.508H329.878V142.772H331.348V143.752H329.948Z" fill="#27272A"/>
<path d="M544.456 11.2961C550.723 17.5637 554.459 25.9233 554.946 34.7737C555.433 43.6241 552.638 52.3431 547.096 59.2607C541.553 66.1782 533.654 70.8081 524.911 72.2634C516.167 73.7187 507.194 71.8972 499.71 67.1478C492.226 62.3983 486.758 55.0548 484.352 46.5238C481.946 37.9928 482.771 28.8741 486.671 20.9142C490.571 12.9542 497.27 6.71274 505.485 3.38513C513.7 0.0575193 522.855 -0.122258 531.195 2.88023L519 36.752L544.456 11.2961Z" fill="#14B8A6"/>
<path d="M509.485 94.904C509.485 95.804 509.347 96.656 509.071 97.46C508.807 98.252 508.459 98.984 508.027 99.656C507.595 100.316 507.109 100.91 506.569 101.438C506.041 101.954 505.513 102.392 504.985 102.752H501.781C502.513 102.224 503.173 101.714 503.761 101.222C504.349 100.73 504.859 100.232 505.291 99.728C505.735 99.224 506.095 98.702 506.371 98.162C506.659 97.61 506.875 97.016 507.019 96.38L506.875 96.344C506.755 96.584 506.611 96.818 506.443 97.046C506.287 97.274 506.095 97.472 505.867 97.64C505.639 97.808 505.375 97.946 505.075 98.054C504.775 98.15 504.427 98.198 504.031 98.198C503.503 98.198 503.017 98.108 502.573 97.928C502.129 97.748 501.739 97.49 501.403 97.154C501.079 96.806 500.821 96.398 500.629 95.93C500.449 95.45 500.359 94.91 500.359 94.31C500.359 93.674 500.467 93.092 500.683 92.564C500.899 92.036 501.205 91.58 501.601 91.196C501.997 90.812 502.471 90.512 503.023 90.296C503.587 90.08 504.217 89.972 504.913 89.972C505.633 89.972 506.275 90.092 506.839 90.332C507.403 90.56 507.883 90.89 508.279 91.322C508.675 91.742 508.975 92.258 509.179 92.87C509.383 93.47 509.485 94.148 509.485 94.904ZM504.913 96.362C505.585 96.362 506.107 96.182 506.479 95.822C506.851 95.45 507.037 94.922 507.037 94.238V93.968C507.037 93.284 506.851 92.762 506.479 92.402C506.107 92.03 505.585 91.844 504.913 91.844C504.253 91.844 503.731 92.03 503.347 92.402C502.975 92.762 502.789 93.284 502.789 93.968V94.238C502.789 94.922 502.975 95.45 503.347 95.822C503.731 96.182 504.253 96.362 504.913 96.362ZM515.076 95.264C515.796 95.264 516.324 95.12 516.66 94.832C517.008 94.532 517.182 94.154 517.182 93.698V93.572C517.182 93.056 517.014 92.654 516.678 92.366C516.354 92.066 515.904 91.916 515.328 91.916C514.776 91.916 514.284 92.048 513.852 92.312C513.432 92.576 513.066 92.948 512.754 93.428L511.242 92.06C511.458 91.772 511.692 91.502 511.944 91.25C512.208 90.986 512.508 90.764 512.844 90.584C513.18 90.392 513.558 90.242 513.978 90.134C514.398 90.026 514.872 89.972 515.4 89.972C516.036 89.972 516.612 90.05 517.128 90.206C517.656 90.35 518.106 90.566 518.478 90.854C518.862 91.142 519.156 91.49 519.36 91.898C519.564 92.294 519.666 92.744 519.666 93.248C519.666 93.656 519.6 94.022 519.468 94.346C519.348 94.67 519.174 94.952 518.946 95.192C518.73 95.432 518.472 95.63 518.172 95.786C517.884 95.93 517.578 96.038 517.254 96.11V96.218C517.614 96.29 517.956 96.404 518.28 96.56C518.604 96.716 518.88 96.926 519.108 97.19C519.348 97.442 519.534 97.742 519.666 98.09C519.81 98.438 519.882 98.834 519.882 99.278C519.882 99.83 519.768 100.334 519.54 100.79C519.324 101.246 519.012 101.636 518.604 101.96C518.196 102.284 517.71 102.536 517.146 102.716C516.582 102.884 515.952 102.968 515.256 102.968C514.644 102.968 514.104 102.902 513.636 102.77C513.168 102.65 512.754 102.482 512.394 102.266C512.046 102.05 511.74 101.804 511.476 101.528C511.212 101.24 510.984 100.94 510.792 100.628L512.538 99.296C512.682 99.548 512.838 99.782 513.006 99.998C513.174 100.202 513.366 100.382 513.582 100.538C513.798 100.694 514.044 100.814 514.32 100.898C514.596 100.982 514.908 101.024 515.256 101.024C515.952 101.024 516.486 100.856 516.858 100.52C517.23 100.184 517.416 99.722 517.416 99.134V99.008C517.416 98.432 517.212 97.994 516.804 97.694C516.408 97.394 515.832 97.244 515.076 97.244H513.834V95.264H515.076ZM524.393 102.752L533.105 90.188H535.193L526.481 102.752H524.393ZM525.257 97.1C524.237 97.1 523.457 96.8 522.917 96.2C522.389 95.588 522.125 94.7 522.125 93.536C522.125 92.372 522.389 91.49 522.917 90.89C523.457 90.278 524.237 89.972 525.257 89.972C526.277 89.972 527.051 90.278 527.579 90.89C528.107 91.49 528.371 92.372 528.371 93.536C528.371 94.7 528.107 95.588 527.579 96.2C527.051 96.8 526.277 97.1 525.257 97.1ZM525.257 95.732C526.001 95.732 526.373 95.162 526.373 94.022V93.05C526.373 91.91 526.001 91.34 525.257 91.34C524.513 91.34 524.141 91.91 524.141 93.05V94.022C524.141 95.162 524.513 95.732 525.257 95.732ZM534.329 102.968C533.321 102.968 532.547 102.668 532.007 102.068C531.479 101.456 531.215 100.568 531.215 99.404C531.215 98.24 531.479 97.358 532.007 96.758C532.547 96.146 533.321 95.84 534.329 95.84C535.349 95.84 536.123 96.146 536.651 96.758C537.191 97.358 537.461 98.24 537.461 99.404C537.461 100.568 537.191 101.456 536.651 102.068C536.123 102.668 535.349 102.968 534.329 102.968ZM534.329 101.6C535.073 101.6 535.445 101.03 535.445 99.89V98.918C535.445 97.778 535.073 97.208 534.329 97.208C533.585 97.208 533.213 97.778 533.213 98.918V99.89C533.213 101.03 533.585 101.6 534.329 101.6Z" fill="#27272A"/>
<path d="M456.248 125.92C455.744 125.92 455.291 125.831 454.89 125.654C454.489 125.477 454.148 125.225 453.868 124.898C453.597 124.571 453.387 124.175 453.238 123.708C453.098 123.241 453.028 122.719 453.028 122.14C453.028 121.561 453.098 121.039 453.238 120.572C453.387 120.105 453.597 119.709 453.868 119.382C454.148 119.055 454.489 118.803 454.89 118.626C455.291 118.449 455.744 118.36 456.248 118.36C456.967 118.36 457.541 118.519 457.97 118.836C458.409 119.144 458.735 119.55 458.95 120.054L458.012 120.53C457.881 120.157 457.667 119.867 457.368 119.662C457.069 119.457 456.696 119.354 456.248 119.354C455.912 119.354 455.618 119.41 455.366 119.522C455.114 119.625 454.904 119.774 454.736 119.97C454.568 120.157 454.442 120.385 454.358 120.656C454.274 120.917 454.232 121.207 454.232 121.524V122.756C454.232 123.391 454.4 123.913 454.736 124.324C455.081 124.725 455.585 124.926 456.248 124.926C457.153 124.926 457.807 124.506 458.208 123.666L459.02 124.212C458.787 124.735 458.437 125.15 457.97 125.458C457.513 125.766 456.939 125.92 456.248 125.92ZM463.249 125.92C462.764 125.92 462.32 125.831 461.919 125.654C461.518 125.477 461.172 125.225 460.883 124.898C460.603 124.562 460.384 124.165 460.225 123.708C460.066 123.241 459.987 122.719 459.987 122.14C459.987 121.571 460.066 121.053 460.225 120.586C460.384 120.119 460.603 119.723 460.883 119.396C461.172 119.06 461.518 118.803 461.919 118.626C462.32 118.449 462.764 118.36 463.249 118.36C463.734 118.36 464.173 118.449 464.565 118.626C464.966 118.803 465.312 119.06 465.601 119.396C465.89 119.723 466.114 120.119 466.273 120.586C466.432 121.053 466.511 121.571 466.511 122.14C466.511 122.719 466.432 123.241 466.273 123.708C466.114 124.165 465.89 124.562 465.601 124.898C465.312 125.225 464.966 125.477 464.565 125.654C464.173 125.831 463.734 125.92 463.249 125.92ZM463.249 124.926C463.856 124.926 464.35 124.739 464.733 124.366C465.116 123.993 465.307 123.423 465.307 122.658V121.622C465.307 120.857 465.116 120.287 464.733 119.914C464.35 119.541 463.856 119.354 463.249 119.354C462.642 119.354 462.148 119.541 461.765 119.914C461.382 120.287 461.191 120.857 461.191 121.622V122.658C461.191 123.423 461.382 123.993 461.765 124.366C462.148 124.739 462.642 124.926 463.249 124.926ZM468.353 125.752V118.528H469.473V119.858H469.543C469.674 119.513 469.907 119.205 470.243 118.934C470.579 118.663 471.041 118.528 471.629 118.528H472.063V119.648H471.405C470.798 119.648 470.322 119.765 469.977 119.998C469.641 120.222 469.473 120.507 469.473 120.852V125.752H468.353ZM473.494 125.752V118.528H474.614V119.858H474.684C474.814 119.513 475.048 119.205 475.384 118.934C475.72 118.663 476.182 118.528 476.77 118.528H477.204V119.648H476.546C475.939 119.648 475.463 119.765 475.118 119.998C474.782 120.222 474.614 120.507 474.614 120.852V125.752H473.494ZM481.282 125.92C480.787 125.92 480.339 125.831 479.938 125.654C479.546 125.477 479.205 125.225 478.916 124.898C478.636 124.562 478.417 124.165 478.258 123.708C478.109 123.241 478.034 122.719 478.034 122.14C478.034 121.571 478.109 121.053 478.258 120.586C478.417 120.119 478.636 119.723 478.916 119.396C479.205 119.06 479.546 118.803 479.938 118.626C480.339 118.449 480.787 118.36 481.282 118.36C481.767 118.36 482.201 118.449 482.584 118.626C482.967 118.803 483.293 119.051 483.564 119.368C483.835 119.676 484.04 120.045 484.18 120.474C484.329 120.903 484.404 121.375 484.404 121.888V122.42H479.21V122.756C479.21 123.064 479.257 123.353 479.35 123.624C479.453 123.885 479.593 124.114 479.77 124.31C479.957 124.506 480.181 124.66 480.442 124.772C480.713 124.884 481.016 124.94 481.352 124.94C481.809 124.94 482.206 124.833 482.542 124.618C482.887 124.403 483.153 124.095 483.34 123.694L484.138 124.268C483.905 124.763 483.541 125.164 483.046 125.472C482.551 125.771 481.963 125.92 481.282 125.92ZM481.282 119.298C480.974 119.298 480.694 119.354 480.442 119.466C480.19 119.569 479.971 119.718 479.784 119.914C479.607 120.11 479.467 120.343 479.364 120.614C479.261 120.875 479.21 121.165 479.21 121.482V121.58H483.2V121.426C483.2 120.782 483.023 120.269 482.668 119.886C482.323 119.494 481.861 119.298 481.282 119.298ZM488.938 125.92C488.434 125.92 487.981 125.831 487.58 125.654C487.178 125.477 486.838 125.225 486.558 124.898C486.287 124.571 486.077 124.175 485.928 123.708C485.788 123.241 485.718 122.719 485.718 122.14C485.718 121.561 485.788 121.039 485.928 120.572C486.077 120.105 486.287 119.709 486.558 119.382C486.838 119.055 487.178 118.803 487.58 118.626C487.981 118.449 488.434 118.36 488.938 118.36C489.656 118.36 490.23 118.519 490.66 118.836C491.098 119.144 491.425 119.55 491.64 120.054L490.702 120.53C490.571 120.157 490.356 119.867 490.058 119.662C489.759 119.457 489.386 119.354 488.938 119.354C488.602 119.354 488.308 119.41 488.056 119.522C487.804 119.625 487.594 119.774 487.426 119.97C487.258 120.157 487.132 120.385 487.048 120.656C486.964 120.917 486.922 121.207 486.922 121.524V122.756C486.922 123.391 487.09 123.913 487.426 124.324C487.771 124.725 488.275 124.926 488.938 124.926C489.843 124.926 490.496 124.506 490.898 123.666L491.71 124.212C491.476 124.735 491.126 125.15 490.66 125.458C490.202 125.766 489.628 125.92 488.938 125.92ZM494.887 125.752C494.495 125.752 494.196 125.645 493.991 125.43C493.795 125.206 493.697 124.917 493.697 124.562V119.508H492.507V118.528H493.179C493.421 118.528 493.585 118.481 493.669 118.388C493.762 118.285 493.809 118.113 493.809 117.87V116.526H494.817V118.528H496.399V119.508H494.817V124.772H496.287V125.752H494.887ZM499.389 125.752C498.997 125.752 498.698 125.645 498.493 125.43C498.297 125.206 498.199 124.926 498.199 124.59V115.392H499.319V124.772H500.383V125.752H499.389ZM506.329 118.528H507.435L504.201 127.432C504.117 127.647 504.033 127.824 503.949 127.964C503.865 128.113 503.762 128.23 503.641 128.314C503.519 128.398 503.365 128.459 503.179 128.496C503.001 128.533 502.782 128.552 502.521 128.552H501.947V127.572H503.081L503.627 126.032L500.925 118.528H502.045L503.781 123.442L504.117 124.618H504.187L504.579 123.442L506.329 118.528ZM512.731 116.834C512.489 116.834 512.311 116.778 512.199 116.666C512.097 116.545 512.045 116.391 512.045 116.204V116.022C512.045 115.835 512.097 115.686 512.199 115.574C512.311 115.453 512.489 115.392 512.731 115.392C512.974 115.392 513.147 115.453 513.249 115.574C513.361 115.686 513.417 115.835 513.417 116.022V116.204C513.417 116.391 513.361 116.545 513.249 116.666C513.147 116.778 512.974 116.834 512.731 116.834ZM512.171 118.528H513.291V125.752H512.171V118.528ZM515.671 125.752V118.528H516.791V119.704H516.847C517.025 119.293 517.272 118.967 517.589 118.724C517.916 118.481 518.35 118.36 518.891 118.36C519.638 118.36 520.226 118.603 520.655 119.088C521.094 119.564 521.313 120.241 521.313 121.118V125.752H520.193V121.314C520.193 120.017 519.647 119.368 518.555 119.368C518.331 119.368 518.112 119.396 517.897 119.452C517.692 119.508 517.505 119.592 517.337 119.704C517.169 119.816 517.034 119.961 516.931 120.138C516.838 120.306 516.791 120.507 516.791 120.74V125.752H515.671ZM523.628 118.528H524.748V119.704H524.804C524.991 119.247 525.262 118.911 525.616 118.696C525.98 118.472 526.414 118.36 526.918 118.36C527.366 118.36 527.772 118.449 528.136 118.626C528.5 118.803 528.808 119.055 529.06 119.382C529.322 119.709 529.518 120.105 529.648 120.572C529.788 121.039 529.858 121.561 529.858 122.14C529.858 122.719 529.788 123.241 529.648 123.708C529.518 124.175 529.322 124.571 529.06 124.898C528.808 125.225 528.5 125.477 528.136 125.654C527.772 125.831 527.366 125.92 526.918 125.92C525.938 125.92 525.234 125.472 524.804 124.576H524.748V128.552H523.628V118.528ZM526.61 124.912C527.245 124.912 527.744 124.716 528.108 124.324C528.472 123.923 528.654 123.4 528.654 122.756V121.524C528.654 120.88 528.472 120.362 528.108 119.97C527.744 119.569 527.245 119.368 526.61 119.368C526.358 119.368 526.116 119.405 525.882 119.48C525.658 119.545 525.462 119.639 525.294 119.76C525.126 119.881 524.991 120.031 524.888 120.208C524.795 120.376 524.748 120.558 524.748 120.754V123.442C524.748 123.675 524.795 123.885 524.888 124.072C524.991 124.249 525.126 124.403 525.294 124.534C525.462 124.655 525.658 124.749 525.882 124.814C526.116 124.879 526.358 124.912 526.61 124.912ZM536.202 124.576H536.146C536.071 124.744 535.978 124.912 535.866 125.08C535.763 125.239 535.632 125.383 535.474 125.514C535.315 125.635 535.124 125.733 534.9 125.808C534.676 125.883 534.414 125.92 534.116 125.92C533.369 125.92 532.776 125.682 532.338 125.206C531.899 124.721 531.68 124.039 531.68 123.162V118.528H532.8V122.966C532.8 124.263 533.35 124.912 534.452 124.912C534.676 124.912 534.89 124.884 535.096 124.828C535.31 124.772 535.497 124.688 535.656 124.576C535.824 124.464 535.954 124.324 536.048 124.156C536.15 123.979 536.202 123.769 536.202 123.526V118.528H537.322V125.752H536.202V124.576ZM541.303 125.752C540.911 125.752 540.612 125.645 540.407 125.43C540.211 125.206 540.113 124.917 540.113 124.562V119.508H538.923V118.528H539.595C539.837 118.528 540.001 118.481 540.085 118.388C540.178 118.285 540.225 118.113 540.225 117.87V116.526H541.233V118.528H542.815V119.508H541.233V124.772H542.703V125.752H541.303ZM553.173 125.752C552.753 125.752 552.45 125.64 552.263 125.416C552.086 125.192 551.974 124.912 551.927 124.576H551.857C551.699 125.024 551.437 125.36 551.073 125.584C550.709 125.808 550.275 125.92 549.771 125.92C549.006 125.92 548.409 125.724 547.979 125.332C547.559 124.94 547.349 124.408 547.349 123.736C547.349 123.055 547.597 122.532 548.091 122.168C548.595 121.804 549.375 121.622 550.429 121.622H551.857V120.908C551.857 120.395 551.717 120.003 551.437 119.732C551.157 119.461 550.728 119.326 550.149 119.326C549.711 119.326 549.342 119.424 549.043 119.62C548.754 119.816 548.511 120.077 548.315 120.404L547.643 119.774C547.839 119.382 548.152 119.051 548.581 118.78C549.011 118.5 549.552 118.36 550.205 118.36C551.083 118.36 551.764 118.575 552.249 119.004C552.735 119.433 552.977 120.031 552.977 120.796V124.772H553.803V125.752H553.173ZM549.953 124.968C550.233 124.968 550.49 124.935 550.723 124.87C550.957 124.805 551.157 124.711 551.325 124.59C551.493 124.469 551.624 124.329 551.717 124.17C551.811 124.011 551.857 123.839 551.857 123.652V122.462H550.373C549.729 122.462 549.258 122.555 548.959 122.742C548.67 122.929 548.525 123.199 548.525 123.554V123.848C548.525 124.203 548.651 124.478 548.903 124.674C549.165 124.87 549.515 124.968 549.953 124.968ZM556.592 125.752C556.2 125.752 555.901 125.645 555.696 125.43C555.5 125.206 555.402 124.926 555.402 124.59V115.392H556.522V124.772H557.586V125.752H556.592ZM560.338 125.752C559.946 125.752 559.647 125.645 559.442 125.43C559.246 125.206 559.148 124.926 559.148 124.59V115.392H560.268V124.772H561.332V125.752H560.338ZM567.867 125.752C567.475 125.752 567.176 125.645 566.971 125.43C566.775 125.206 566.677 124.917 566.677 124.562V119.508H565.487V118.528H566.159C566.402 118.528 566.565 118.481 566.649 118.388C566.742 118.285 566.789 118.113 566.789 117.87V116.526H567.797V118.528H569.379V119.508H567.797V124.772H569.267V125.752H567.867ZM571.179 115.392H572.299V119.704H572.355C572.533 119.293 572.78 118.967 573.097 118.724C573.424 118.481 573.858 118.36 574.399 118.36C575.146 118.36 575.734 118.603 576.163 119.088C576.602 119.564 576.821 120.241 576.821 121.118V125.752H575.701V121.314C575.701 120.017 575.155 119.368 574.063 119.368C573.839 119.368 573.62 119.396 573.405 119.452C573.2 119.508 573.013 119.592 572.845 119.704C572.677 119.816 572.542 119.961 572.439 120.138C572.346 120.306 572.299 120.507 572.299 120.74V125.752H571.179V115.392ZM581.852 125.92C581.358 125.92 580.91 125.831 580.508 125.654C580.116 125.477 579.776 125.225 579.486 124.898C579.206 124.562 578.987 124.165 578.828 123.708C578.679 123.241 578.604 122.719 578.604 122.14C578.604 121.571 578.679 121.053 578.828 120.586C578.987 120.119 579.206 119.723 579.486 119.396C579.776 119.06 580.116 118.803 580.508 118.626C580.91 118.449 581.358 118.36 581.852 118.36C582.338 118.36 582.772 118.449 583.154 118.626C583.537 118.803 583.864 119.051 584.134 119.368C584.405 119.676 584.61 120.045 584.75 120.474C584.9 120.903 584.974 121.375 584.974 121.888V122.42H579.78V122.756C579.78 123.064 579.827 123.353 579.92 123.624C580.023 123.885 580.163 124.114 580.34 124.31C580.527 124.506 580.751 124.66 581.012 124.772C581.283 124.884 581.586 124.94 581.922 124.94C582.38 124.94 582.776 124.833 583.112 124.618C583.458 124.403 583.724 124.095 583.91 123.694L584.708 124.268C584.475 124.763 584.111 125.164 583.616 125.472C583.122 125.771 582.534 125.92 581.852 125.92ZM581.852 119.298C581.544 119.298 581.264 119.354 581.012 119.466C580.76 119.569 580.541 119.718 580.354 119.914C580.177 120.11 580.037 120.343 579.934 120.614C579.832 120.875 579.78 121.165 579.78 121.482V121.58H583.77V121.426C583.77 120.782 583.593 120.269 583.238 119.886C582.893 119.494 582.431 119.298 581.852 119.298ZM444.905 142.576H444.849C444.41 143.472 443.705 143.92 442.735 143.92C442.287 143.92 441.881 143.831 441.517 143.654C441.153 143.477 440.84 143.225 440.579 142.898C440.327 142.571 440.131 142.175 439.991 141.708C439.86 141.241 439.795 140.719 439.795 140.14C439.795 139.561 439.86 139.039 439.991 138.572C440.131 138.105 440.327 137.709 440.579 137.382C440.84 137.055 441.153 136.803 441.517 136.626C441.881 136.449 442.287 136.36 442.735 136.36C443.239 136.36 443.668 136.472 444.023 136.696C444.387 136.911 444.662 137.247 444.849 137.704H444.905V133.392H446.025V143.752H444.905V142.576ZM443.043 142.912C443.295 142.912 443.533 142.879 443.757 142.814C443.99 142.749 444.191 142.655 444.359 142.534C444.527 142.403 444.657 142.249 444.751 142.072C444.853 141.885 444.905 141.675 444.905 141.442V138.754C444.905 138.558 444.853 138.376 444.751 138.208C444.657 138.031 444.527 137.881 444.359 137.76C444.191 137.639 443.99 137.545 443.757 137.48C443.533 137.405 443.295 137.368 443.043 137.368C442.408 137.368 441.909 137.569 441.545 137.97C441.181 138.362 440.999 138.88 440.999 139.524V140.756C440.999 141.4 441.181 141.923 441.545 142.324C441.909 142.716 442.408 142.912 443.043 142.912ZM451.122 143.92C450.627 143.92 450.179 143.831 449.778 143.654C449.386 143.477 449.045 143.225 448.756 142.898C448.476 142.562 448.256 142.165 448.098 141.708C447.948 141.241 447.874 140.719 447.874 140.14C447.874 139.571 447.948 139.053 448.098 138.586C448.256 138.119 448.476 137.723 448.756 137.396C449.045 137.06 449.386 136.803 449.778 136.626C450.179 136.449 450.627 136.36 451.122 136.36C451.607 136.36 452.041 136.449 452.424 136.626C452.806 136.803 453.133 137.051 453.404 137.368C453.674 137.676 453.88 138.045 454.02 138.474C454.169 138.903 454.244 139.375 454.244 139.888V140.42H449.05V140.756C449.05 141.064 449.096 141.353 449.19 141.624C449.292 141.885 449.432 142.114 449.61 142.31C449.796 142.506 450.02 142.66 450.282 142.772C450.552 142.884 450.856 142.94 451.192 142.94C451.649 142.94 452.046 142.833 452.382 142.618C452.727 142.403 452.993 142.095 453.18 141.694L453.978 142.268C453.744 142.763 453.38 143.164 452.886 143.472C452.391 143.771 451.803 143.92 451.122 143.92ZM451.122 137.298C450.814 137.298 450.534 137.354 450.282 137.466C450.03 137.569 449.81 137.718 449.624 137.914C449.446 138.11 449.306 138.343 449.204 138.614C449.101 138.875 449.05 139.165 449.05 139.482V139.58H453.04V139.426C453.04 138.782 452.862 138.269 452.508 137.886C452.162 137.494 451.7 137.298 451.122 137.298ZM457.685 143.752C457.293 143.752 456.995 143.645 456.789 143.43C456.593 143.206 456.495 142.917 456.495 142.562V137.508H455.305V136.528H455.977C456.22 136.528 456.383 136.481 456.467 136.388C456.561 136.285 456.607 136.113 456.607 135.87V134.526H457.615V136.528H459.197V137.508H457.615V142.772H459.085V143.752H457.685ZM466.248 143.752C465.828 143.752 465.524 143.64 465.338 143.416C465.16 143.192 465.048 142.912 465.002 142.576H464.932C464.773 143.024 464.512 143.36 464.148 143.584C463.784 143.808 463.35 143.92 462.846 143.92C462.08 143.92 461.483 143.724 461.054 143.332C460.634 142.94 460.424 142.408 460.424 141.736C460.424 141.055 460.671 140.532 461.166 140.168C461.67 139.804 462.449 139.622 463.504 139.622H464.932V138.908C464.932 138.395 464.792 138.003 464.512 137.732C464.232 137.461 463.802 137.326 463.224 137.326C462.785 137.326 462.416 137.424 462.118 137.62C461.828 137.816 461.586 138.077 461.39 138.404L460.718 137.774C460.914 137.382 461.226 137.051 461.656 136.78C462.085 136.5 462.626 136.36 463.28 136.36C464.157 136.36 464.838 136.575 465.324 137.004C465.809 137.433 466.052 138.031 466.052 138.796V142.772H466.878V143.752H466.248ZM463.028 142.968C463.308 142.968 463.564 142.935 463.798 142.87C464.031 142.805 464.232 142.711 464.4 142.59C464.568 142.469 464.698 142.329 464.792 142.17C464.885 142.011 464.932 141.839 464.932 141.652V140.462H463.448C462.804 140.462 462.332 140.555 462.034 140.742C461.744 140.929 461.6 141.199 461.6 141.554V141.848C461.6 142.203 461.726 142.478 461.978 142.674C462.239 142.87 462.589 142.968 463.028 142.968ZM469.036 134.834C468.793 134.834 468.616 134.778 468.504 134.666C468.401 134.545 468.35 134.391 468.35 134.204V134.022C468.35 133.835 468.401 133.686 468.504 133.574C468.616 133.453 468.793 133.392 469.036 133.392C469.279 133.392 469.451 133.453 469.554 133.574C469.666 133.686 469.722 133.835 469.722 134.022V134.204C469.722 134.391 469.666 134.545 469.554 134.666C469.451 134.778 469.279 134.834 469.036 134.834ZM468.476 136.528H469.596V143.752H468.476V136.528ZM473.166 143.752C472.774 143.752 472.475 143.645 472.27 143.43C472.074 143.206 471.976 142.926 471.976 142.59V133.392H473.096V142.772H474.16V143.752H473.166ZM477.961 143.92C477.289 143.92 476.724 143.794 476.267 143.542C475.819 143.281 475.431 142.935 475.105 142.506L475.903 141.862C476.183 142.217 476.495 142.492 476.841 142.688C477.186 142.875 477.587 142.968 478.045 142.968C478.521 142.968 478.889 142.865 479.151 142.66C479.421 142.455 479.557 142.165 479.557 141.792C479.557 141.512 479.463 141.274 479.277 141.078C479.099 140.873 478.773 140.733 478.297 140.658L477.723 140.574C477.387 140.527 477.079 140.457 476.799 140.364C476.519 140.261 476.271 140.131 476.057 139.972C475.851 139.804 475.688 139.599 475.567 139.356C475.455 139.113 475.399 138.824 475.399 138.488C475.399 138.133 475.464 137.825 475.595 137.564C475.725 137.293 475.903 137.069 476.127 136.892C476.36 136.715 476.635 136.584 476.953 136.5C477.27 136.407 477.611 136.36 477.975 136.36C478.563 136.36 479.053 136.463 479.445 136.668C479.846 136.873 480.196 137.158 480.495 137.522L479.753 138.194C479.594 137.97 479.361 137.769 479.053 137.592C478.745 137.405 478.357 137.312 477.891 137.312C477.424 137.312 477.069 137.415 476.827 137.62C476.593 137.816 476.477 138.087 476.477 138.432C476.477 138.787 476.593 139.043 476.827 139.202C477.069 139.361 477.415 139.477 477.863 139.552L478.423 139.636C479.225 139.757 479.795 139.991 480.131 140.336C480.467 140.672 480.635 141.115 480.635 141.666C480.635 142.366 480.397 142.917 479.921 143.318C479.445 143.719 478.791 143.92 477.961 143.92ZM485.921 133.392H487.041V137.704H487.097C487.284 137.247 487.555 136.911 487.909 136.696C488.273 136.472 488.707 136.36 489.211 136.36C489.659 136.36 490.065 136.449 490.429 136.626C490.793 136.803 491.101 137.055 491.353 137.382C491.615 137.709 491.811 138.105 491.941 138.572C492.081 139.039 492.151 139.561 492.151 140.14C492.151 140.719 492.081 141.241 491.941 141.708C491.811 142.175 491.615 142.571 491.353 142.898C491.101 143.225 490.793 143.477 490.429 143.654C490.065 143.831 489.659 143.92 489.211 143.92C488.231 143.92 487.527 143.472 487.097 142.576H487.041V143.752H485.921V133.392ZM488.903 142.912C489.538 142.912 490.037 142.716 490.401 142.324C490.765 141.923 490.947 141.4 490.947 140.756V139.524C490.947 138.88 490.765 138.362 490.401 137.97C490.037 137.569 489.538 137.368 488.903 137.368C488.651 137.368 488.409 137.405 488.175 137.48C487.951 137.545 487.755 137.639 487.587 137.76C487.419 137.881 487.284 138.031 487.181 138.208C487.088 138.376 487.041 138.558 487.041 138.754V141.442C487.041 141.675 487.088 141.885 487.181 142.072C487.284 142.249 487.419 142.403 487.587 142.534C487.755 142.655 487.951 142.749 488.175 142.814C488.409 142.879 488.651 142.912 488.903 142.912ZM499.293 143.752C498.873 143.752 498.569 143.64 498.383 143.416C498.205 143.192 498.093 142.912 498.047 142.576H497.977C497.818 143.024 497.557 143.36 497.193 143.584C496.829 143.808 496.395 143.92 495.891 143.92C495.125 143.92 494.528 143.724 494.099 143.332C493.679 142.94 493.469 142.408 493.469 141.736C493.469 141.055 493.716 140.532 494.211 140.168C494.715 139.804 495.494 139.622 496.549 139.622H497.977V138.908C497.977 138.395 497.837 138.003 497.557 137.732C497.277 137.461 496.847 137.326 496.269 137.326C495.83 137.326 495.461 137.424 495.163 137.62C494.873 137.816 494.631 138.077 494.435 138.404L493.763 137.774C493.959 137.382 494.271 137.051 494.701 136.78C495.13 136.5 495.671 136.36 496.325 136.36C497.202 136.36 497.883 136.575 498.369 137.004C498.854 137.433 499.097 138.031 499.097 138.796V142.772H499.923V143.752H499.293ZM496.073 142.968C496.353 142.968 496.609 142.935 496.843 142.87C497.076 142.805 497.277 142.711 497.445 142.59C497.613 142.469 497.743 142.329 497.837 142.17C497.93 142.011 497.977 141.839 497.977 141.652V140.462H496.493C495.849 140.462 495.377 140.555 495.079 140.742C494.789 140.929 494.645 141.199 494.645 141.554V141.848C494.645 142.203 494.771 142.478 495.023 142.674C495.284 142.87 495.634 142.968 496.073 142.968ZM503.691 143.92C503.019 143.92 502.454 143.794 501.997 143.542C501.549 143.281 501.162 142.935 500.835 142.506L501.633 141.862C501.913 142.217 502.226 142.492 502.571 142.688C502.916 142.875 503.318 142.968 503.775 142.968C504.251 142.968 504.62 142.865 504.881 142.66C505.152 142.455 505.287 142.165 505.287 141.792C505.287 141.512 505.194 141.274 505.007 141.078C504.83 140.873 504.503 140.733 504.027 140.658L503.453 140.574C503.117 140.527 502.809 140.457 502.529 140.364C502.249 140.261 502.002 140.131 501.787 139.972C501.582 139.804 501.418 139.599 501.297 139.356C501.185 139.113 501.129 138.824 501.129 138.488C501.129 138.133 501.194 137.825 501.325 137.564C501.456 137.293 501.633 137.069 501.857 136.892C502.09 136.715 502.366 136.584 502.683 136.5C503 136.407 503.341 136.36 503.705 136.36C504.293 136.36 504.783 136.463 505.175 136.668C505.576 136.873 505.926 137.158 506.225 137.522L505.483 138.194C505.324 137.97 505.091 137.769 504.783 137.592C504.475 137.405 504.088 137.312 503.621 137.312C503.154 137.312 502.8 137.415 502.557 137.62C502.324 137.816 502.207 138.087 502.207 138.432C502.207 138.787 502.324 139.043 502.557 139.202C502.8 139.361 503.145 139.477 503.593 139.552L504.153 139.636C504.956 139.757 505.525 139.991 505.861 140.336C506.197 140.672 506.365 141.115 506.365 141.666C506.365 142.366 506.127 142.917 505.651 143.318C505.175 143.719 504.522 143.92 503.691 143.92ZM511.059 143.92C510.565 143.92 510.117 143.831 509.715 143.654C509.323 143.477 508.983 143.225 508.693 142.898C508.413 142.562 508.194 142.165 508.035 141.708C507.886 141.241 507.811 140.719 507.811 140.14C507.811 139.571 507.886 139.053 508.035 138.586C508.194 138.119 508.413 137.723 508.693 137.396C508.983 137.06 509.323 136.803 509.715 136.626C510.117 136.449 510.565 136.36 511.059 136.36C511.545 136.36 511.979 136.449 512.361 136.626C512.744 136.803 513.071 137.051 513.341 137.368C513.612 137.676 513.817 138.045 513.957 138.474C514.107 138.903 514.181 139.375 514.181 139.888V140.42H508.987V140.756C508.987 141.064 509.034 141.353 509.127 141.624C509.23 141.885 509.37 142.114 509.547 142.31C509.734 142.506 509.958 142.66 510.219 142.772C510.49 142.884 510.793 142.94 511.129 142.94C511.587 142.94 511.983 142.833 512.319 142.618C512.665 142.403 512.931 142.095 513.117 141.694L513.915 142.268C513.682 142.763 513.318 143.164 512.823 143.472C512.329 143.771 511.741 143.92 511.059 143.92ZM511.059 137.298C510.751 137.298 510.471 137.354 510.219 137.466C509.967 137.569 509.748 137.718 509.561 137.914C509.384 138.11 509.244 138.343 509.141 138.614C509.039 138.875 508.987 139.165 508.987 139.482V139.58H512.977V139.426C512.977 138.782 512.8 138.269 512.445 137.886C512.1 137.494 511.638 137.298 511.059 137.298ZM520.647 142.576H520.591C520.152 143.472 519.448 143.92 518.477 143.92C518.029 143.92 517.623 143.831 517.259 143.654C516.895 143.477 516.582 143.225 516.321 142.898C516.069 142.571 515.873 142.175 515.733 141.708C515.602 141.241 515.537 140.719 515.537 140.14C515.537 139.561 515.602 139.039 515.733 138.572C515.873 138.105 516.069 137.709 516.321 137.382C516.582 137.055 516.895 136.803 517.259 136.626C517.623 136.449 518.029 136.36 518.477 136.36C518.981 136.36 519.41 136.472 519.765 136.696C520.129 136.911 520.404 137.247 520.591 137.704H520.647V133.392H521.767V143.752H520.647V142.576ZM518.785 142.912C519.037 142.912 519.275 142.879 519.499 142.814C519.732 142.749 519.933 142.655 520.101 142.534C520.269 142.403 520.4 142.249 520.493 142.072C520.596 141.885 520.647 141.675 520.647 141.442V138.754C520.647 138.558 520.596 138.376 520.493 138.208C520.4 138.031 520.269 137.881 520.101 137.76C519.933 137.639 519.732 137.545 519.499 137.48C519.275 137.405 519.037 137.368 518.785 137.368C518.15 137.368 517.651 137.569 517.287 137.97C516.923 138.362 516.741 138.88 516.741 139.524V140.756C516.741 141.4 516.923 141.923 517.287 142.324C517.651 142.716 518.15 142.912 518.785 142.912ZM530.187 143.92C529.701 143.92 529.258 143.831 528.857 143.654C528.455 143.477 528.11 143.225 527.821 142.898C527.541 142.562 527.321 142.165 527.163 141.708C527.004 141.241 526.925 140.719 526.925 140.14C526.925 139.571 527.004 139.053 527.163 138.586C527.321 138.119 527.541 137.723 527.821 137.396C528.11 137.06 528.455 136.803 528.857 136.626C529.258 136.449 529.701 136.36 530.187 136.36C530.672 136.36 531.111 136.449 531.503 136.626C531.904 136.803 532.249 137.06 532.539 137.396C532.828 137.723 533.052 138.119 533.211 138.586C533.369 139.053 533.449 139.571 533.449 140.14C533.449 140.719 533.369 141.241 533.211 141.708C533.052 142.165 532.828 142.562 532.539 142.898C532.249 143.225 531.904 143.477 531.503 143.654C531.111 143.831 530.672 143.92 530.187 143.92ZM530.187 142.926C530.793 142.926 531.288 142.739 531.671 142.366C532.053 141.993 532.245 141.423 532.245 140.658V139.622C532.245 138.857 532.053 138.287 531.671 137.914C531.288 137.541 530.793 137.354 530.187 137.354C529.58 137.354 529.085 137.541 528.703 137.914C528.32 138.287 528.129 138.857 528.129 139.622V140.658C528.129 141.423 528.32 141.993 528.703 142.366C529.085 142.739 529.58 142.926 530.187 142.926ZM535.291 143.752V136.528H536.411V137.704H536.467C536.644 137.293 536.891 136.967 537.209 136.724C537.535 136.481 537.969 136.36 538.511 136.36C539.257 136.36 539.845 136.603 540.275 137.088C540.713 137.564 540.933 138.241 540.933 139.118V143.752H539.813V139.314C539.813 138.017 539.267 137.368 538.175 137.368C537.951 137.368 537.731 137.396 537.517 137.452C537.311 137.508 537.125 137.592 536.957 137.704C536.789 137.816 536.653 137.961 536.551 138.138C536.457 138.306 536.411 138.507 536.411 138.74V143.752H535.291ZM548.152 143.752C547.76 143.752 547.462 143.645 547.256 143.43C547.06 143.206 546.962 142.917 546.962 142.562V137.508H545.772V136.528H546.444C546.687 136.528 546.85 136.481 546.934 136.388C547.028 136.285 547.074 136.113 547.074 135.87V134.526H548.082V136.528H549.664V137.508H548.082V142.772H549.552V143.752H548.152ZM551.464 133.392H552.584V137.704H552.64C552.818 137.293 553.065 136.967 553.382 136.724C553.709 136.481 554.143 136.36 554.684 136.36C555.431 136.36 556.019 136.603 556.448 137.088C556.887 137.564 557.106 138.241 557.106 139.118V143.752H555.986V139.314C555.986 138.017 555.44 137.368 554.348 137.368C554.124 137.368 553.905 137.396 553.69 137.452C553.485 137.508 553.298 137.592 553.13 137.704C552.962 137.816 552.827 137.961 552.724 138.138C552.631 138.306 552.584 138.507 552.584 138.74V143.752H551.464V133.392ZM562.137 143.92C561.643 143.92 561.195 143.831 560.793 143.654C560.401 143.477 560.061 143.225 559.771 142.898C559.491 142.562 559.272 142.165 559.113 141.708C558.964 141.241 558.889 140.719 558.889 140.14C558.889 139.571 558.964 139.053 559.113 138.586C559.272 138.119 559.491 137.723 559.771 137.396C560.061 137.06 560.401 136.803 560.793 136.626C561.195 136.449 561.643 136.36 562.137 136.36C562.623 136.36 563.057 136.449 563.439 136.626C563.822 136.803 564.149 137.051 564.419 137.368C564.69 137.676 564.895 138.045 565.035 138.474C565.185 138.903 565.259 139.375 565.259 139.888V140.42H560.065V140.756C560.065 141.064 560.112 141.353 560.205 141.624C560.308 141.885 560.448 142.114 560.625 142.31C560.812 142.506 561.036 142.66 561.297 142.772C561.568 142.884 561.871 142.94 562.207 142.94C562.665 142.94 563.061 142.833 563.397 142.618C563.743 142.403 564.009 142.095 564.195 141.694L564.993 142.268C564.76 142.763 564.396 143.164 563.901 143.472C563.407 143.771 562.819 143.92 562.137 143.92ZM562.137 137.298C561.829 137.298 561.549 137.354 561.297 137.466C561.045 137.569 560.826 137.718 560.639 137.914C560.462 138.11 560.322 138.343 560.219 138.614C560.117 138.875 560.065 139.165 560.065 139.482V139.58H564.055V139.426C564.055 138.782 563.878 138.269 563.523 137.886C563.178 137.494 562.716 137.298 562.137 137.298ZM570.806 137.508H569.63V136.528H570.806V135.072C570.806 134.568 570.936 134.162 571.198 133.854C571.459 133.546 571.856 133.392 572.388 133.392H573.48V134.372H571.926V136.528H573.48V137.508H571.926V143.752H570.806V137.508ZM577.628 143.92C577.143 143.92 576.699 143.831 576.298 143.654C575.897 143.477 575.551 143.225 575.262 142.898C574.982 142.562 574.763 142.165 574.604 141.708C574.445 141.241 574.366 140.719 574.366 140.14C574.366 139.571 574.445 139.053 574.604 138.586C574.763 138.119 574.982 137.723 575.262 137.396C575.551 137.06 575.897 136.803 576.298 136.626C576.699 136.449 577.143 136.36 577.628 136.36C578.113 136.36 578.552 136.449 578.944 136.626C579.345 136.803 579.691 137.06 579.98 137.396C580.269 137.723 580.493 138.119 580.652 138.586C580.811 139.053 580.89 139.571 580.89 140.14C580.89 140.719 580.811 141.241 580.652 141.708C580.493 142.165 580.269 142.562 579.98 142.898C579.691 143.225 579.345 143.477 578.944 143.654C578.552 143.831 578.113 143.92 577.628 143.92ZM577.628 142.926C578.235 142.926 578.729 142.739 579.112 142.366C579.495 141.993 579.686 141.423 579.686 140.658V139.622C579.686 138.857 579.495 138.287 579.112 137.914C578.729 137.541 578.235 137.354 577.628 137.354C577.021 137.354 576.527 137.541 576.144 137.914C575.761 138.287 575.57 138.857 575.57 139.622V140.658C575.57 141.423 575.761 141.993 576.144 142.366C576.527 142.739 577.021 142.926 577.628 142.926ZM582.732 143.752V136.528H583.852V137.858H583.922C584.053 137.513 584.286 137.205 584.622 136.934C584.958 136.663 585.42 136.528 586.008 136.528H586.442V137.648H585.784C585.177 137.648 584.701 137.765 584.356 137.998C584.02 138.222 583.852 138.507 583.852 138.852V143.752H582.732ZM587.873 143.752V136.528H588.993V137.704H589.049C589.133 137.517 589.226 137.345 589.329 137.186C589.441 137.018 589.571 136.873 589.721 136.752C589.879 136.631 590.061 136.537 590.267 136.472C590.472 136.397 590.715 136.36 590.995 136.36C591.471 136.36 591.909 136.477 592.311 136.71C592.712 136.934 593.011 137.307 593.207 137.83H593.235C593.365 137.438 593.608 137.097 593.963 136.808C594.327 136.509 594.817 136.36 595.433 136.36C596.17 136.36 596.744 136.603 597.155 137.088C597.575 137.564 597.785 138.241 597.785 139.118V143.752H596.665V139.314C596.665 138.67 596.539 138.185 596.287 137.858C596.035 137.531 595.633 137.368 595.083 137.368C594.859 137.368 594.644 137.396 594.439 137.452C594.243 137.508 594.065 137.592 593.907 137.704C593.748 137.816 593.622 137.961 593.529 138.138C593.435 138.306 593.389 138.507 593.389 138.74V143.752H592.269V139.314C592.269 138.67 592.143 138.185 591.891 137.858C591.639 137.531 591.247 137.368 590.715 137.368C590.491 137.368 590.276 137.396 590.071 137.452C589.865 137.508 589.683 137.592 589.525 137.704C589.366 137.816 589.235 137.961 589.133 138.138C589.039 138.306 588.993 138.507 588.993 138.74V143.752H587.873Z" fill="#27272A"/>
</svg>
