<svg width="602" height="147" viewBox="0 0 602 147" fill="none" xmlns="http://www.w3.org/2000/svg">
<circle cx="52" cy="36" r="36" fill="#3B82F6"/>
<path d="M28.8089 102V100.074H32.2649V91.146H32.1029L29.3669 94.386L27.8909 93.144L31.0049 89.436H34.5869V100.074H37.4669V102H28.8089ZM43.3639 102.216C42.5599 102.216 41.8639 102.072 41.2759 101.784C40.6879 101.484 40.2019 101.058 39.8179 100.506C39.4339 99.954 39.1459 99.276 38.9539 98.472C38.7739 97.668 38.6839 96.75 38.6839 95.718C38.6839 94.698 38.7739 93.786 38.9539 92.982C39.1459 92.166 39.4339 91.482 39.8179 90.93C40.2019 90.378 40.6879 89.958 41.2759 89.67C41.8639 89.37 42.5599 89.22 43.3639 89.22C44.9599 89.22 46.1359 89.79 46.8919 90.93C47.6599 92.07 48.0439 93.666 48.0439 95.718C48.0439 97.77 47.6599 99.366 46.8919 100.506C46.1359 101.646 44.9599 102.216 43.3639 102.216ZM43.3639 100.218C44.1679 100.218 44.7259 99.918 45.0379 99.318C45.3619 98.706 45.5239 97.884 45.5239 96.852V94.584C45.5239 93.552 45.3619 92.736 45.0379 92.136C44.7259 91.524 44.1679 91.218 43.3639 91.218C42.5599 91.218 41.9959 91.524 41.6719 92.136C41.3599 92.736 41.2039 93.552 41.2039 94.584V96.852C41.2039 97.884 41.3599 98.706 41.6719 99.318C41.9959 99.918 42.5599 100.218 43.3639 100.218ZM54.1568 102.216C53.3528 102.216 52.6568 102.072 52.0688 101.784C51.4808 101.484 50.9948 101.058 50.6108 100.506C50.2268 99.954 49.9388 99.276 49.7468 98.472C49.5668 97.668 49.4768 96.75 49.4768 95.718C49.4768 94.698 49.5668 93.786 49.7468 92.982C49.9388 92.166 50.2268 91.482 50.6108 90.93C50.9948 90.378 51.4808 89.958 52.0688 89.67C52.6568 89.37 53.3528 89.22 54.1568 89.22C55.7528 89.22 56.9288 89.79 57.6848 90.93C58.4528 92.07 58.8368 93.666 58.8368 95.718C58.8368 97.77 58.4528 99.366 57.6848 100.506C56.9288 101.646 55.7528 102.216 54.1568 102.216ZM54.1568 100.218C54.9608 100.218 55.5188 99.918 55.8308 99.318C56.1548 98.706 56.3168 97.884 56.3168 96.852V94.584C56.3168 93.552 56.1548 92.736 55.8308 92.136C55.5188 91.524 54.9608 91.218 54.1568 91.218C53.3528 91.218 52.7888 91.524 52.4648 92.136C52.1528 92.736 51.9968 93.552 51.9968 94.584V96.852C51.9968 97.884 52.1528 98.706 52.4648 99.318C52.7888 99.918 53.3528 100.218 54.1568 100.218ZM62.7898 102L71.5018 89.436H73.5898L64.8778 102H62.7898ZM63.6538 96.348C62.6338 96.348 61.8538 96.048 61.3138 95.448C60.7858 94.836 60.5218 93.948 60.5218 92.784C60.5218 91.62 60.7858 90.738 61.3138 90.138C61.8538 89.526 62.6338 89.22 63.6538 89.22C64.6738 89.22 65.4478 89.526 65.9758 90.138C66.5038 90.738 66.7678 91.62 66.7678 92.784C66.7678 93.948 66.5038 94.836 65.9758 95.448C65.4478 96.048 64.6738 96.348 63.6538 96.348ZM63.6538 94.98C64.3978 94.98 64.7698 94.41 64.7698 93.27V92.298C64.7698 91.158 64.3978 90.588 63.6538 90.588C62.9098 90.588 62.5378 91.158 62.5378 92.298V93.27C62.5378 94.41 62.9098 94.98 63.6538 94.98ZM72.7258 102.216C71.7178 102.216 70.9438 101.916 70.4038 101.316C69.8758 100.704 69.6118 99.816 69.6118 98.652C69.6118 97.488 69.8758 96.606 70.4038 96.006C70.9438 95.394 71.7178 95.088 72.7258 95.088C73.7458 95.088 74.5198 95.394 75.0478 96.006C75.5878 96.606 75.8578 97.488 75.8578 98.652C75.8578 99.816 75.5878 100.704 75.0478 101.316C74.5198 101.916 73.7458 102.216 72.7258 102.216ZM72.7258 100.848C73.4698 100.848 73.8418 100.278 73.8418 99.138V98.166C73.8418 97.026 73.4698 96.456 72.7258 96.456C71.9818 96.456 71.6098 97.026 71.6098 98.166V99.138C71.6098 100.278 71.9818 100.848 72.7258 100.848Z" fill="#27272A"/>
<path d="M2.786 125C2.394 125 2.09533 124.893 1.89 124.678C1.694 124.454 1.596 124.165 1.596 123.81V118.756H0.406V117.776H1.078C1.32067 117.776 1.484 117.729 1.568 117.636C1.66133 117.533 1.708 117.361 1.708 117.118V115.774H2.716V117.776H4.298V118.756H2.716V124.02H4.186V125H2.786ZM11.3482 125C10.9282 125 10.6249 124.888 10.4382 124.664C10.2609 124.44 10.1489 124.16 10.1022 123.824H10.0322C9.87354 124.272 9.6122 124.608 9.2482 124.832C8.8842 125.056 8.4502 125.168 7.9462 125.168C7.18087 125.168 6.58354 124.972 6.1542 124.58C5.7342 124.188 5.5242 123.656 5.5242 122.984C5.5242 122.303 5.77154 121.78 6.2662 121.416C6.7702 121.052 7.54954 120.87 8.6042 120.87H10.0322V120.156C10.0322 119.643 9.8922 119.251 9.6122 118.98C9.3322 118.709 8.90287 118.574 8.3242 118.574C7.88554 118.574 7.51687 118.672 7.2182 118.868C6.92887 119.064 6.6862 119.325 6.4902 119.652L5.8182 119.022C6.0142 118.63 6.32687 118.299 6.7562 118.028C7.18554 117.748 7.72687 117.608 8.3802 117.608C9.25754 117.608 9.93887 117.823 10.4242 118.252C10.9095 118.681 11.1522 119.279 11.1522 120.044V124.02H11.9782V125H11.3482ZM8.1282 124.216C8.4082 124.216 8.66487 124.183 8.8982 124.118C9.13154 124.053 9.3322 123.959 9.5002 123.838C9.6682 123.717 9.79887 123.577 9.8922 123.418C9.98554 123.259 10.0322 123.087 10.0322 122.9V121.71H8.5482C7.9042 121.71 7.43287 121.803 7.1342 121.99C6.84487 122.177 6.7002 122.447 6.7002 122.802V123.096C6.7002 123.451 6.8262 123.726 7.0782 123.922C7.33954 124.118 7.68954 124.216 8.1282 124.216ZM15.7467 125.168C15.0747 125.168 14.5101 125.042 14.0527 124.79C13.6047 124.529 13.2174 124.183 12.8907 123.754L13.6887 123.11C13.9687 123.465 14.2814 123.74 14.6267 123.936C14.9721 124.123 15.3734 124.216 15.8307 124.216C16.3067 124.216 16.6754 124.113 16.9367 123.908C17.2074 123.703 17.3427 123.413 17.3427 123.04C17.3427 122.76 17.2494 122.522 17.0627 122.326C16.8854 122.121 16.5587 121.981 16.0827 121.906L15.5087 121.822C15.1727 121.775 14.8647 121.705 14.5847 121.612C14.3047 121.509 14.0574 121.379 13.8427 121.22C13.6374 121.052 13.4741 120.847 13.3527 120.604C13.2407 120.361 13.1847 120.072 13.1847 119.736C13.1847 119.381 13.2501 119.073 13.3807 118.812C13.5114 118.541 13.6887 118.317 13.9127 118.14C14.1461 117.963 14.4214 117.832 14.7387 117.748C15.0561 117.655 15.3967 117.608 15.7607 117.608C16.3487 117.608 16.8387 117.711 17.2307 117.916C17.6321 118.121 17.9821 118.406 18.2807 118.77L17.5387 119.442C17.3801 119.218 17.1467 119.017 16.8387 118.84C16.5307 118.653 16.1434 118.56 15.6767 118.56C15.2101 118.56 14.8554 118.663 14.6127 118.868C14.3794 119.064 14.2627 119.335 14.2627 119.68C14.2627 120.035 14.3794 120.291 14.6127 120.45C14.8554 120.609 15.2007 120.725 15.6487 120.8L16.2087 120.884C17.0114 121.005 17.5807 121.239 17.9167 121.584C18.2527 121.92 18.4207 122.363 18.4207 122.914C18.4207 123.614 18.1827 124.165 17.7067 124.566C17.2307 124.967 16.5774 125.168 15.7467 125.168ZM20.399 114.64H21.519V121.206H21.575L22.681 119.974L24.725 117.776H26.083L23.409 120.632L26.349 125H24.991L22.597 121.318L21.519 122.424V125H20.399V114.64ZM29.8151 125.168C29.1431 125.168 28.5784 125.042 28.1211 124.79C27.6731 124.529 27.2857 124.183 26.9591 123.754L27.7571 123.11C28.0371 123.465 28.3497 123.74 28.6951 123.936C29.0404 124.123 29.4417 124.216 29.8991 124.216C30.3751 124.216 30.7437 124.113 31.0051 123.908C31.2757 123.703 31.4111 123.413 31.4111 123.04C31.4111 122.76 31.3177 122.522 31.1311 122.326C30.9537 122.121 30.6271 121.981 30.1511 121.906L29.5771 121.822C29.2411 121.775 28.9331 121.705 28.6531 121.612C28.3731 121.509 28.1257 121.379 27.9111 121.22C27.7057 121.052 27.5424 120.847 27.4211 120.604C27.3091 120.361 27.2531 120.072 27.2531 119.736C27.2531 119.381 27.3184 119.073 27.4491 118.812C27.5797 118.541 27.7571 118.317 27.9811 118.14C28.2144 117.963 28.4897 117.832 28.8071 117.748C29.1244 117.655 29.4651 117.608 29.8291 117.608C30.4171 117.608 30.9071 117.711 31.2991 117.916C31.7004 118.121 32.0504 118.406 32.3491 118.77L31.6071 119.442C31.4484 119.218 31.2151 119.017 30.9071 118.84C30.5991 118.653 30.2117 118.56 29.7451 118.56C29.2784 118.56 28.9237 118.663 28.6811 118.868C28.4477 119.064 28.3311 119.335 28.3311 119.68C28.3311 120.035 28.4477 120.291 28.6811 120.45C28.9237 120.609 29.2691 120.725 29.7171 120.8L30.2771 120.884C31.0797 121.005 31.6491 121.239 31.9851 121.584C32.3211 121.92 32.4891 122.363 32.4891 122.914C32.4891 123.614 32.2511 124.165 31.7751 124.566C31.2991 124.967 30.6457 125.168 29.8151 125.168ZM40.4639 125.168C39.9599 125.168 39.5073 125.079 39.1059 124.902C38.7046 124.725 38.3639 124.473 38.0839 124.146C37.8133 123.819 37.6033 123.423 37.4539 122.956C37.3139 122.489 37.2439 121.967 37.2439 121.388C37.2439 120.809 37.3139 120.287 37.4539 119.82C37.6033 119.353 37.8133 118.957 38.0839 118.63C38.3639 118.303 38.7046 118.051 39.1059 117.874C39.5073 117.697 39.9599 117.608 40.4639 117.608C41.1826 117.608 41.7566 117.767 42.1859 118.084C42.6246 118.392 42.9513 118.798 43.1659 119.302L42.2279 119.778C42.0973 119.405 41.8826 119.115 41.5839 118.91C41.2853 118.705 40.9119 118.602 40.4639 118.602C40.1279 118.602 39.8339 118.658 39.5819 118.77C39.3299 118.873 39.1199 119.022 38.9519 119.218C38.7839 119.405 38.6579 119.633 38.5739 119.904C38.4899 120.165 38.4479 120.455 38.4479 120.772V122.004C38.4479 122.639 38.6159 123.161 38.9519 123.572C39.2973 123.973 39.8013 124.174 40.4639 124.174C41.3693 124.174 42.0226 123.754 42.4239 122.914L43.2359 123.46C43.0026 123.983 42.6526 124.398 42.1859 124.706C41.7286 125.014 41.1546 125.168 40.4639 125.168ZM47.4649 125.168C46.9796 125.168 46.5363 125.079 46.1349 124.902C45.7336 124.725 45.3883 124.473 45.0989 124.146C44.8189 123.81 44.5996 123.413 44.4409 122.956C44.2823 122.489 44.2029 121.967 44.2029 121.388C44.2029 120.819 44.2823 120.301 44.4409 119.834C44.5996 119.367 44.8189 118.971 45.0989 118.644C45.3883 118.308 45.7336 118.051 46.1349 117.874C46.5363 117.697 46.9796 117.608 47.4649 117.608C47.9503 117.608 48.3889 117.697 48.7809 117.874C49.1823 118.051 49.5276 118.308 49.8169 118.644C50.1063 118.971 50.3303 119.367 50.4889 119.834C50.6476 120.301 50.7269 120.819 50.7269 121.388C50.7269 121.967 50.6476 122.489 50.4889 122.956C50.3303 123.413 50.1063 123.81 49.8169 124.146C49.5276 124.473 49.1823 124.725 48.7809 124.902C48.3889 125.079 47.9503 125.168 47.4649 125.168ZM47.4649 124.174C48.0716 124.174 48.5663 123.987 48.9489 123.614C49.3316 123.241 49.5229 122.671 49.5229 121.906V120.87C49.5229 120.105 49.3316 119.535 48.9489 119.162C48.5663 118.789 48.0716 118.602 47.4649 118.602C46.8583 118.602 46.3636 118.789 45.9809 119.162C45.5983 119.535 45.4069 120.105 45.4069 120.87V121.906C45.4069 122.671 45.5983 123.241 45.9809 123.614C46.3636 123.987 46.8583 124.174 47.4649 124.174ZM52.5689 125V117.776H53.6889V118.952H53.7449C53.8289 118.765 53.9222 118.593 54.0249 118.434C54.1369 118.266 54.2676 118.121 54.4169 118C54.5756 117.879 54.7576 117.785 54.9629 117.72C55.1682 117.645 55.4109 117.608 55.6909 117.608C56.1669 117.608 56.6056 117.725 57.0069 117.958C57.4082 118.182 57.7069 118.555 57.9029 119.078H57.9309C58.0616 118.686 58.3042 118.345 58.6589 118.056C59.0229 117.757 59.5129 117.608 60.1289 117.608C60.8662 117.608 61.4402 117.851 61.8509 118.336C62.2709 118.812 62.4809 119.489 62.4809 120.366V125H61.3609V120.562C61.3609 119.918 61.2349 119.433 60.9829 119.106C60.7309 118.779 60.3296 118.616 59.7789 118.616C59.5549 118.616 59.3402 118.644 59.1349 118.7C58.9389 118.756 58.7616 118.84 58.6029 118.952C58.4442 119.064 58.3182 119.209 58.2249 119.386C58.1316 119.554 58.0849 119.755 58.0849 119.988V125H56.9649V120.562C56.9649 119.918 56.8389 119.433 56.5869 119.106C56.3349 118.779 55.9429 118.616 55.4109 118.616C55.1869 118.616 54.9722 118.644 54.7669 118.7C54.5616 118.756 54.3796 118.84 54.2209 118.952C54.0622 119.064 53.9316 119.209 53.8289 119.386C53.7356 119.554 53.6889 119.755 53.6889 119.988V125H52.5689ZM64.7916 117.776H65.9116V118.952H65.9676C66.1542 118.495 66.4249 118.159 66.7796 117.944C67.1436 117.72 67.5776 117.608 68.0816 117.608C68.5296 117.608 68.9356 117.697 69.2996 117.874C69.6636 118.051 69.9716 118.303 70.2236 118.63C70.4849 118.957 70.6809 119.353 70.8116 119.82C70.9516 120.287 71.0216 120.809 71.0216 121.388C71.0216 121.967 70.9516 122.489 70.8116 122.956C70.6809 123.423 70.4849 123.819 70.2236 124.146C69.9716 124.473 69.6636 124.725 69.2996 124.902C68.9356 125.079 68.5296 125.168 68.0816 125.168C67.1016 125.168 66.3969 124.72 65.9676 123.824H65.9116V127.8H64.7916V117.776ZM67.7736 124.16C68.4082 124.16 68.9076 123.964 69.2716 123.572C69.6356 123.171 69.8176 122.648 69.8176 122.004V120.772C69.8176 120.128 69.6356 119.61 69.2716 119.218C68.9076 118.817 68.4082 118.616 67.7736 118.616C67.5216 118.616 67.2789 118.653 67.0456 118.728C66.8216 118.793 66.6256 118.887 66.4576 119.008C66.2896 119.129 66.1542 119.279 66.0516 119.456C65.9582 119.624 65.9116 119.806 65.9116 120.002V122.69C65.9116 122.923 65.9582 123.133 66.0516 123.32C66.1542 123.497 66.2896 123.651 66.4576 123.782C66.6256 123.903 66.8216 123.997 67.0456 124.062C67.2789 124.127 67.5216 124.16 67.7736 124.16ZM74.1027 125C73.7107 125 73.412 124.893 73.2067 124.678C73.0107 124.454 72.9127 124.174 72.9127 123.838V114.64H74.0327V124.02H75.0967V125H74.1027ZM79.4431 125.168C78.9484 125.168 78.5004 125.079 78.0991 124.902C77.7071 124.725 77.3664 124.473 77.0771 124.146C76.7971 123.81 76.5778 123.413 76.4191 122.956C76.2698 122.489 76.1951 121.967 76.1951 121.388C76.1951 120.819 76.2698 120.301 76.4191 119.834C76.5778 119.367 76.7971 118.971 77.0771 118.644C77.3664 118.308 77.7071 118.051 78.0991 117.874C78.5004 117.697 78.9484 117.608 79.4431 117.608C79.9284 117.608 80.3624 117.697 80.7451 117.874C81.1278 118.051 81.4544 118.299 81.7251 118.616C81.9958 118.924 82.2011 119.293 82.3411 119.722C82.4904 120.151 82.5651 120.623 82.5651 121.136V121.668H77.3711V122.004C77.3711 122.312 77.4178 122.601 77.5111 122.872C77.6138 123.133 77.7538 123.362 77.9311 123.558C78.1178 123.754 78.3418 123.908 78.6031 124.02C78.8738 124.132 79.1771 124.188 79.5131 124.188C79.9704 124.188 80.3671 124.081 80.7031 123.866C81.0484 123.651 81.3144 123.343 81.5011 122.942L82.2991 123.516C82.0658 124.011 81.7018 124.412 81.2071 124.72C80.7124 125.019 80.1244 125.168 79.4431 125.168ZM79.4431 118.546C79.1351 118.546 78.8551 118.602 78.6031 118.714C78.3511 118.817 78.1318 118.966 77.9451 119.162C77.7678 119.358 77.6278 119.591 77.5251 119.862C77.4224 120.123 77.3711 120.413 77.3711 120.73V120.828H81.3611V120.674C81.3611 120.03 81.1838 119.517 80.8291 119.134C80.4838 118.742 80.0218 118.546 79.4431 118.546ZM86.0067 125C85.6147 125 85.316 124.893 85.1107 124.678C84.9147 124.454 84.8167 124.165 84.8167 123.81V118.756H83.6267V117.776H84.2987C84.5414 117.776 84.7047 117.729 84.7887 117.636C84.882 117.533 84.9287 117.361 84.9287 117.118V115.774H85.9367V117.776H87.5187V118.756H85.9367V124.02H87.4067V125H86.0067ZM91.9802 125.168C91.4856 125.168 91.0376 125.079 90.6362 124.902C90.2442 124.725 89.9036 124.473 89.6142 124.146C89.3342 123.81 89.1149 123.413 88.9562 122.956C88.8069 122.489 88.7322 121.967 88.7322 121.388C88.7322 120.819 88.8069 120.301 88.9562 119.834C89.1149 119.367 89.3342 118.971 89.6142 118.644C89.9036 118.308 90.2442 118.051 90.6362 117.874C91.0376 117.697 91.4856 117.608 91.9802 117.608C92.4656 117.608 92.8996 117.697 93.2822 117.874C93.6649 118.051 93.9916 118.299 94.2622 118.616C94.5329 118.924 94.7382 119.293 94.8782 119.722C95.0276 120.151 95.1022 120.623 95.1022 121.136V121.668H89.9082V122.004C89.9082 122.312 89.9549 122.601 90.0482 122.872C90.1509 123.133 90.2909 123.362 90.4682 123.558C90.6549 123.754 90.8789 123.908 91.1402 124.02C91.4109 124.132 91.7142 124.188 92.0502 124.188C92.5076 124.188 92.9042 124.081 93.2402 123.866C93.5856 123.651 93.8516 123.343 94.0382 122.942L94.8362 123.516C94.6029 124.011 94.2389 124.412 93.7442 124.72C93.2496 125.019 92.6616 125.168 91.9802 125.168ZM91.9802 118.546C91.6722 118.546 91.3922 118.602 91.1402 118.714C90.8882 118.817 90.6689 118.966 90.4822 119.162C90.3049 119.358 90.1649 119.591 90.0622 119.862C89.9596 120.123 89.9082 120.413 89.9082 120.73V120.828H93.8982V120.674C93.8982 120.03 93.7209 119.517 93.3662 119.134C93.0209 118.742 92.5589 118.546 91.9802 118.546ZM101.568 123.824H101.512C101.073 124.72 100.368 125.168 99.3978 125.168C98.9498 125.168 98.5438 125.079 98.1798 124.902C97.8158 124.725 97.5031 124.473 97.2418 124.146C96.9898 123.819 96.7938 123.423 96.6538 122.956C96.5231 122.489 96.4578 121.967 96.4578 121.388C96.4578 120.809 96.5231 120.287 96.6538 119.82C96.7938 119.353 96.9898 118.957 97.2418 118.63C97.5031 118.303 97.8158 118.051 98.1798 117.874C98.5438 117.697 98.9498 117.608 99.3978 117.608C99.9018 117.608 100.331 117.72 100.686 117.944C101.05 118.159 101.325 118.495 101.512 118.952H101.568V114.64H102.688V125H101.568V123.824ZM99.7058 124.16C99.9578 124.16 100.196 124.127 100.42 124.062C100.653 123.997 100.854 123.903 101.022 123.782C101.19 123.651 101.32 123.497 101.414 123.32C101.516 123.133 101.568 122.923 101.568 122.69V120.002C101.568 119.806 101.516 119.624 101.414 119.456C101.32 119.279 101.19 119.129 101.022 119.008C100.854 118.887 100.653 118.793 100.42 118.728C100.196 118.653 99.9578 118.616 99.7058 118.616C99.0711 118.616 98.5718 118.817 98.2078 119.218C97.8438 119.61 97.6618 120.128 97.6618 120.772V122.004C97.6618 122.648 97.8438 123.171 98.2078 123.572C98.5718 123.964 99.0711 124.16 99.7058 124.16Z" fill="#27272A"/>
<path d="M295.456 10.5442C301.861 16.9497 305.617 25.5348 305.972 34.5867C306.328 43.6385 303.258 52.4917 297.375 59.3801C291.491 66.2685 283.227 70.6857 274.231 71.7505C265.235 72.8152 256.168 70.4493 248.84 65.1246C241.511 59.7999 236.459 51.908 234.692 43.0232C232.924 34.1384 234.572 24.914 239.305 17.19C244.038 9.46609 251.509 3.81054 260.228 1.3516C268.947 -1.10733 278.272 -0.188859 286.344 3.92378L270 36L295.456 10.5442Z" fill="#3B82F6"/>
<path d="M260.485 94.152C260.485 95.052 260.347 95.904 260.071 96.708C259.807 97.5 259.459 98.232 259.027 98.904C258.595 99.564 258.109 100.158 257.569 100.686C257.041 101.202 256.513 101.64 255.985 102H252.781C253.513 101.472 254.173 100.962 254.761 100.47C255.349 99.978 255.859 99.48 256.291 98.976C256.735 98.472 257.095 97.95 257.371 97.41C257.659 96.858 257.875 96.264 258.019 95.628L257.875 95.592C257.755 95.832 257.611 96.066 257.443 96.294C257.287 96.522 257.095 96.72 256.867 96.888C256.639 97.056 256.375 97.194 256.075 97.302C255.775 97.398 255.427 97.446 255.031 97.446C254.503 97.446 254.017 97.356 253.573 97.176C253.129 96.996 252.739 96.738 252.403 96.402C252.079 96.054 251.821 95.646 251.629 95.178C251.449 94.698 251.359 94.158 251.359 93.558C251.359 92.922 251.467 92.34 251.683 91.812C251.899 91.284 252.205 90.828 252.601 90.444C252.997 90.06 253.471 89.76 254.023 89.544C254.587 89.328 255.217 89.22 255.913 89.22C256.633 89.22 257.275 89.34 257.839 89.58C258.403 89.808 258.883 90.138 259.279 90.57C259.675 90.99 259.975 91.506 260.179 92.118C260.383 92.718 260.485 93.396 260.485 94.152ZM255.913 95.61C256.585 95.61 257.107 95.43 257.479 95.07C257.851 94.698 258.037 94.17 258.037 93.486V93.216C258.037 92.532 257.851 92.01 257.479 91.65C257.107 91.278 256.585 91.092 255.913 91.092C255.253 91.092 254.731 91.278 254.347 91.65C253.975 92.01 253.789 92.532 253.789 93.216V93.486C253.789 94.17 253.975 94.698 254.347 95.07C254.731 95.43 255.253 95.61 255.913 95.61ZM270.63 91.488H264.978L264.69 95.7H264.816C264.948 95.436 265.092 95.19 265.248 94.962C265.404 94.734 265.584 94.542 265.788 94.386C265.992 94.23 266.226 94.11 266.49 94.026C266.766 93.93 267.096 93.882 267.48 93.882C268.02 93.882 268.524 93.972 268.992 94.152C269.46 94.332 269.862 94.596 270.198 94.944C270.546 95.28 270.816 95.694 271.008 96.186C271.212 96.678 271.314 97.236 271.314 97.86C271.314 98.496 271.212 99.078 271.008 99.606C270.804 100.134 270.504 100.596 270.108 100.992C269.712 101.376 269.226 101.676 268.65 101.892C268.074 102.108 267.414 102.216 266.67 102.216C266.094 102.216 265.578 102.15 265.122 102.018C264.666 101.898 264.264 101.73 263.916 101.514C263.568 101.298 263.268 101.052 263.016 100.776C262.764 100.488 262.542 100.188 262.35 99.876L264.078 98.544C264.222 98.784 264.372 99.012 264.528 99.228C264.684 99.432 264.864 99.612 265.068 99.768C265.284 99.924 265.518 100.05 265.77 100.146C266.034 100.23 266.34 100.272 266.688 100.272C267.396 100.272 267.93 100.074 268.29 99.678C268.662 99.282 268.848 98.742 268.848 98.058V97.914C268.848 97.266 268.662 96.756 268.29 96.384C267.918 96.012 267.402 95.826 266.742 95.826C266.226 95.826 265.806 95.928 265.482 96.132C265.158 96.324 264.9 96.534 264.708 96.762L262.764 96.492L263.232 89.436H270.63V91.488ZM275.393 102L284.105 89.436H286.193L277.481 102H275.393ZM276.257 96.348C275.237 96.348 274.457 96.048 273.917 95.448C273.389 94.836 273.125 93.948 273.125 92.784C273.125 91.62 273.389 90.738 273.917 90.138C274.457 89.526 275.237 89.22 276.257 89.22C277.277 89.22 278.051 89.526 278.579 90.138C279.107 90.738 279.371 91.62 279.371 92.784C279.371 93.948 279.107 94.836 278.579 95.448C278.051 96.048 277.277 96.348 276.257 96.348ZM276.257 94.98C277.001 94.98 277.373 94.41 277.373 93.27V92.298C277.373 91.158 277.001 90.588 276.257 90.588C275.513 90.588 275.141 91.158 275.141 92.298V93.27C275.141 94.41 275.513 94.98 276.257 94.98ZM285.329 102.216C284.321 102.216 283.547 101.916 283.007 101.316C282.479 100.704 282.215 99.816 282.215 98.652C282.215 97.488 282.479 96.606 283.007 96.006C283.547 95.394 284.321 95.088 285.329 95.088C286.349 95.088 287.123 95.394 287.651 96.006C288.191 96.606 288.461 97.488 288.461 98.652C288.461 99.816 288.191 100.704 287.651 101.316C287.123 101.916 286.349 102.216 285.329 102.216ZM285.329 100.848C286.073 100.848 286.445 100.278 286.445 99.138V98.166C286.445 97.026 286.073 96.456 285.329 96.456C284.585 96.456 284.213 97.026 284.213 98.166V99.138C284.213 100.278 284.585 100.848 285.329 100.848Z" fill="#27272A"/>
<path d="M205.587 125.168C205.083 125.168 204.63 125.079 204.229 124.902C203.828 124.725 203.487 124.473 203.207 124.146C202.936 123.819 202.726 123.423 202.577 122.956C202.437 122.489 202.367 121.967 202.367 121.388C202.367 120.809 202.437 120.287 202.577 119.82C202.726 119.353 202.936 118.957 203.207 118.63C203.487 118.303 203.828 118.051 204.229 117.874C204.63 117.697 205.083 117.608 205.587 117.608C206.306 117.608 206.88 117.767 207.309 118.084C207.748 118.392 208.074 118.798 208.289 119.302L207.351 119.778C207.22 119.405 207.006 119.115 206.707 118.91C206.408 118.705 206.035 118.602 205.587 118.602C205.251 118.602 204.957 118.658 204.705 118.77C204.453 118.873 204.243 119.022 204.075 119.218C203.907 119.405 203.781 119.633 203.697 119.904C203.613 120.165 203.571 120.455 203.571 120.772V122.004C203.571 122.639 203.739 123.161 204.075 123.572C204.42 123.973 204.924 124.174 205.587 124.174C206.492 124.174 207.146 123.754 207.547 122.914L208.359 123.46C208.126 123.983 207.776 124.398 207.309 124.706C206.852 125.014 206.278 125.168 205.587 125.168ZM212.588 125.168C212.103 125.168 211.659 125.079 211.258 124.902C210.857 124.725 210.511 124.473 210.222 124.146C209.942 123.81 209.723 123.413 209.564 122.956C209.405 122.489 209.326 121.967 209.326 121.388C209.326 120.819 209.405 120.301 209.564 119.834C209.723 119.367 209.942 118.971 210.222 118.644C210.511 118.308 210.857 118.051 211.258 117.874C211.659 117.697 212.103 117.608 212.588 117.608C213.073 117.608 213.512 117.697 213.904 117.874C214.305 118.051 214.651 118.308 214.94 118.644C215.229 118.971 215.453 119.367 215.612 119.834C215.771 120.301 215.85 120.819 215.85 121.388C215.85 121.967 215.771 122.489 215.612 122.956C215.453 123.413 215.229 123.81 214.94 124.146C214.651 124.473 214.305 124.725 213.904 124.902C213.512 125.079 213.073 125.168 212.588 125.168ZM212.588 124.174C213.195 124.174 213.689 123.987 214.072 123.614C214.455 123.241 214.646 122.671 214.646 121.906V120.87C214.646 120.105 214.455 119.535 214.072 119.162C213.689 118.789 213.195 118.602 212.588 118.602C211.981 118.602 211.487 118.789 211.104 119.162C210.721 119.535 210.53 120.105 210.53 120.87V121.906C210.53 122.671 210.721 123.241 211.104 123.614C211.487 123.987 211.981 124.174 212.588 124.174ZM217.692 125V117.776H218.812V119.106H218.882C219.013 118.761 219.246 118.453 219.582 118.182C219.918 117.911 220.38 117.776 220.968 117.776H221.402V118.896H220.744C220.137 118.896 219.661 119.013 219.316 119.246C218.98 119.47 218.812 119.755 218.812 120.1V125H217.692ZM222.833 125V117.776H223.953V119.106H224.023C224.153 118.761 224.387 118.453 224.723 118.182C225.059 117.911 225.521 117.776 226.109 117.776H226.543V118.896H225.885C225.278 118.896 224.802 119.013 224.457 119.246C224.121 119.47 223.953 119.755 223.953 120.1V125H222.833ZM230.621 125.168C230.126 125.168 229.678 125.079 229.277 124.902C228.885 124.725 228.544 124.473 228.255 124.146C227.975 123.81 227.756 123.413 227.597 122.956C227.448 122.489 227.373 121.967 227.373 121.388C227.373 120.819 227.448 120.301 227.597 119.834C227.756 119.367 227.975 118.971 228.255 118.644C228.544 118.308 228.885 118.051 229.277 117.874C229.678 117.697 230.126 117.608 230.621 117.608C231.106 117.608 231.54 117.697 231.923 117.874C232.306 118.051 232.632 118.299 232.903 118.616C233.174 118.924 233.379 119.293 233.519 119.722C233.668 120.151 233.743 120.623 233.743 121.136V121.668H228.549V122.004C228.549 122.312 228.596 122.601 228.689 122.872C228.792 123.133 228.932 123.362 229.109 123.558C229.296 123.754 229.52 123.908 229.781 124.02C230.052 124.132 230.355 124.188 230.691 124.188C231.148 124.188 231.545 124.081 231.881 123.866C232.226 123.651 232.492 123.343 232.679 122.942L233.477 123.516C233.244 124.011 232.88 124.412 232.385 124.72C231.89 125.019 231.302 125.168 230.621 125.168ZM230.621 118.546C230.313 118.546 230.033 118.602 229.781 118.714C229.529 118.817 229.31 118.966 229.123 119.162C228.946 119.358 228.806 119.591 228.703 119.862C228.6 120.123 228.549 120.413 228.549 120.73V120.828H232.539V120.674C232.539 120.03 232.362 119.517 232.007 119.134C231.662 118.742 231.2 118.546 230.621 118.546ZM238.276 125.168C237.772 125.168 237.32 125.079 236.918 124.902C236.517 124.725 236.176 124.473 235.896 124.146C235.626 123.819 235.416 123.423 235.266 122.956C235.126 122.489 235.056 121.967 235.056 121.388C235.056 120.809 235.126 120.287 235.266 119.82C235.416 119.353 235.626 118.957 235.896 118.63C236.176 118.303 236.517 118.051 236.918 117.874C237.32 117.697 237.772 117.608 238.276 117.608C238.995 117.608 239.569 117.767 239.998 118.084C240.437 118.392 240.764 118.798 240.978 119.302L240.04 119.778C239.91 119.405 239.695 119.115 239.396 118.91C239.098 118.705 238.724 118.602 238.276 118.602C237.94 118.602 237.646 118.658 237.394 118.77C237.142 118.873 236.932 119.022 236.764 119.218C236.596 119.405 236.47 119.633 236.386 119.904C236.302 120.165 236.26 120.455 236.26 120.772V122.004C236.26 122.639 236.428 123.161 236.764 123.572C237.11 123.973 237.614 124.174 238.276 124.174C239.182 124.174 239.835 123.754 240.236 122.914L241.048 123.46C240.815 123.983 240.465 124.398 239.998 124.706C239.541 125.014 238.967 125.168 238.276 125.168ZM244.225 125C243.833 125 243.535 124.893 243.329 124.678C243.133 124.454 243.035 124.165 243.035 123.81V118.756H241.845V117.776H242.517C242.76 117.776 242.923 117.729 243.007 117.636C243.101 117.533 243.147 117.361 243.147 117.118V115.774H244.155V117.776H245.737V118.756H244.155V124.02H245.625V125H244.225ZM248.728 125C248.336 125 248.037 124.893 247.832 124.678C247.636 124.454 247.538 124.174 247.538 123.838V114.64H248.658V124.02H249.722V125H248.728ZM255.667 117.776H256.773L253.539 126.68C253.455 126.895 253.371 127.072 253.287 127.212C253.203 127.361 253.101 127.478 252.979 127.562C252.858 127.646 252.704 127.707 252.517 127.744C252.34 127.781 252.121 127.8 251.859 127.8H251.285V126.82H252.419L252.965 125.28L250.263 117.776H251.383L253.119 122.69L253.455 123.866H253.525L253.917 122.69L255.667 117.776ZM266.13 123.824H266.074C265.636 124.72 264.931 125.168 263.96 125.168C263.512 125.168 263.106 125.079 262.742 124.902C262.378 124.725 262.066 124.473 261.804 124.146C261.552 123.819 261.356 123.423 261.216 122.956C261.086 122.489 261.02 121.967 261.02 121.388C261.02 120.809 261.086 120.287 261.216 119.82C261.356 119.353 261.552 118.957 261.804 118.63C262.066 118.303 262.378 118.051 262.742 117.874C263.106 117.697 263.512 117.608 263.96 117.608C264.464 117.608 264.894 117.72 265.248 117.944C265.612 118.159 265.888 118.495 266.074 118.952H266.13V114.64H267.25V125H266.13V123.824ZM264.268 124.16C264.52 124.16 264.758 124.127 264.982 124.062C265.216 123.997 265.416 123.903 265.584 123.782C265.752 123.651 265.883 123.497 265.976 123.32C266.079 123.133 266.13 122.923 266.13 122.69V120.002C266.13 119.806 266.079 119.624 265.976 119.456C265.883 119.279 265.752 119.129 265.584 119.008C265.416 118.887 265.216 118.793 264.982 118.728C264.758 118.653 264.52 118.616 264.268 118.616C263.634 118.616 263.134 118.817 262.77 119.218C262.406 119.61 262.224 120.128 262.224 120.772V122.004C262.224 122.648 262.406 123.171 262.77 123.572C263.134 123.964 263.634 124.16 264.268 124.16ZM272.347 125.168C271.853 125.168 271.405 125.079 271.003 124.902C270.611 124.725 270.271 124.473 269.981 124.146C269.701 123.81 269.482 123.413 269.323 122.956C269.174 122.489 269.099 121.967 269.099 121.388C269.099 120.819 269.174 120.301 269.323 119.834C269.482 119.367 269.701 118.971 269.981 118.644C270.271 118.308 270.611 118.051 271.003 117.874C271.405 117.697 271.853 117.608 272.347 117.608C272.833 117.608 273.267 117.697 273.649 117.874C274.032 118.051 274.359 118.299 274.629 118.616C274.9 118.924 275.105 119.293 275.245 119.722C275.395 120.151 275.469 120.623 275.469 121.136V121.668H270.275V122.004C270.275 122.312 270.322 122.601 270.415 122.872C270.518 123.133 270.658 123.362 270.835 123.558C271.022 123.754 271.246 123.908 271.507 124.02C271.778 124.132 272.081 124.188 272.417 124.188C272.875 124.188 273.271 124.081 273.607 123.866C273.953 123.651 274.219 123.343 274.405 122.942L275.203 123.516C274.97 124.011 274.606 124.412 274.111 124.72C273.617 125.019 273.029 125.168 272.347 125.168ZM272.347 118.546C272.039 118.546 271.759 118.602 271.507 118.714C271.255 118.817 271.036 118.966 270.849 119.162C270.672 119.358 270.532 119.591 270.429 119.862C270.327 120.123 270.275 120.413 270.275 120.73V120.828H274.265V120.674C274.265 120.03 274.088 119.517 273.733 119.134C273.388 118.742 272.926 118.546 272.347 118.546ZM279.485 125.168C278.813 125.168 278.248 125.042 277.791 124.79C277.343 124.529 276.956 124.183 276.629 123.754L277.427 123.11C277.707 123.465 278.02 123.74 278.365 123.936C278.71 124.123 279.112 124.216 279.569 124.216C280.045 124.216 280.414 124.113 280.675 123.908C280.946 123.703 281.081 123.413 281.081 123.04C281.081 122.76 280.988 122.522 280.801 122.326C280.624 122.121 280.297 121.981 279.821 121.906L279.247 121.822C278.911 121.775 278.603 121.705 278.323 121.612C278.043 121.509 277.796 121.379 277.581 121.22C277.376 121.052 277.212 120.847 277.091 120.604C276.979 120.361 276.923 120.072 276.923 119.736C276.923 119.381 276.988 119.073 277.119 118.812C277.25 118.541 277.427 118.317 277.651 118.14C277.884 117.963 278.16 117.832 278.477 117.748C278.794 117.655 279.135 117.608 279.499 117.608C280.087 117.608 280.577 117.711 280.969 117.916C281.37 118.121 281.72 118.406 282.019 118.77L281.277 119.442C281.118 119.218 280.885 119.017 280.577 118.84C280.269 118.653 279.882 118.56 279.415 118.56C278.948 118.56 278.594 118.663 278.351 118.868C278.118 119.064 278.001 119.335 278.001 119.68C278.001 120.035 278.118 120.291 278.351 120.45C278.594 120.609 278.939 120.725 279.387 120.8L279.947 120.884C280.75 121.005 281.319 121.239 281.655 121.584C281.991 121.92 282.159 122.363 282.159 122.914C282.159 123.614 281.921 124.165 281.445 124.566C280.969 124.967 280.316 125.168 279.485 125.168ZM286.825 125.168C286.321 125.168 285.869 125.079 285.467 124.902C285.066 124.725 284.725 124.473 284.445 124.146C284.175 123.819 283.965 123.423 283.815 122.956C283.675 122.489 283.605 121.967 283.605 121.388C283.605 120.809 283.675 120.287 283.815 119.82C283.965 119.353 284.175 118.957 284.445 118.63C284.725 118.303 285.066 118.051 285.467 117.874C285.869 117.697 286.321 117.608 286.825 117.608C287.544 117.608 288.118 117.767 288.547 118.084C288.986 118.392 289.313 118.798 289.527 119.302L288.589 119.778C288.459 119.405 288.244 119.115 287.945 118.91C287.647 118.705 287.273 118.602 286.825 118.602C286.489 118.602 286.195 118.658 285.943 118.77C285.691 118.873 285.481 119.022 285.313 119.218C285.145 119.405 285.019 119.633 284.935 119.904C284.851 120.165 284.809 120.455 284.809 120.772V122.004C284.809 122.639 284.977 123.161 285.313 123.572C285.659 123.973 286.163 124.174 286.825 124.174C287.731 124.174 288.384 123.754 288.785 122.914L289.597 123.46C289.364 123.983 289.014 124.398 288.547 124.706C288.09 125.014 287.516 125.168 286.825 125.168ZM291.178 125V117.776H292.298V119.106H292.368C292.499 118.761 292.732 118.453 293.068 118.182C293.404 117.911 293.866 117.776 294.454 117.776H294.888V118.896H294.23C293.624 118.896 293.148 119.013 292.802 119.246C292.466 119.47 292.298 119.755 292.298 120.1V125H291.178ZM296.879 116.082C296.636 116.082 296.459 116.026 296.347 115.914C296.244 115.793 296.193 115.639 296.193 115.452V115.27C296.193 115.083 296.244 114.934 296.347 114.822C296.459 114.701 296.636 114.64 296.879 114.64C297.122 114.64 297.294 114.701 297.397 114.822C297.509 114.934 297.565 115.083 297.565 115.27V115.452C297.565 115.639 297.509 115.793 297.397 115.914C297.294 116.026 297.122 116.082 296.879 116.082ZM296.319 117.776H297.439V125H296.319V117.776ZM299.819 114.64H300.939V118.952H300.995C301.182 118.495 301.452 118.159 301.807 117.944C302.171 117.72 302.605 117.608 303.109 117.608C303.557 117.608 303.963 117.697 304.327 117.874C304.691 118.051 304.999 118.303 305.251 118.63C305.512 118.957 305.708 119.353 305.839 119.82C305.979 120.287 306.049 120.809 306.049 121.388C306.049 121.967 305.979 122.489 305.839 122.956C305.708 123.423 305.512 123.819 305.251 124.146C304.999 124.473 304.691 124.725 304.327 124.902C303.963 125.079 303.557 125.168 303.109 125.168C302.129 125.168 301.424 124.72 300.995 123.824H300.939V125H299.819V114.64ZM302.801 124.16C303.436 124.16 303.935 123.964 304.299 123.572C304.663 123.171 304.845 122.648 304.845 122.004V120.772C304.845 120.128 304.663 119.61 304.299 119.218C303.935 118.817 303.436 118.616 302.801 118.616C302.549 118.616 302.306 118.653 302.073 118.728C301.849 118.793 301.653 118.887 301.485 119.008C301.317 119.129 301.182 119.279 301.079 119.456C300.986 119.624 300.939 119.806 300.939 120.002V122.69C300.939 122.923 300.986 123.133 301.079 123.32C301.182 123.497 301.317 123.651 301.485 123.782C301.653 123.903 301.849 123.997 302.073 124.062C302.306 124.127 302.549 124.16 302.801 124.16ZM310.656 125.168C310.161 125.168 309.713 125.079 309.312 124.902C308.92 124.725 308.579 124.473 308.29 124.146C308.01 123.81 307.791 123.413 307.632 122.956C307.483 122.489 307.408 121.967 307.408 121.388C307.408 120.819 307.483 120.301 307.632 119.834C307.791 119.367 308.01 118.971 308.29 118.644C308.579 118.308 308.92 118.051 309.312 117.874C309.713 117.697 310.161 117.608 310.656 117.608C311.141 117.608 311.575 117.697 311.958 117.874C312.341 118.051 312.667 118.299 312.938 118.616C313.209 118.924 313.414 119.293 313.554 119.722C313.703 120.151 313.778 120.623 313.778 121.136V121.668H308.584V122.004C308.584 122.312 308.631 122.601 308.724 122.872C308.827 123.133 308.967 123.362 309.144 123.558C309.331 123.754 309.555 123.908 309.816 124.02C310.087 124.132 310.39 124.188 310.726 124.188C311.183 124.188 311.58 124.081 311.916 123.866C312.261 123.651 312.527 123.343 312.714 122.942L313.512 123.516C313.279 124.011 312.915 124.412 312.42 124.72C311.925 125.019 311.337 125.168 310.656 125.168ZM310.656 118.546C310.348 118.546 310.068 118.602 309.816 118.714C309.564 118.817 309.345 118.966 309.158 119.162C308.981 119.358 308.841 119.591 308.738 119.862C308.635 120.123 308.584 120.413 308.584 120.73V120.828H312.574V120.674C312.574 120.03 312.397 119.517 312.042 119.134C311.697 118.742 311.235 118.546 310.656 118.546ZM320.528 125C320.136 125 319.838 124.893 319.632 124.678C319.436 124.454 319.338 124.165 319.338 123.81V118.756H318.148V117.776H318.82C319.063 117.776 319.226 117.729 319.31 117.636C319.404 117.533 319.45 117.361 319.45 117.118V115.774H320.458V117.776H322.04V118.756H320.458V124.02H321.928V125H320.528ZM323.84 114.64H324.96V118.952H325.016C325.194 118.541 325.441 118.215 325.758 117.972C326.085 117.729 326.519 117.608 327.06 117.608C327.807 117.608 328.395 117.851 328.824 118.336C329.263 118.812 329.482 119.489 329.482 120.366V125H328.362V120.562C328.362 119.265 327.816 118.616 326.724 118.616C326.5 118.616 326.281 118.644 326.066 118.7C325.861 118.756 325.674 118.84 325.506 118.952C325.338 119.064 325.203 119.209 325.1 119.386C325.007 119.554 324.96 119.755 324.96 119.988V125H323.84V114.64ZM334.513 125.168C334.019 125.168 333.571 125.079 333.169 124.902C332.777 124.725 332.437 124.473 332.147 124.146C331.867 123.81 331.648 123.413 331.489 122.956C331.34 122.489 331.265 121.967 331.265 121.388C331.265 120.819 331.34 120.301 331.489 119.834C331.648 119.367 331.867 118.971 332.147 118.644C332.437 118.308 332.777 118.051 333.169 117.874C333.571 117.697 334.019 117.608 334.513 117.608C334.999 117.608 335.433 117.697 335.815 117.874C336.198 118.051 336.525 118.299 336.795 118.616C337.066 118.924 337.271 119.293 337.411 119.722C337.561 120.151 337.635 120.623 337.635 121.136V121.668H332.441V122.004C332.441 122.312 332.488 122.601 332.581 122.872C332.684 123.133 332.824 123.362 333.001 123.558C333.188 123.754 333.412 123.908 333.673 124.02C333.944 124.132 334.247 124.188 334.583 124.188C335.041 124.188 335.437 124.081 335.773 123.866C336.119 123.651 336.385 123.343 336.571 122.942L337.369 123.516C337.136 124.011 336.772 124.412 336.277 124.72C335.783 125.019 335.195 125.168 334.513 125.168ZM334.513 118.546C334.205 118.546 333.925 118.602 333.673 118.714C333.421 118.817 333.202 118.966 333.015 119.162C332.838 119.358 332.698 119.591 332.595 119.862C332.493 120.123 332.441 120.413 332.441 120.73V120.828H336.431V120.674C336.431 120.03 336.254 119.517 335.899 119.134C335.554 118.742 335.092 118.546 334.513 118.546ZM209.12 135.776H210.24V136.952H210.296C210.482 136.495 210.753 136.159 211.108 135.944C211.472 135.72 211.906 135.608 212.41 135.608C212.858 135.608 213.264 135.697 213.628 135.874C213.992 136.051 214.3 136.303 214.552 136.63C214.813 136.957 215.009 137.353 215.14 137.82C215.28 138.287 215.35 138.809 215.35 139.388C215.35 139.967 215.28 140.489 215.14 140.956C215.009 141.423 214.813 141.819 214.552 142.146C214.3 142.473 213.992 142.725 213.628 142.902C213.264 143.079 212.858 143.168 212.41 143.168C211.43 143.168 210.725 142.72 210.296 141.824H210.24V145.8H209.12V135.776ZM212.102 142.16C212.736 142.16 213.236 141.964 213.6 141.572C213.964 141.171 214.146 140.648 214.146 140.004V138.772C214.146 138.128 213.964 137.61 213.6 137.218C213.236 136.817 212.736 136.616 212.102 136.616C211.85 136.616 211.607 136.653 211.374 136.728C211.15 136.793 210.954 136.887 210.786 137.008C210.618 137.129 210.482 137.279 210.38 137.456C210.286 137.624 210.24 137.806 210.24 138.002V140.69C210.24 140.923 210.286 141.133 210.38 141.32C210.482 141.497 210.618 141.651 210.786 141.782C210.954 141.903 211.15 141.997 211.374 142.062C211.607 142.127 211.85 142.16 212.102 142.16ZM219.971 143.168C219.485 143.168 219.042 143.079 218.641 142.902C218.239 142.725 217.894 142.473 217.605 142.146C217.325 141.81 217.105 141.413 216.947 140.956C216.788 140.489 216.709 139.967 216.709 139.388C216.709 138.819 216.788 138.301 216.947 137.834C217.105 137.367 217.325 136.971 217.605 136.644C217.894 136.308 218.239 136.051 218.641 135.874C219.042 135.697 219.485 135.608 219.971 135.608C220.456 135.608 220.895 135.697 221.287 135.874C221.688 136.051 222.033 136.308 222.323 136.644C222.612 136.971 222.836 137.367 222.995 137.834C223.153 138.301 223.233 138.819 223.233 139.388C223.233 139.967 223.153 140.489 222.995 140.956C222.836 141.413 222.612 141.81 222.323 142.146C222.033 142.473 221.688 142.725 221.287 142.902C220.895 143.079 220.456 143.168 219.971 143.168ZM219.971 142.174C220.577 142.174 221.072 141.987 221.455 141.614C221.837 141.241 222.029 140.671 222.029 139.906V138.87C222.029 138.105 221.837 137.535 221.455 137.162C221.072 136.789 220.577 136.602 219.971 136.602C219.364 136.602 218.869 136.789 218.487 137.162C218.104 137.535 217.913 138.105 217.913 138.87V139.906C217.913 140.671 218.104 141.241 218.487 141.614C218.869 141.987 219.364 142.174 219.971 142.174ZM225.635 134.082C225.392 134.082 225.215 134.026 225.103 133.914C225 133.793 224.949 133.639 224.949 133.452V133.27C224.949 133.083 225 132.934 225.103 132.822C225.215 132.701 225.392 132.64 225.635 132.64C225.877 132.64 226.05 132.701 226.153 132.822C226.265 132.934 226.321 133.083 226.321 133.27V133.452C226.321 133.639 226.265 133.793 226.153 133.914C226.05 134.026 225.877 134.082 225.635 134.082ZM225.075 135.776H226.195V143H225.075V135.776ZM228.575 143V135.776H229.695V136.952H229.751C229.928 136.541 230.175 136.215 230.493 135.972C230.819 135.729 231.253 135.608 231.795 135.608C232.541 135.608 233.129 135.851 233.559 136.336C233.997 136.812 234.217 137.489 234.217 138.366V143H233.097V138.562C233.097 137.265 232.551 136.616 231.459 136.616C231.235 136.616 231.015 136.644 230.801 136.7C230.595 136.756 230.409 136.84 230.241 136.952C230.073 137.064 229.937 137.209 229.835 137.386C229.741 137.554 229.695 137.755 229.695 137.988V143H228.575ZM238.128 143C237.736 143 237.437 142.893 237.232 142.678C237.036 142.454 236.938 142.165 236.938 141.81V136.756H235.748V135.776H236.42C236.662 135.776 236.826 135.729 236.91 135.636C237.003 135.533 237.05 135.361 237.05 135.118V133.774H238.058V135.776H239.64V136.756H238.058V142.02H239.528V143H238.128ZM247.479 143.168C246.993 143.168 246.55 143.079 246.149 142.902C245.747 142.725 245.402 142.473 245.113 142.146C244.833 141.81 244.613 141.413 244.455 140.956C244.296 140.489 244.217 139.967 244.217 139.388C244.217 138.819 244.296 138.301 244.455 137.834C244.613 137.367 244.833 136.971 245.113 136.644C245.402 136.308 245.747 136.051 246.149 135.874C246.55 135.697 246.993 135.608 247.479 135.608C247.964 135.608 248.403 135.697 248.795 135.874C249.196 136.051 249.541 136.308 249.831 136.644C250.12 136.971 250.344 137.367 250.503 137.834C250.661 138.301 250.741 138.819 250.741 139.388C250.741 139.967 250.661 140.489 250.503 140.956C250.344 141.413 250.12 141.81 249.831 142.146C249.541 142.473 249.196 142.725 248.795 142.902C248.403 143.079 247.964 143.168 247.479 143.168ZM247.479 142.174C248.085 142.174 248.58 141.987 248.963 141.614C249.345 141.241 249.537 140.671 249.537 139.906V138.87C249.537 138.105 249.345 137.535 248.963 137.162C248.58 136.789 248.085 136.602 247.479 136.602C246.872 136.602 246.377 136.789 245.995 137.162C245.612 137.535 245.421 138.105 245.421 138.87V139.906C245.421 140.671 245.612 141.241 245.995 141.614C246.377 141.987 246.872 142.174 247.479 142.174ZM252.893 136.756H251.717V135.776H252.893V134.32C252.893 133.816 253.023 133.41 253.285 133.102C253.546 132.794 253.943 132.64 254.475 132.64H255.567V133.62H254.013V135.776H255.567V136.756H254.013V143H252.893V136.756ZM261.944 143C261.552 143 261.254 142.893 261.048 142.678C260.852 142.454 260.754 142.165 260.754 141.81V136.756H259.564V135.776H260.236C260.479 135.776 260.642 135.729 260.726 135.636C260.82 135.533 260.866 135.361 260.866 135.118V133.774H261.874V135.776H263.456V136.756H261.874V142.02H263.344V143H261.944ZM265.256 132.64H266.376V136.952H266.432C266.61 136.541 266.857 136.215 267.174 135.972C267.501 135.729 267.935 135.608 268.476 135.608C269.223 135.608 269.811 135.851 270.24 136.336C270.679 136.812 270.898 137.489 270.898 138.366V143H269.778V138.562C269.778 137.265 269.232 136.616 268.14 136.616C267.916 136.616 267.697 136.644 267.482 136.7C267.277 136.756 267.09 136.84 266.922 136.952C266.754 137.064 266.619 137.209 266.516 137.386C266.423 137.554 266.376 137.755 266.376 137.988V143H265.256V132.64ZM275.929 143.168C275.435 143.168 274.987 143.079 274.585 142.902C274.193 142.725 273.853 142.473 273.563 142.146C273.283 141.81 273.064 141.413 272.905 140.956C272.756 140.489 272.681 139.967 272.681 139.388C272.681 138.819 272.756 138.301 272.905 137.834C273.064 137.367 273.283 136.971 273.563 136.644C273.853 136.308 274.193 136.051 274.585 135.874C274.987 135.697 275.435 135.608 275.929 135.608C276.415 135.608 276.849 135.697 277.231 135.874C277.614 136.051 277.941 136.299 278.211 136.616C278.482 136.924 278.687 137.293 278.827 137.722C278.977 138.151 279.051 138.623 279.051 139.136V139.668H273.857V140.004C273.857 140.312 273.904 140.601 273.997 140.872C274.1 141.133 274.24 141.362 274.417 141.558C274.604 141.754 274.828 141.908 275.089 142.02C275.36 142.132 275.663 142.188 275.999 142.188C276.457 142.188 276.853 142.081 277.189 141.866C277.535 141.651 277.801 141.343 277.987 140.942L278.785 141.516C278.552 142.011 278.188 142.412 277.693 142.72C277.199 143.019 276.611 143.168 275.929 143.168ZM275.929 136.546C275.621 136.546 275.341 136.602 275.089 136.714C274.837 136.817 274.618 136.966 274.431 137.162C274.254 137.358 274.114 137.591 274.011 137.862C273.909 138.123 273.857 138.413 273.857 138.73V138.828H277.847V138.674C277.847 138.03 277.67 137.517 277.315 137.134C276.97 136.742 276.508 136.546 275.929 136.546ZM284.206 135.776H285.326V136.952H285.382C285.568 136.495 285.839 136.159 286.194 135.944C286.558 135.72 286.992 135.608 287.496 135.608C287.944 135.608 288.35 135.697 288.714 135.874C289.078 136.051 289.386 136.303 289.638 136.63C289.899 136.957 290.095 137.353 290.226 137.82C290.366 138.287 290.436 138.809 290.436 139.388C290.436 139.967 290.366 140.489 290.226 140.956C290.095 141.423 289.899 141.819 289.638 142.146C289.386 142.473 289.078 142.725 288.714 142.902C288.35 143.079 287.944 143.168 287.496 143.168C286.516 143.168 285.811 142.72 285.382 141.824H285.326V145.8H284.206V135.776ZM287.188 142.16C287.822 142.16 288.322 141.964 288.686 141.572C289.05 141.171 289.232 140.648 289.232 140.004V138.772C289.232 138.128 289.05 137.61 288.686 137.218C288.322 136.817 287.822 136.616 287.188 136.616C286.936 136.616 286.693 136.653 286.46 136.728C286.236 136.793 286.04 136.887 285.872 137.008C285.704 137.129 285.568 137.279 285.466 137.456C285.372 137.624 285.326 137.806 285.326 138.002V140.69C285.326 140.923 285.372 141.133 285.466 141.32C285.568 141.497 285.704 141.651 285.872 141.782C286.04 141.903 286.236 141.997 286.46 142.062C286.693 142.127 286.936 142.16 287.188 142.16ZM292.327 143V135.776H293.447V137.106H293.517C293.647 136.761 293.881 136.453 294.217 136.182C294.553 135.911 295.015 135.776 295.603 135.776H296.037V136.896H295.379C294.772 136.896 294.296 137.013 293.951 137.246C293.615 137.47 293.447 137.755 293.447 138.1V143H292.327ZM300.129 143.168C299.644 143.168 299.2 143.079 298.799 142.902C298.398 142.725 298.052 142.473 297.763 142.146C297.483 141.81 297.264 141.413 297.105 140.956C296.946 140.489 296.867 139.967 296.867 139.388C296.867 138.819 296.946 138.301 297.105 137.834C297.264 137.367 297.483 136.971 297.763 136.644C298.052 136.308 298.398 136.051 298.799 135.874C299.2 135.697 299.644 135.608 300.129 135.608C300.614 135.608 301.053 135.697 301.445 135.874C301.846 136.051 302.192 136.308 302.481 136.644C302.77 136.971 302.994 137.367 303.153 137.834C303.312 138.301 303.391 138.819 303.391 139.388C303.391 139.967 303.312 140.489 303.153 140.956C302.994 141.413 302.77 141.81 302.481 142.146C302.192 142.473 301.846 142.725 301.445 142.902C301.053 143.079 300.614 143.168 300.129 143.168ZM300.129 142.174C300.736 142.174 301.23 141.987 301.613 141.614C301.996 141.241 302.187 140.671 302.187 139.906V138.87C302.187 138.105 301.996 137.535 301.613 137.162C301.23 136.789 300.736 136.602 300.129 136.602C299.522 136.602 299.028 136.789 298.645 137.162C298.262 137.535 298.071 138.105 298.071 138.87V139.906C298.071 140.671 298.262 141.241 298.645 141.614C299.028 141.987 299.522 142.174 300.129 142.174ZM309.853 141.824H309.797C309.358 142.72 308.654 143.168 307.683 143.168C307.235 143.168 306.829 143.079 306.465 142.902C306.101 142.725 305.788 142.473 305.527 142.146C305.275 141.819 305.079 141.423 304.939 140.956C304.808 140.489 304.743 139.967 304.743 139.388C304.743 138.809 304.808 138.287 304.939 137.82C305.079 137.353 305.275 136.957 305.527 136.63C305.788 136.303 306.101 136.051 306.465 135.874C306.829 135.697 307.235 135.608 307.683 135.608C308.187 135.608 308.616 135.72 308.971 135.944C309.335 136.159 309.61 136.495 309.797 136.952H309.853V132.64H310.973V143H309.853V141.824ZM307.991 142.16C308.243 142.16 308.481 142.127 308.705 142.062C308.938 141.997 309.139 141.903 309.307 141.782C309.475 141.651 309.606 141.497 309.699 141.32C309.802 141.133 309.853 140.923 309.853 140.69V138.002C309.853 137.806 309.802 137.624 309.699 137.456C309.606 137.279 309.475 137.129 309.307 137.008C309.139 136.887 308.938 136.793 308.705 136.728C308.481 136.653 308.243 136.616 307.991 136.616C307.356 136.616 306.857 136.817 306.493 137.218C306.129 137.61 305.947 138.128 305.947 138.772V140.004C305.947 140.648 306.129 141.171 306.493 141.572C306.857 141.964 307.356 142.16 307.991 142.16ZM317.806 141.824H317.75C317.675 141.992 317.582 142.16 317.47 142.328C317.367 142.487 317.237 142.631 317.078 142.762C316.919 142.883 316.728 142.981 316.504 143.056C316.28 143.131 316.019 143.168 315.72 143.168C314.973 143.168 314.381 142.93 313.942 142.454C313.503 141.969 313.284 141.287 313.284 140.41V135.776H314.404V140.214C314.404 141.511 314.955 142.16 316.056 142.16C316.28 142.16 316.495 142.132 316.7 142.076C316.915 142.02 317.101 141.936 317.26 141.824C317.428 141.712 317.559 141.572 317.652 141.404C317.755 141.227 317.806 141.017 317.806 140.774V135.776H318.926V143H317.806V141.824ZM323.999 143.168C323.495 143.168 323.042 143.079 322.641 142.902C322.24 142.725 321.899 142.473 321.619 142.146C321.348 141.819 321.138 141.423 320.989 140.956C320.849 140.489 320.779 139.967 320.779 139.388C320.779 138.809 320.849 138.287 320.989 137.82C321.138 137.353 321.348 136.957 321.619 136.63C321.899 136.303 322.24 136.051 322.641 135.874C323.042 135.697 323.495 135.608 323.999 135.608C324.718 135.608 325.292 135.767 325.721 136.084C326.16 136.392 326.486 136.798 326.701 137.302L325.763 137.778C325.632 137.405 325.418 137.115 325.119 136.91C324.82 136.705 324.447 136.602 323.999 136.602C323.663 136.602 323.369 136.658 323.117 136.77C322.865 136.873 322.655 137.022 322.487 137.218C322.319 137.405 322.193 137.633 322.109 137.904C322.025 138.165 321.983 138.455 321.983 138.772V140.004C321.983 140.639 322.151 141.161 322.487 141.572C322.832 141.973 323.336 142.174 323.999 142.174C324.904 142.174 325.558 141.754 325.959 140.914L326.771 141.46C326.538 141.983 326.188 142.398 325.721 142.706C325.264 143.014 324.69 143.168 323.999 143.168ZM329.948 143C329.556 143 329.257 142.893 329.052 142.678C328.856 142.454 328.758 142.165 328.758 141.81V136.756H327.568V135.776H328.24C328.483 135.776 328.646 135.729 328.73 135.636C328.823 135.533 328.87 135.361 328.87 135.118V133.774H329.878V135.776H331.46V136.756H329.878V142.02H331.348V143H329.948Z" fill="#27272A"/>
<path d="M544.456 10.5442C550.861 16.9497 554.617 25.5348 554.972 34.5866C555.328 43.6385 552.258 52.4917 546.375 59.3801C540.491 66.2685 532.227 70.6857 523.231 71.7505C514.235 72.8152 505.168 70.4493 497.84 65.1246C490.511 59.8 485.459 51.908 483.692 43.0233C481.924 34.1385 483.572 24.914 488.305 17.1901C493.038 9.46612 500.509 3.81055 509.228 1.35161C517.947 -1.10733 527.272 -0.188867 535.344 3.92376L519 36L544.456 10.5442Z" fill="#3B82F6"/>
<path d="M509.485 94.152C509.485 95.052 509.347 95.904 509.071 96.708C508.807 97.5 508.459 98.232 508.027 98.904C507.595 99.564 507.109 100.158 506.569 100.686C506.041 101.202 505.513 101.64 504.985 102H501.781C502.513 101.472 503.173 100.962 503.761 100.47C504.349 99.978 504.859 99.48 505.291 98.976C505.735 98.472 506.095 97.95 506.371 97.41C506.659 96.858 506.875 96.264 507.019 95.628L506.875 95.592C506.755 95.832 506.611 96.066 506.443 96.294C506.287 96.522 506.095 96.72 505.867 96.888C505.639 97.056 505.375 97.194 505.075 97.302C504.775 97.398 504.427 97.446 504.031 97.446C503.503 97.446 503.017 97.356 502.573 97.176C502.129 96.996 501.739 96.738 501.403 96.402C501.079 96.054 500.821 95.646 500.629 95.178C500.449 94.698 500.359 94.158 500.359 93.558C500.359 92.922 500.467 92.34 500.683 91.812C500.899 91.284 501.205 90.828 501.601 90.444C501.997 90.06 502.471 89.76 503.023 89.544C503.587 89.328 504.217 89.22 504.913 89.22C505.633 89.22 506.275 89.34 506.839 89.58C507.403 89.808 507.883 90.138 508.279 90.57C508.675 90.99 508.975 91.506 509.179 92.118C509.383 92.718 509.485 93.396 509.485 94.152ZM504.913 95.61C505.585 95.61 506.107 95.43 506.479 95.07C506.851 94.698 507.037 94.17 507.037 93.486V93.216C507.037 92.532 506.851 92.01 506.479 91.65C506.107 91.278 505.585 91.092 504.913 91.092C504.253 91.092 503.731 91.278 503.347 91.65C502.975 92.01 502.789 92.532 502.789 93.216V93.486C502.789 94.17 502.975 94.698 503.347 95.07C503.731 95.43 504.253 95.61 504.913 95.61ZM519.63 91.488H513.978L513.69 95.7H513.816C513.948 95.436 514.092 95.19 514.248 94.962C514.404 94.734 514.584 94.542 514.788 94.386C514.992 94.23 515.226 94.11 515.49 94.026C515.766 93.93 516.096 93.882 516.48 93.882C517.02 93.882 517.524 93.972 517.992 94.152C518.46 94.332 518.862 94.596 519.198 94.944C519.546 95.28 519.816 95.694 520.008 96.186C520.212 96.678 520.314 97.236 520.314 97.86C520.314 98.496 520.212 99.078 520.008 99.606C519.804 100.134 519.504 100.596 519.108 100.992C518.712 101.376 518.226 101.676 517.65 101.892C517.074 102.108 516.414 102.216 515.67 102.216C515.094 102.216 514.578 102.15 514.122 102.018C513.666 101.898 513.264 101.73 512.916 101.514C512.568 101.298 512.268 101.052 512.016 100.776C511.764 100.488 511.542 100.188 511.35 99.876L513.078 98.544C513.222 98.784 513.372 99.012 513.528 99.228C513.684 99.432 513.864 99.612 514.068 99.768C514.284 99.924 514.518 100.05 514.77 100.146C515.034 100.23 515.34 100.272 515.688 100.272C516.396 100.272 516.93 100.074 517.29 99.678C517.662 99.282 517.848 98.742 517.848 98.058V97.914C517.848 97.266 517.662 96.756 517.29 96.384C516.918 96.012 516.402 95.826 515.742 95.826C515.226 95.826 514.806 95.928 514.482 96.132C514.158 96.324 513.9 96.534 513.708 96.762L511.764 96.492L512.232 89.436H519.63V91.488ZM524.393 102L533.105 89.436H535.193L526.481 102H524.393ZM525.257 96.348C524.237 96.348 523.457 96.048 522.917 95.448C522.389 94.836 522.125 93.948 522.125 92.784C522.125 91.62 522.389 90.738 522.917 90.138C523.457 89.526 524.237 89.22 525.257 89.22C526.277 89.22 527.051 89.526 527.579 90.138C528.107 90.738 528.371 91.62 528.371 92.784C528.371 93.948 528.107 94.836 527.579 95.448C527.051 96.048 526.277 96.348 525.257 96.348ZM525.257 94.98C526.001 94.98 526.373 94.41 526.373 93.27V92.298C526.373 91.158 526.001 90.588 525.257 90.588C524.513 90.588 524.141 91.158 524.141 92.298V93.27C524.141 94.41 524.513 94.98 525.257 94.98ZM534.329 102.216C533.321 102.216 532.547 101.916 532.007 101.316C531.479 100.704 531.215 99.816 531.215 98.652C531.215 97.488 531.479 96.606 532.007 96.006C532.547 95.394 533.321 95.088 534.329 95.088C535.349 95.088 536.123 95.394 536.651 96.006C537.191 96.606 537.461 97.488 537.461 98.652C537.461 99.816 537.191 100.704 536.651 101.316C536.123 101.916 535.349 102.216 534.329 102.216ZM534.329 100.848C535.073 100.848 535.445 100.278 535.445 99.138V98.166C535.445 97.026 535.073 96.456 534.329 96.456C533.585 96.456 533.213 97.026 533.213 98.166V99.138C533.213 100.278 533.585 100.848 534.329 100.848Z" fill="#27272A"/>
<path d="M465.497 125.168C464.993 125.168 464.54 125.079 464.139 124.902C463.738 124.725 463.397 124.473 463.117 124.146C462.846 123.819 462.636 123.423 462.487 122.956C462.347 122.489 462.277 121.967 462.277 121.388C462.277 120.809 462.347 120.287 462.487 119.82C462.636 119.353 462.846 118.957 463.117 118.63C463.397 118.303 463.738 118.051 464.139 117.874C464.54 117.697 464.993 117.608 465.497 117.608C466.216 117.608 466.79 117.767 467.219 118.084C467.658 118.392 467.984 118.798 468.199 119.302L467.261 119.778C467.13 119.405 466.916 119.115 466.617 118.91C466.318 118.705 465.945 118.602 465.497 118.602C465.161 118.602 464.867 118.658 464.615 118.77C464.363 118.873 464.153 119.022 463.985 119.218C463.817 119.405 463.691 119.633 463.607 119.904C463.523 120.165 463.481 120.455 463.481 120.772V122.004C463.481 122.639 463.649 123.161 463.985 123.572C464.33 123.973 464.834 124.174 465.497 124.174C466.402 124.174 467.056 123.754 467.457 122.914L468.269 123.46C468.036 123.983 467.686 124.398 467.219 124.706C466.762 125.014 466.188 125.168 465.497 125.168ZM472.498 125.168C472.013 125.168 471.569 125.079 471.168 124.902C470.767 124.725 470.421 124.473 470.132 124.146C469.852 123.81 469.633 123.413 469.474 122.956C469.315 122.489 469.236 121.967 469.236 121.388C469.236 120.819 469.315 120.301 469.474 119.834C469.633 119.367 469.852 118.971 470.132 118.644C470.421 118.308 470.767 118.051 471.168 117.874C471.569 117.697 472.013 117.608 472.498 117.608C472.983 117.608 473.422 117.697 473.814 117.874C474.215 118.051 474.561 118.308 474.85 118.644C475.139 118.971 475.363 119.367 475.522 119.834C475.681 120.301 475.76 120.819 475.76 121.388C475.76 121.967 475.681 122.489 475.522 122.956C475.363 123.413 475.139 123.81 474.85 124.146C474.561 124.473 474.215 124.725 473.814 124.902C473.422 125.079 472.983 125.168 472.498 125.168ZM472.498 124.174C473.105 124.174 473.599 123.987 473.982 123.614C474.365 123.241 474.556 122.671 474.556 121.906V120.87C474.556 120.105 474.365 119.535 473.982 119.162C473.599 118.789 473.105 118.602 472.498 118.602C471.891 118.602 471.397 118.789 471.014 119.162C470.631 119.535 470.44 120.105 470.44 120.87V121.906C470.44 122.671 470.631 123.241 471.014 123.614C471.397 123.987 471.891 124.174 472.498 124.174ZM477.602 125V117.776H478.722V119.106H478.792C478.923 118.761 479.156 118.453 479.492 118.182C479.828 117.911 480.29 117.776 480.878 117.776H481.312V118.896H480.654C480.047 118.896 479.571 119.013 479.226 119.246C478.89 119.47 478.722 119.755 478.722 120.1V125H477.602ZM482.743 125V117.776H483.863V119.106H483.933C484.063 118.761 484.297 118.453 484.633 118.182C484.969 117.911 485.431 117.776 486.019 117.776H486.453V118.896H485.795C485.188 118.896 484.712 119.013 484.367 119.246C484.031 119.47 483.863 119.755 483.863 120.1V125H482.743ZM490.531 125.168C490.036 125.168 489.588 125.079 489.187 124.902C488.795 124.725 488.454 124.473 488.165 124.146C487.885 123.81 487.666 123.413 487.507 122.956C487.358 122.489 487.283 121.967 487.283 121.388C487.283 120.819 487.358 120.301 487.507 119.834C487.666 119.367 487.885 118.971 488.165 118.644C488.454 118.308 488.795 118.051 489.187 117.874C489.588 117.697 490.036 117.608 490.531 117.608C491.016 117.608 491.45 117.697 491.833 117.874C492.216 118.051 492.542 118.299 492.813 118.616C493.084 118.924 493.289 119.293 493.429 119.722C493.578 120.151 493.653 120.623 493.653 121.136V121.668H488.459V122.004C488.459 122.312 488.506 122.601 488.599 122.872C488.702 123.133 488.842 123.362 489.019 123.558C489.206 123.754 489.43 123.908 489.691 124.02C489.962 124.132 490.265 124.188 490.601 124.188C491.058 124.188 491.455 124.081 491.791 123.866C492.136 123.651 492.402 123.343 492.589 122.942L493.387 123.516C493.154 124.011 492.79 124.412 492.295 124.72C491.8 125.019 491.212 125.168 490.531 125.168ZM490.531 118.546C490.223 118.546 489.943 118.602 489.691 118.714C489.439 118.817 489.22 118.966 489.033 119.162C488.856 119.358 488.716 119.591 488.613 119.862C488.51 120.123 488.459 120.413 488.459 120.73V120.828H492.449V120.674C492.449 120.03 492.272 119.517 491.917 119.134C491.572 118.742 491.11 118.546 490.531 118.546ZM498.187 125.168C497.683 125.168 497.23 125.079 496.829 124.902C496.427 124.725 496.087 124.473 495.807 124.146C495.536 123.819 495.326 123.423 495.177 122.956C495.037 122.489 494.967 121.967 494.967 121.388C494.967 120.809 495.037 120.287 495.177 119.82C495.326 119.353 495.536 118.957 495.807 118.63C496.087 118.303 496.427 118.051 496.829 117.874C497.23 117.697 497.683 117.608 498.187 117.608C498.905 117.608 499.479 117.767 499.909 118.084C500.347 118.392 500.674 118.798 500.889 119.302L499.951 119.778C499.82 119.405 499.605 119.115 499.307 118.91C499.008 118.705 498.635 118.602 498.187 118.602C497.851 118.602 497.557 118.658 497.305 118.77C497.053 118.873 496.843 119.022 496.675 119.218C496.507 119.405 496.381 119.633 496.297 119.904C496.213 120.165 496.171 120.455 496.171 120.772V122.004C496.171 122.639 496.339 123.161 496.675 123.572C497.02 123.973 497.524 124.174 498.187 124.174C499.092 124.174 499.745 123.754 500.147 122.914L500.959 123.46C500.725 123.983 500.375 124.398 499.909 124.706C499.451 125.014 498.877 125.168 498.187 125.168ZM504.136 125C503.744 125 503.445 124.893 503.24 124.678C503.044 124.454 502.946 124.165 502.946 123.81V118.756H501.756V117.776H502.428C502.67 117.776 502.834 117.729 502.918 117.636C503.011 117.533 503.058 117.361 503.058 117.118V115.774H504.066V117.776H505.648V118.756H504.066V124.02H505.536V125H504.136ZM508.638 125C508.246 125 507.947 124.893 507.742 124.678C507.546 124.454 507.448 124.174 507.448 123.838V114.64H508.568V124.02H509.632V125H508.638ZM515.578 117.776H516.684L513.45 126.68C513.366 126.895 513.282 127.072 513.198 127.212C513.114 127.361 513.011 127.478 512.89 127.562C512.768 127.646 512.614 127.707 512.428 127.744C512.25 127.781 512.031 127.8 511.77 127.8H511.196V126.82H512.33L512.876 125.28L510.174 117.776H511.294L513.03 122.69L513.366 123.866H513.436L513.828 122.69L515.578 117.776ZM525.872 123.824H525.816C525.742 123.992 525.648 124.16 525.536 124.328C525.434 124.487 525.303 124.631 525.144 124.762C524.986 124.883 524.794 124.981 524.57 125.056C524.346 125.131 524.085 125.168 523.786 125.168C523.04 125.168 522.447 124.93 522.008 124.454C521.57 123.969 521.35 123.287 521.35 122.41V117.776H522.47V122.214C522.47 123.511 523.021 124.16 524.122 124.16C524.346 124.16 524.561 124.132 524.766 124.076C524.981 124.02 525.168 123.936 525.326 123.824C525.494 123.712 525.625 123.572 525.718 123.404C525.821 123.227 525.872 123.017 525.872 122.774V117.776H526.992V125H525.872V123.824ZM531.548 125.168C530.876 125.168 530.311 125.042 529.854 124.79C529.406 124.529 529.018 124.183 528.692 123.754L529.49 123.11C529.77 123.465 530.082 123.74 530.428 123.936C530.773 124.123 531.174 124.216 531.632 124.216C532.108 124.216 532.476 124.113 532.738 123.908C533.008 123.703 533.144 123.413 533.144 123.04C533.144 122.76 533.05 122.522 532.864 122.326C532.686 122.121 532.36 121.981 531.883 121.906L531.31 121.822C530.974 121.775 530.666 121.705 530.386 121.612C530.106 121.509 529.858 121.379 529.644 121.22C529.438 121.052 529.275 120.847 529.154 120.604C529.042 120.361 528.986 120.072 528.986 119.736C528.986 119.381 529.051 119.073 529.182 118.812C529.312 118.541 529.49 118.317 529.714 118.14C529.947 117.963 530.222 117.832 530.54 117.748C530.857 117.655 531.198 117.608 531.562 117.608C532.15 117.608 532.64 117.711 533.032 117.916C533.433 118.121 533.783 118.406 534.082 118.77L533.34 119.442C533.181 119.218 532.948 119.017 532.64 118.84C532.332 118.653 531.944 118.56 531.478 118.56C531.011 118.56 530.656 118.663 530.414 118.868C530.18 119.064 530.064 119.335 530.064 119.68C530.064 120.035 530.18 120.291 530.414 120.45C530.656 120.609 531.002 120.725 531.45 120.8L532.01 120.884C532.812 121.005 533.382 121.239 533.718 121.584C534.054 121.92 534.222 122.363 534.222 122.914C534.222 123.614 533.984 124.165 533.508 124.566C533.032 124.967 532.378 125.168 531.548 125.168ZM538.916 125.168C538.421 125.168 537.973 125.079 537.572 124.902C537.18 124.725 536.839 124.473 536.55 124.146C536.27 123.81 536.05 123.413 535.892 122.956C535.742 122.489 535.668 121.967 535.668 121.388C535.668 120.819 535.742 120.301 535.892 119.834C536.05 119.367 536.27 118.971 536.55 118.644C536.839 118.308 537.18 118.051 537.572 117.874C537.973 117.697 538.421 117.608 538.916 117.608C539.401 117.608 539.835 117.697 540.218 117.874C540.6 118.051 540.927 118.299 541.198 118.616C541.468 118.924 541.674 119.293 541.814 119.722C541.963 120.151 542.038 120.623 542.038 121.136V121.668H536.844V122.004C536.844 122.312 536.89 122.601 536.984 122.872C537.086 123.133 537.226 123.362 537.404 123.558C537.59 123.754 537.814 123.908 538.076 124.02C538.346 124.132 538.65 124.188 538.986 124.188C539.443 124.188 539.84 124.081 540.176 123.866C540.521 123.651 540.787 123.343 540.974 122.942L541.772 123.516C541.538 124.011 541.174 124.412 540.68 124.72C540.185 125.019 539.597 125.168 538.916 125.168ZM538.916 118.546C538.608 118.546 538.328 118.602 538.076 118.714C537.824 118.817 537.604 118.966 537.418 119.162C537.24 119.358 537.1 119.591 536.998 119.862C536.895 120.123 536.844 120.413 536.844 120.73V120.828H540.834V120.674C540.834 120.03 540.656 119.517 540.302 119.134C539.956 118.742 539.494 118.546 538.916 118.546ZM546.053 125.168C545.381 125.168 544.817 125.042 544.359 124.79C543.911 124.529 543.524 124.183 543.197 123.754L543.995 123.11C544.275 123.465 544.588 123.74 544.933 123.936C545.279 124.123 545.68 124.216 546.137 124.216C546.613 124.216 546.982 124.113 547.243 123.908C547.514 123.703 547.649 123.413 547.649 123.04C547.649 122.76 547.556 122.522 547.369 122.326C547.192 122.121 546.865 121.981 546.389 121.906L545.815 121.822C545.479 121.775 545.171 121.705 544.891 121.612C544.611 121.509 544.364 121.379 544.149 121.22C543.944 121.052 543.781 120.847 543.659 120.604C543.547 120.361 543.491 120.072 543.491 119.736C543.491 119.381 543.557 119.073 543.687 118.812C543.818 118.541 543.995 118.317 544.219 118.14C544.453 117.963 544.728 117.832 545.045 117.748C545.363 117.655 545.703 117.608 546.067 117.608C546.655 117.608 547.145 117.711 547.537 117.916C547.939 118.121 548.289 118.406 548.587 118.77L547.845 119.442C547.687 119.218 547.453 119.017 547.145 118.84C546.837 118.653 546.45 118.56 545.983 118.56C545.517 118.56 545.162 118.663 544.919 118.868C544.686 119.064 544.569 119.335 544.569 119.68C544.569 120.035 544.686 120.291 544.919 120.45C545.162 120.609 545.507 120.725 545.955 120.8L546.515 120.884C547.318 121.005 547.887 121.239 548.223 121.584C548.559 121.92 548.727 122.363 548.727 122.914C548.727 123.614 548.489 124.165 548.013 124.566C547.537 124.967 546.884 125.168 546.053 125.168ZM559.264 125C558.844 125 558.541 124.888 558.354 124.664C558.177 124.44 558.065 124.16 558.018 123.824H557.948C557.79 124.272 557.528 124.608 557.164 124.832C556.8 125.056 556.366 125.168 555.862 125.168C555.097 125.168 554.5 124.972 554.07 124.58C553.65 124.188 553.44 123.656 553.44 122.984C553.44 122.303 553.688 121.78 554.182 121.416C554.686 121.052 555.466 120.87 556.52 120.87H557.948V120.156C557.948 119.643 557.808 119.251 557.528 118.98C557.248 118.709 556.819 118.574 556.24 118.574C555.802 118.574 555.433 118.672 555.134 118.868C554.845 119.064 554.602 119.325 554.406 119.652L553.734 119.022C553.93 118.63 554.243 118.299 554.672 118.028C555.102 117.748 555.643 117.608 556.296 117.608C557.174 117.608 557.855 117.823 558.34 118.252C558.826 118.681 559.068 119.279 559.068 120.044V124.02H559.894V125H559.264ZM556.044 124.216C556.324 124.216 556.581 124.183 556.814 124.118C557.048 124.053 557.248 123.959 557.416 123.838C557.584 123.717 557.715 123.577 557.808 123.418C557.902 123.259 557.948 123.087 557.948 122.9V121.71H556.464C555.82 121.71 555.349 121.803 555.05 121.99C554.761 122.177 554.616 122.447 554.616 122.802V123.096C554.616 123.451 554.742 123.726 554.994 123.922C555.256 124.118 555.606 124.216 556.044 124.216ZM561.493 125V117.776H562.613V118.952H562.669C562.846 118.541 563.093 118.215 563.411 117.972C563.737 117.729 564.171 117.608 564.713 117.608C565.459 117.608 566.047 117.851 566.477 118.336C566.915 118.812 567.135 119.489 567.135 120.366V125H566.015V120.562C566.015 119.265 565.469 118.616 564.377 118.616C564.153 118.616 563.933 118.644 563.719 118.7C563.513 118.756 563.327 118.84 563.159 118.952C562.991 119.064 562.855 119.209 562.753 119.386C562.659 119.554 562.613 119.755 562.613 119.988V125H561.493ZM574.07 123.824H574.014C573.575 124.72 572.87 125.168 571.9 125.168C571.452 125.168 571.046 125.079 570.682 124.902C570.318 124.725 570.005 124.473 569.744 124.146C569.492 123.819 569.296 123.423 569.156 122.956C569.025 122.489 568.96 121.967 568.96 121.388C568.96 120.809 569.025 120.287 569.156 119.82C569.296 119.353 569.492 118.957 569.744 118.63C570.005 118.303 570.318 118.051 570.682 117.874C571.046 117.697 571.452 117.608 571.9 117.608C572.404 117.608 572.833 117.72 573.188 117.944C573.552 118.159 573.827 118.495 574.014 118.952H574.07V114.64H575.19V125H574.07V123.824ZM572.208 124.16C572.46 124.16 572.698 124.127 572.922 124.062C573.155 123.997 573.356 123.903 573.524 123.782C573.692 123.651 573.822 123.497 573.916 123.32C574.018 123.133 574.07 122.923 574.07 122.69V120.002C574.07 119.806 574.018 119.624 573.916 119.456C573.822 119.279 573.692 119.129 573.524 119.008C573.356 118.887 573.155 118.793 572.922 118.728C572.698 118.653 572.46 118.616 572.208 118.616C571.573 118.616 571.074 118.817 570.71 119.218C570.346 119.61 570.164 120.128 570.164 120.772V122.004C570.164 122.648 570.346 123.171 570.71 123.572C571.074 123.964 571.573 124.16 572.208 124.16ZM470.475 135.776H471.567L472.337 138.898L473.107 142.062H473.135L474.017 138.898L474.927 135.776H475.921L476.859 138.898L477.755 142.062H477.783L478.525 138.898L479.309 135.776H480.359L478.441 143H477.055L476.047 139.528L475.417 137.33H475.389L474.773 139.528L473.765 143H472.407L470.475 135.776ZM487.104 143C486.684 143 486.381 142.888 486.194 142.664C486.017 142.44 485.905 142.16 485.858 141.824H485.788C485.629 142.272 485.368 142.608 485.004 142.832C484.64 143.056 484.206 143.168 483.702 143.168C482.937 143.168 482.339 142.972 481.91 142.58C481.49 142.188 481.28 141.656 481.28 140.984C481.28 140.303 481.527 139.78 482.022 139.416C482.526 139.052 483.305 138.87 484.36 138.87H485.788V138.156C485.788 137.643 485.648 137.251 485.368 136.98C485.088 136.709 484.659 136.574 484.08 136.574C483.641 136.574 483.273 136.672 482.974 136.868C482.685 137.064 482.442 137.325 482.246 137.652L481.574 137.022C481.77 136.63 482.083 136.299 482.512 136.028C482.941 135.748 483.483 135.608 484.136 135.608C485.013 135.608 485.695 135.823 486.18 136.252C486.665 136.681 486.908 137.279 486.908 138.044V142.02H487.734V143H487.104ZM483.884 142.216C484.164 142.216 484.421 142.183 484.654 142.118C484.887 142.053 485.088 141.959 485.256 141.838C485.424 141.717 485.555 141.577 485.648 141.418C485.741 141.259 485.788 141.087 485.788 140.9V139.71H484.304C483.66 139.71 483.189 139.803 482.89 139.99C482.601 140.177 482.456 140.447 482.456 140.802V141.096C482.456 141.451 482.582 141.726 482.834 141.922C483.095 142.118 483.445 142.216 483.884 142.216ZM490.929 143C490.537 143 490.238 142.893 490.033 142.678C489.837 142.454 489.739 142.165 489.739 141.81V136.756H488.549V135.776H489.221C489.463 135.776 489.627 135.729 489.711 135.636C489.804 135.533 489.851 135.361 489.851 135.118V133.774H490.859V135.776H492.441V136.756H490.859V142.02H492.329V143H490.929ZM496.874 143.168C496.37 143.168 495.917 143.079 495.516 142.902C495.115 142.725 494.774 142.473 494.494 142.146C494.223 141.819 494.013 141.423 493.864 140.956C493.724 140.489 493.654 139.967 493.654 139.388C493.654 138.809 493.724 138.287 493.864 137.82C494.013 137.353 494.223 136.957 494.494 136.63C494.774 136.303 495.115 136.051 495.516 135.874C495.917 135.697 496.37 135.608 496.874 135.608C497.593 135.608 498.167 135.767 498.596 136.084C499.035 136.392 499.361 136.798 499.576 137.302L498.638 137.778C498.507 137.405 498.293 137.115 497.994 136.91C497.695 136.705 497.322 136.602 496.874 136.602C496.538 136.602 496.244 136.658 495.992 136.77C495.74 136.873 495.53 137.022 495.362 137.218C495.194 137.405 495.068 137.633 494.984 137.904C494.9 138.165 494.858 138.455 494.858 138.772V140.004C494.858 140.639 495.026 141.161 495.362 141.572C495.707 141.973 496.211 142.174 496.874 142.174C497.779 142.174 498.433 141.754 498.834 140.914L499.646 141.46C499.413 141.983 499.063 142.398 498.596 142.706C498.139 143.014 497.565 143.168 496.874 143.168ZM501.227 132.64H502.347V136.952H502.403C502.58 136.541 502.828 136.215 503.145 135.972C503.472 135.729 503.906 135.608 504.447 135.608C505.194 135.608 505.782 135.851 506.211 136.336C506.65 136.812 506.869 137.489 506.869 138.366V143H505.749V138.562C505.749 137.265 505.203 136.616 504.111 136.616C503.887 136.616 503.668 136.644 503.453 136.7C503.248 136.756 503.061 136.84 502.893 136.952C502.725 137.064 502.59 137.209 502.487 137.386C502.394 137.554 502.347 137.755 502.347 137.988V143H501.227V132.64ZM511.9 143.168C511.405 143.168 510.957 143.079 510.556 142.902C510.164 142.725 509.823 142.473 509.534 142.146C509.254 141.81 509.035 141.413 508.876 140.956C508.727 140.489 508.652 139.967 508.652 139.388C508.652 138.819 508.727 138.301 508.876 137.834C509.035 137.367 509.254 136.971 509.534 136.644C509.823 136.308 510.164 136.051 510.556 135.874C510.957 135.697 511.405 135.608 511.9 135.608C512.385 135.608 512.819 135.697 513.202 135.874C513.585 136.051 513.911 136.299 514.182 136.616C514.453 136.924 514.658 137.293 514.798 137.722C514.947 138.151 515.022 138.623 515.022 139.136V139.668H509.828V140.004C509.828 140.312 509.875 140.601 509.968 140.872C510.071 141.133 510.211 141.362 510.388 141.558C510.575 141.754 510.799 141.908 511.06 142.02C511.331 142.132 511.634 142.188 511.97 142.188C512.427 142.188 512.824 142.081 513.16 141.866C513.505 141.651 513.771 141.343 513.958 140.942L514.756 141.516C514.523 142.011 514.159 142.412 513.664 142.72C513.169 143.019 512.581 143.168 511.9 143.168ZM511.9 136.546C511.592 136.546 511.312 136.602 511.06 136.714C510.808 136.817 510.589 136.966 510.402 137.162C510.225 137.358 510.085 137.591 509.982 137.862C509.879 138.123 509.828 138.413 509.828 138.73V138.828H513.818V138.674C513.818 138.03 513.641 137.517 513.286 137.134C512.941 136.742 512.479 136.546 511.9 136.546ZM521.488 141.824H521.432C520.993 142.72 520.288 143.168 519.318 143.168C518.87 143.168 518.464 143.079 518.1 142.902C517.736 142.725 517.423 142.473 517.162 142.146C516.91 141.819 516.714 141.423 516.574 140.956C516.443 140.489 516.378 139.967 516.378 139.388C516.378 138.809 516.443 138.287 516.574 137.82C516.714 137.353 516.91 136.957 517.162 136.63C517.423 136.303 517.736 136.051 518.1 135.874C518.464 135.697 518.87 135.608 519.318 135.608C519.822 135.608 520.251 135.72 520.606 135.944C520.97 136.159 521.245 136.495 521.432 136.952H521.488V132.64H522.608V143H521.488V141.824ZM519.626 142.16C519.878 142.16 520.116 142.127 520.34 142.062C520.573 141.997 520.774 141.903 520.942 141.782C521.11 141.651 521.24 141.497 521.334 141.32C521.436 141.133 521.488 140.923 521.488 140.69V138.002C521.488 137.806 521.436 137.624 521.334 137.456C521.24 137.279 521.11 137.129 520.942 137.008C520.774 136.887 520.573 136.793 520.34 136.728C520.116 136.653 519.878 136.616 519.626 136.616C518.991 136.616 518.492 136.817 518.128 137.218C517.764 137.61 517.582 138.128 517.582 138.772V140.004C517.582 140.648 517.764 141.171 518.128 141.572C518.492 141.964 518.991 142.16 519.626 142.16ZM529.893 143L527.359 135.776H528.479L529.739 139.36L530.523 141.824H530.593L531.377 139.36L532.665 135.776H533.743L531.195 143H529.893ZM535.748 134.082C535.505 134.082 535.328 134.026 535.216 133.914C535.113 133.793 535.062 133.639 535.062 133.452V133.27C535.062 133.083 535.113 132.934 535.216 132.822C535.328 132.701 535.505 132.64 535.748 132.64C535.991 132.64 536.163 132.701 536.266 132.822C536.378 132.934 536.434 133.083 536.434 133.27V133.452C536.434 133.639 536.378 133.793 536.266 133.914C536.163 134.026 535.991 134.082 535.748 134.082ZM535.188 135.776H536.308V143H535.188V135.776ZM543.308 141.824H543.252C542.813 142.72 542.109 143.168 541.138 143.168C540.69 143.168 540.284 143.079 539.92 142.902C539.556 142.725 539.243 142.473 538.982 142.146C538.73 141.819 538.534 141.423 538.394 140.956C538.263 140.489 538.198 139.967 538.198 139.388C538.198 138.809 538.263 138.287 538.394 137.82C538.534 137.353 538.73 136.957 538.982 136.63C539.243 136.303 539.556 136.051 539.92 135.874C540.284 135.697 540.69 135.608 541.138 135.608C541.642 135.608 542.071 135.72 542.426 135.944C542.79 136.159 543.065 136.495 543.252 136.952H543.308V132.64H544.428V143H543.308V141.824ZM541.446 142.16C541.698 142.16 541.936 142.127 542.16 142.062C542.393 141.997 542.594 141.903 542.762 141.782C542.93 141.651 543.061 141.497 543.154 141.32C543.257 141.133 543.308 140.923 543.308 140.69V138.002C543.308 137.806 543.257 137.624 543.154 137.456C543.061 137.279 542.93 137.129 542.762 137.008C542.594 136.887 542.393 136.793 542.16 136.728C541.936 136.653 541.698 136.616 541.446 136.616C540.811 136.616 540.312 136.817 539.948 137.218C539.584 137.61 539.402 138.128 539.402 138.772V140.004C539.402 140.648 539.584 141.171 539.948 141.572C540.312 141.964 540.811 142.16 541.446 142.16ZM549.525 143.168C549.03 143.168 548.582 143.079 548.181 142.902C547.789 142.725 547.448 142.473 547.159 142.146C546.879 141.81 546.66 141.413 546.501 140.956C546.352 140.489 546.277 139.967 546.277 139.388C546.277 138.819 546.352 138.301 546.501 137.834C546.66 137.367 546.879 136.971 547.159 136.644C547.448 136.308 547.789 136.051 548.181 135.874C548.582 135.697 549.03 135.608 549.525 135.608C550.01 135.608 550.444 135.697 550.827 135.874C551.21 136.051 551.536 136.299 551.807 136.616C552.078 136.924 552.283 137.293 552.423 137.722C552.572 138.151 552.647 138.623 552.647 139.136V139.668H547.453V140.004C547.453 140.312 547.5 140.601 547.593 140.872C547.696 141.133 547.836 141.362 548.013 141.558C548.2 141.754 548.424 141.908 548.685 142.02C548.956 142.132 549.259 142.188 549.595 142.188C550.052 142.188 550.449 142.081 550.785 141.866C551.13 141.651 551.396 141.343 551.583 140.942L552.381 141.516C552.148 142.011 551.784 142.412 551.289 142.72C550.794 143.019 550.206 143.168 549.525 143.168ZM549.525 136.546C549.217 136.546 548.937 136.602 548.685 136.714C548.433 136.817 548.214 136.966 548.027 137.162C547.85 137.358 547.71 137.591 547.607 137.862C547.504 138.123 547.453 138.413 547.453 138.73V138.828H551.443V138.674C551.443 138.03 551.266 137.517 550.911 137.134C550.566 136.742 550.104 136.546 549.525 136.546ZM557.223 143.168C556.737 143.168 556.294 143.079 555.893 142.902C555.491 142.725 555.146 142.473 554.857 142.146C554.577 141.81 554.357 141.413 554.199 140.956C554.04 140.489 553.961 139.967 553.961 139.388C553.961 138.819 554.04 138.301 554.199 137.834C554.357 137.367 554.577 136.971 554.857 136.644C555.146 136.308 555.491 136.051 555.893 135.874C556.294 135.697 556.737 135.608 557.223 135.608C557.708 135.608 558.147 135.697 558.539 135.874C558.94 136.051 559.285 136.308 559.575 136.644C559.864 136.971 560.088 137.367 560.247 137.834C560.405 138.301 560.485 138.819 560.485 139.388C560.485 139.967 560.405 140.489 560.247 140.956C560.088 141.413 559.864 141.81 559.575 142.146C559.285 142.473 558.94 142.725 558.539 142.902C558.147 143.079 557.708 143.168 557.223 143.168ZM557.223 142.174C557.829 142.174 558.324 141.987 558.707 141.614C559.089 141.241 559.281 140.671 559.281 139.906V138.87C559.281 138.105 559.089 137.535 558.707 137.162C558.324 136.789 557.829 136.602 557.223 136.602C556.616 136.602 556.121 136.789 555.739 137.162C555.356 137.535 555.165 138.105 555.165 138.87V139.906C555.165 140.671 555.356 141.241 555.739 141.614C556.121 141.987 556.616 142.174 557.223 142.174ZM564.497 143.168C563.825 143.168 563.26 143.042 562.803 142.79C562.355 142.529 561.967 142.183 561.641 141.754L562.439 141.11C562.719 141.465 563.031 141.74 563.377 141.936C563.722 142.123 564.123 142.216 564.581 142.216C565.057 142.216 565.425 142.113 565.687 141.908C565.957 141.703 566.093 141.413 566.093 141.04C566.093 140.76 565.999 140.522 565.813 140.326C565.635 140.121 565.309 139.981 564.833 139.906L564.259 139.822C563.923 139.775 563.615 139.705 563.335 139.612C563.055 139.509 562.807 139.379 562.593 139.22C562.387 139.052 562.224 138.847 562.103 138.604C561.991 138.361 561.935 138.072 561.935 137.736C561.935 137.381 562 137.073 562.131 136.812C562.261 136.541 562.439 136.317 562.663 136.14C562.896 135.963 563.171 135.832 563.489 135.748C563.806 135.655 564.147 135.608 564.511 135.608C565.099 135.608 565.589 135.711 565.981 135.916C566.382 136.121 566.732 136.406 567.031 136.77L566.289 137.442C566.13 137.218 565.897 137.017 565.589 136.84C565.281 136.653 564.893 136.56 564.427 136.56C563.96 136.56 563.605 136.663 563.363 136.868C563.129 137.064 563.013 137.335 563.013 137.68C563.013 138.035 563.129 138.291 563.363 138.45C563.605 138.609 563.951 138.725 564.399 138.8L564.959 138.884C565.761 139.005 566.331 139.239 566.667 139.584C567.003 139.92 567.171 140.363 567.171 140.914C567.171 141.614 566.933 142.165 566.457 142.566C565.981 142.967 565.327 143.168 564.497 143.168Z" fill="#27272A"/>
</svg>
